<?xml version="1.0" standalone="no"?>
<!DOCTYPE svg PUBLIC "-//W3C//DTD SVG 1.1//EN" "http://www.w3.org/Graphics/SVG/1.1/DTD/svg11.dtd" >
<svg xmlns="http://www.w3.org/2000/svg" xmlns:xlink="http://www.w3.org/1999/xlink" version="1.1">
<metadata></metadata>
<defs>
<font id="archivoregular" horiz-adv-x="1138" >
<font-face units-per-em="2048" ascent="1638" descent="-410" />
<missing-glyph horiz-adv-x="569" />
<glyph unicode="fi" horiz-adv-x="1024" d="M18 0zM18 928v149h158v172q0 106 53.5 177t180.5 71q41 0 83 -7t70 -17v-125h-106q-100 0 -101 -99v-172h207v-149h-207v-928h-180v928h-158zM706 0v1077h180v-1077h-180zM706 1280v201h180v-201h-180z" />
<glyph unicode="fl" horiz-adv-x="1024" d="M18 0zM18 928v149h158v172q0 106 53.5 177t180.5 71q41 0 83 -7t70 -17v-125h-106q-100 0 -101 -99v-172h207v-149h-207v-928h-180v928h-158zM706 0v1481h180v-1481h-180z" />
<glyph horiz-adv-x="0" />
<glyph horiz-adv-x="0" />
<glyph unicode=" "  horiz-adv-x="569" />
<glyph unicode="&#x09;" horiz-adv-x="569" />
<glyph unicode="&#xa0;" horiz-adv-x="569" />
<glyph unicode="!" horiz-adv-x="569" d="M170 1405h233l-53 -1055h-127zM184 0v221h205v-221h-205z" />
<glyph unicode="&#x22;" horiz-adv-x="727" d="M94 1106v299h205v-299l-53 -270h-99zM426 1106v299h205v-299l-53 -270h-99z" />
<glyph unicode="#" d="M20 367v155h197l70 318h-174v155h209l96 435h157l-96 -435h314l96 435h158l-97 -435h162v-155h-197l-69 -318h174v-155h-207l-86 -392h-158l86 392h-313l-86 -392h-158l86 392h-164zM375 522h313l70 318h-314z" />
<glyph unicode="$" d="M113 453q0 31 2 45h178v-21q0 -84 58.5 -131t158.5 -59v362q-117 31 -190.5 61.5t-125 90t-51.5 155.5q0 129 98.5 210t268.5 96v219h104v-219q164 -10 258.5 -93.5t94.5 -199.5l-2 -39h-177v18q0 59 -41.5 104.5t-132.5 57.5v-315q117 -29 195 -62t131 -97.5t53 -166.5 q0 -154 -102.5 -235.5t-276.5 -94.5v-239h-104v237q-199 10 -298 100.5t-99 215.5zM330 969q0 -57 45 -89t135 -59v291q-100 -8 -140 -50t-40 -93zM614 287q86 10 139.5 51t53.5 106q0 68 -49 107t-144 70v-334z" />
<glyph unicode="%" horiz-adv-x="1820" d="M125 1059q0 205 78 288t233 83q156 0 232.5 -83t76.5 -288t-76.5 -287t-232.5 -82q-155 0 -233 83t-78 286zM283 1051q0 -121 32.5 -180.5t120.5 -59.5t121 59.5t33 180.5v16q0 123 -33 182.5t-121 59.5t-120.5 -59.5t-32.5 -182.5v-16zM324 0l1013 1405h164l-1016 -1405 h-161zM1077 344q0 205 78 288t234 83t232.5 -83t76.5 -288t-77 -287t-232 -82q-156 0 -234 83t-78 286zM1235 344q0 -125 32.5 -186.5t121.5 -61.5q88 0 120.5 61.5t32.5 186.5v8q0 123 -32.5 182.5t-120.5 59.5t-121 -59.5t-33 -182.5v-8z" />
<glyph unicode="&#x26;" horiz-adv-x="1366" d="M88 377q0 133 67.5 221t182.5 123v8q-102 49 -160.5 124t-58.5 191q0 184 140 285t378 101q152 0 268.5 -48.5t182 -135.5t65.5 -202v-36h-180v18q0 125 -91 187.5t-247 62.5q-145 0 -238.5 -59.5t-93.5 -182.5q0 -119 85 -182.5t210 -63.5h125v-149h-121 q-145 0 -236.5 -56.5t-91.5 -193.5q0 -133 95.5 -196.5t263.5 -63.5q340 0 340 262v397h354v-151h-174v-240q0 -197 -138 -309.5t-399 -112.5q-153 0 -273 48.5t-187.5 139.5t-67.5 214z" />
<glyph unicode="'" horiz-adv-x="391" d="M94 1106v299h205v-299l-53 -270h-99z" />
<glyph unicode="(" horiz-adv-x="681" d="M123 610q0 246 95 478.5t271 416.5h121q-133 -197 -215 -439.5t-82 -471.5q0 -231 83 -475t214 -441h-121q-176 195 -271 434.5t-95 497.5z" />
<glyph unicode=")" horiz-adv-x="681" d="M123 -322q131 201 214 451t83 485q0 225 -82 462t-215 429h121q176 -188 271 -425.5t95 -489.5t-95 -487.5t-271 -424.5h-121z" />
<glyph unicode="*" horiz-adv-x="796" d="M63 979l230 94l-230 96l84 144l197 -152l-35 244h170l-35 -242l197 150l84 -144l-229 -96l229 -94l-84 -145l-197 151l35 -244h-170l35 244l-197 -151z" />
<glyph unicode="+" horiz-adv-x="1196" d="M115 436v172h397v439h170v-439h399v-172h-399v-436h-170v436h-397z" />
<glyph unicode="," horiz-adv-x="569" d="M182 0v221h205v-203l-98 -292h-107l82 274h-82z" />
<glyph unicode="-" horiz-adv-x="681" d="M66 453v200h552v-200h-552z" />
<glyph unicode="." horiz-adv-x="569" d="M186 0v221h205v-221h-205z" />
<glyph unicode="/" horiz-adv-x="569" d="M2 -100l422 1605h143l-420 -1605h-145z" />
<glyph unicode="0" d="M76 702q0 279 57 438.5t165 224.5t271 65q162 0 270.5 -66t166 -224.5t57.5 -437.5t-57.5 -437.5t-166 -224t-270.5 -65.5q-163 0 -271 64.5t-165 224.5t-57 438zM262 702q0 -195 25.5 -319.5t93.5 -191t188 -66.5q121 0 188.5 63.5t93.5 184.5t26 309v20q0 195 -26 320 t-93.5 191.5t-188.5 66.5t-188.5 -63.5t-93 -184.5t-25.5 -309v-21z" />
<glyph unicode="1" d="M190 1149v106q98 10 236.5 52.5t239.5 97.5h69v-1255h336v-150h-878v150h362v999h-365z" />
<glyph unicode="2" d="M80 0v59q0 111 57.5 204t138 164t216.5 169q109 80 176 136t112 116q70 92 70 188t-60.5 167t-209.5 71q-154 0 -225.5 -75t-71.5 -193v-84h-181q-2 6 -4 28.5t-2 53.5q0 213 139.5 319.5t354.5 106.5q201 0 323.5 -101.5t122.5 -308.5q0 -111 -61.5 -207t-148.5 -173 t-226 -177q-102 -74 -160.5 -122t-101.5 -97q-29 -31 -47 -72h753v-172h-964z" />
<glyph unicode="3" d="M72 397v17h182v-23q0 -129 80 -197.5t225 -68.5q150 0 235 65.5t85 198.5q0 137 -91.5 193.5t-236.5 56.5h-148v149h154q123 0 207 63.5t84 182.5q0 123 -79 184.5t-200 61.5q-129 0 -206.5 -64.5t-77.5 -189.5v-18h-183v36q0 115 59.5 202t165 135.5t240.5 48.5 q213 0 340 -100.5t127 -285.5q0 -117 -61.5 -191.5t-171.5 -123.5v-8q121 -35 192.5 -123t71.5 -221q0 -123 -62.5 -214t-173 -139.5t-254.5 -48.5q-241 0 -372 114t-131 308z" />
<glyph unicode="4" d="M51 346v152q133 227 227.5 454.5t149.5 477.5h195q-39 -174 -115 -368t-155 -349.5t-126 -216.5h478v460q43 111 83 265h97v-725h186v-150h-186v-346h-180v346h-654z" />
<glyph unicode="5" d="M74 436h184q0 -141 87 -227t220 -86q137 0 219 85t82 251q0 143 -77.5 223t-206.5 80q-92 0 -171 -44t-122 -118l-166 27l57 778h799v-172h-649l-33 -428q135 109 321 108q190 0 312.5 -116.5t122.5 -337.5q0 -229 -130 -356.5t-358 -127.5q-225 0 -358 124t-133 337z " />
<glyph unicode="6" d="M78 662q0 283 57.5 451.5t169 242.5t283.5 74q215 0 320.5 -120t105.5 -317h-185q0 139 -63.5 213t-187.5 74q-176 0 -244 -132t-72 -398q61 74 152.5 113.5t199.5 39.5q217 0 332 -130t115 -335q0 -139 -60.5 -244.5t-167 -162t-239.5 -56.5q-256 0 -386 157t-130 530z M283 438q0 -137 75.5 -225t221.5 -88q145 0 219.5 90t74.5 231q0 137 -74.5 223.5t-219.5 86.5t-221 -89t-76 -229z" />
<glyph unicode="7" d="M76 1233v172h995v-109q-238 -272 -407.5 -585.5t-169.5 -606.5q0 -55 2 -104h-201q0 569 512 1233h-731z" />
<glyph unicode="8" d="M78 385q0 246 231 336q-94 49 -144 132t-50 185q0 111 52 199t153.5 140.5t246.5 52.5t246.5 -52.5t154 -140.5t52.5 -199q0 -102 -50 -185t-145 -132q233 -90 234 -336q0 -182 -122 -296t-370 -114q-245 0 -367 114t-122 296zM264 385q0 -121 78 -190.5t225 -69.5 q148 0 226.5 68.5t78.5 191.5q0 121 -78.5 189.5t-226.5 68.5q-147 0 -225 -68.5t-78 -189.5zM295 1036q0 -113 73.5 -178t198.5 -65t199 65.5t74 177.5q0 113 -73 178.5t-200 65.5t-199.5 -65.5t-72.5 -178.5z" />
<glyph unicode="9" d="M78 967q0 139 60.5 244.5t167 162t239.5 56.5q256 0 386 -157t130 -530q0 -283 -57.5 -451.5t-169 -242.5t-283.5 -74q-215 0 -320.5 120t-105.5 317h184q0 -139 63.5 -213t188.5 -74q176 0 243.5 132t72.5 398q-59 -74 -148.5 -113.5t-193.5 -39.5q-223 0 -340 130 t-117 335zM264 958q0 -137 75 -223t220 -86q146 0 221.5 89t75.5 229q0 137 -75.5 225t-221.5 88q-145 0 -220 -90t-75 -232z" />
<glyph unicode=":" horiz-adv-x="569" d="M184 0v221h205v-221h-205zM184 856v221h205v-221h-205z" />
<glyph unicode=";" horiz-adv-x="569" d="M182 0v221h205v-203l-98 -292h-107l82 274h-82zM182 856v221h205v-221h-205z" />
<glyph unicode="&#x3c;" horiz-adv-x="1196" d="M113 410v219l970 403v-184l-804 -328l804 -327v-185z" />
<glyph unicode="=" horiz-adv-x="1196" d="M115 217v170h968v-170h-968zM115 651v172h968v-172h-968z" />
<glyph unicode="&#x3e;" horiz-adv-x="1196" d="M113 8v185l805 327l-805 328v184l970 -403v-219z" />
<glyph unicode="?" d="M106 1012q0 119 54.5 213t165 149.5t270.5 55.5q186 0 304 -99.5t118 -265.5q0 -109 -32 -183.5t-76 -120.5t-113 -99q-74 -59 -109 -101.5t-35 -107.5v-84h-178v114q0 92 46 153.5t136 135.5q86 70 130 128t44 142t-53 157t-196 73q-170 0 -229.5 -85t-59.5 -192 q0 -23 1 -37t1 -18h-182q-2 8 -4.5 28.5t-2.5 43.5zM461 0v221h205v-221h-205z" />
<glyph unicode="@" horiz-adv-x="2078" d="M117 537q0 313 127 512.5t341 290t484 90.5q410 0 652.5 -189.5t242.5 -583.5q0 -217 -72.5 -354t-180 -197.5t-218.5 -60.5q-100 0 -151.5 33t-69.5 94h-10q-51 -61 -133 -95t-181 -34q-119 0 -215 59.5t-96 214.5q0 188 160.5 258t464.5 70v119q0 82 -46.5 125 t-164.5 43q-106 0 -154.5 -45t-48.5 -111v-22h-164q-2 12 -2 41q0 131 105.5 201.5t279.5 70.5q178 0 268 -72.5t90 -210.5v-528q0 -78 105 -78q123 0 212 111.5t89 369.5q0 330 -205 490t-559 160q-385 0 -600 -195.5t-215 -578.5q0 -365 181 -546.5t556 -181.5 q82 0 199 19.5t176 46.5v-131q-68 -23 -181.5 -39t-193.5 -16q-418 0 -645 208.5t-227 641.5zM807 328q0 -82 44 -116t142 -34q107 0 188 63.5t81 178.5v90q-227 0 -341 -38t-114 -144z" />
<glyph unicode="A" horiz-adv-x="1366" d="M14 0l545 1405h248l545 -1405h-207l-141 375h-652l-137 -375h-201zM416 545h524l-164 438l-94 254h-10l-92 -250z" />
<glyph unicode="B" horiz-adv-x="1366" d="M162 0v1405h678q176 0 283.5 -94t107.5 -250q0 -119 -65.5 -205t-168.5 -119v-8q125 -29 199 -119t74 -237q0 -188 -118 -280.5t-312 -92.5h-678zM356 170h480q235 0 235 225q0 240 -250 240h-465v-465zM356 805h445q104 0 167.5 60.5t63.5 156.5q0 106 -57 159.5 t-158 53.5h-461v-430z" />
<glyph unicode="C" horiz-adv-x="1478" d="M96 702q0 365 172 546.5t512 181.5q274 0 439 -136.5t165 -396.5h-198q0 180 -107.5 273.5t-298.5 93.5q-248 0 -364.5 -131.5t-118.5 -425.5v-5q0 -297 116.5 -429t366.5 -132q195 0 304.5 92.5t109.5 270.5h190q0 -262 -163.5 -395.5t-440.5 -133.5q-340 0 -512 181.5 t-172 545.5z" />
<glyph unicode="D" horiz-adv-x="1478" d="M162 0v1405h520q338 0 520 -173t182 -530q0 -356 -182 -529t-520 -173h-520zM356 170h326q244 0 372 123t130 405v4q0 285 -128 409t-374 124h-326v-1065z" />
<glyph unicode="E" horiz-adv-x="1366" d="M162 0v1405h1081v-170h-887v-432h797v-170h-797v-463h899v-170h-1093z" />
<glyph unicode="F" horiz-adv-x="1251" d="M162 0v1405h995v-170h-801v-447h727v-170h-727v-618h-194z" />
<glyph unicode="G" horiz-adv-x="1593" d="M96 702q0 727 709 728q291 0 467 -129.5t176 -374.5h-199q0 170 -118.5 254t-325.5 84q-256 0 -381 -131.5t-125 -430.5v-4q2 -297 124 -427t370 -130q238 0 349 98.5t111 301.5v20h-495v170h690v-731h-152l-14 156q-160 -180 -489 -181q-344 0 -520.5 181.5 t-176.5 545.5z" />
<glyph unicode="H" horiz-adv-x="1478" d="M162 0v1405h194v-602h766v602h195v-1405h-195v633h-766v-633h-194z" />
<glyph unicode="I" horiz-adv-x="569" d="M188 0v1405h195v-1405h-195z" />
<glyph unicode="J" horiz-adv-x="1024" d="M59 375v51h195v-61q0 -111 53 -167.5t154 -56.5q102 0 155.5 64.5t53.5 191.5v1008h194v-997q0 -215 -104.5 -324t-298.5 -109q-193 0 -297.5 102.5t-104.5 297.5z" />
<glyph unicode="K" horiz-adv-x="1366" d="M162 0v1405h194v-774l744 774h241l-534 -561l553 -844h-232l-456 705l-316 -295v-410h-194z" />
<glyph unicode="L" d="M162 0v1405h194v-1235h721v-170h-915z" />
<glyph unicode="M" horiz-adv-x="1705" d="M162 0v1405h289l335 -959q18 -53 38 -121.5t26 -88.5h8q6 23 25.5 94t36.5 116l337 959h287v-1405h-194v928l4 262h-15q-2 -14 -12 -58.5t-22 -76.5l-381 -1055h-162l-375 1055q-10 29 -21.5 75t-13.5 60h-12l4 -262v-928h-182z" />
<glyph unicode="N" horiz-adv-x="1478" d="M162 0v1405h174l741 -979l49 -66l9 2v97v946h182v-1405h-166l-745 991l-54 72l-8 -2v-96v-965h-182z" />
<glyph unicode="O" horiz-adv-x="1593" d="M96 702q0 360 183.5 544t517.5 184q336 0 519 -183.5t183 -544.5q0 -358 -183 -542.5t-519 -184.5q-334 0 -517.5 183.5t-183.5 543.5zM297 694q0 -289 129 -421t371 -132q243 0 372 132.5t129 420.5v8q-2 293 -131 427.5t-370 134.5q-240 0 -369 -134.5t-131 -427.5v-8z " />
<glyph unicode="P" horiz-adv-x="1366" d="M162 0v1405h684q211 0 323.5 -117t112.5 -311q0 -199 -117.5 -318.5t-318.5 -119.5h-490v-539h-194zM356 709h480q115 0 182 71.5t67 194.5q0 125 -63.5 192.5t-185.5 67.5h-480v-526z" />
<glyph unicode="Q" horiz-adv-x="1593" d="M96 702q0 360 183.5 544t517.5 184q336 0 519 -183.5t183 -544.5q0 -262 -98 -431t-285 -242l303 -295h-274l-252 246q-61 -4 -96 -5q-334 0 -517.5 183.5t-183.5 543.5zM297 694q0 -289 129 -421t371 -132q243 0 372 132.5t129 420.5v8q-2 293 -131 427.5t-370 134.5 q-240 0 -369 -134.5t-131 -427.5v-8z" />
<glyph unicode="R" horiz-adv-x="1478" d="M162 0v1405h731q211 0 323.5 -108.5t112.5 -290.5q0 -143 -68.5 -248t-189.5 -150l324 -608h-217l-306 580h-516v-580h-194zM356 750h527q115 0 182.5 67.5t67.5 186.5q0 111 -63.5 171t-186.5 60h-527v-485z" />
<glyph unicode="S" horiz-adv-x="1366" d="M100 397l2 41h193q0 -2 -2 -14t-2 -29q0 -125 103.5 -189.5t275.5 -64.5q193 0 295 60.5t102 173.5q0 76 -53 126t-134 78.5t-218 63.5q-170 43 -274.5 83t-178.5 119t-74 208q0 184 153.5 280.5t393.5 96.5t389.5 -97.5t149.5 -298.5v-24h-191v30q0 104 -95 164t-247 60 q-162 0 -259 -49.5t-97 -147.5q0 -72 52 -117t129 -72.5t214 -62.5q170 -43 277.5 -84t182.5 -120t75 -205q0 -225 -157 -328t-425 -103q-256 0 -418 102.5t-162 319.5z" />
<glyph unicode="T" horiz-adv-x="1251" d="M45 1235v170h1161v-170h-483v-1235h-195v1235h-483z" />
<glyph unicode="U" horiz-adv-x="1478" d="M162 518v887h194v-897q0 -180 99.5 -273.5t281.5 -93.5q184 0 284.5 94.5t100.5 272.5v897h195v-887q0 -276 -149.5 -409.5t-430.5 -133.5q-276 0 -425.5 133.5t-149.5 409.5z" />
<glyph unicode="V" horiz-adv-x="1366" d="M33 1405h211l370 -1022l70 -188h10l70 192l369 1018h200l-522 -1405h-256z" />
<glyph unicode="W" horiz-adv-x="1933" d="M23 1405h204l283 -991q14 -53 30.5 -121t22.5 -94h10l41 215l217 991h279l225 -991l43 -215h11q6 27 23.5 94t31.5 121l272 991h195l-406 -1405h-268l-221 985q-16 74 -29.5 140.5t-17.5 88.5h-11q-4 -25 -15 -93t-25 -136l-222 -985h-268z" />
<glyph unicode="X" horiz-adv-x="1366" d="M10 0l553 735l-504 670h242l373 -502h16l377 502h233l-499 -668l555 -737h-240l-428 575h-16l-426 -575h-236z" />
<glyph unicode="Y" horiz-adv-x="1366" d="M33 1405h235l418 -643h10l416 643h223l-553 -823v-582h-194v582z" />
<glyph unicode="Z" horiz-adv-x="1251" d="M47 0v100l844 1135h-791v170h1088v-100l-846 -1135h864v-170h-1159z" />
<glyph unicode="[" horiz-adv-x="569" d="M129 -330v1835h385v-133h-223v-1569h223v-133h-385z" />
<glyph unicode="\" horiz-adv-x="569" d="M2 1505h143l422 -1605h-145z" />
<glyph unicode="]" horiz-adv-x="569" d="M55 -197h224v1569h-224v133h385v-1835h-385v133z" />
<glyph unicode="^" horiz-adv-x="960" d="M51 602l320 803h219l321 -803h-184l-248 645l-243 -645h-185z" />
<glyph unicode="_" d="M0 -145h1139v-109h-1139v109z" />
<glyph unicode="`" horiz-adv-x="681" d="M154 1475l2 6h196l176 -271h-153z" />
<glyph unicode="a" d="M74 279q0 207 184 283.5t533 76.5v119q0 94 -53.5 144t-192.5 50q-131 0 -187.5 -49t-56.5 -121v-24h-174q-2 12 -2 45q0 143 118.5 221t317.5 78q201 0 305.5 -84t104.5 -238v-583q0 -37 20.5 -54.5t50.5 -17.5h82v-117q-51 -24 -132 -24h-7q-70 0 -117 42t-63 111h-14 q-55 -76 -150.5 -119t-210.5 -43q-139 0 -247.5 65.5t-108.5 238.5zM262 289q0 -88 54.5 -126t160.5 -38q80 0 151.5 32.5t117 97t45.5 157.5v77q-264 0 -396.5 -41.5t-132.5 -158.5z" />
<glyph unicode="b" d="M137 0v1481h180v-527h13q53 78 133 113t194 35q190 0 300 -140.5t110 -422.5q0 -289 -110.5 -426.5t-315.5 -137.5q-106 0 -193.5 43t-140.5 127h-12l-23 -145h-135zM317 530q0 -201 67 -303t212 -102q104 0 165.5 39t90.5 127t29 239v9q0 154 -29 243.5t-91.5 129.5 t-164.5 40q-143 0 -211 -104.5t-68 -308.5v-9z" />
<glyph unicode="c" horiz-adv-x="1024" d="M72 539q0 289 115.5 426t359.5 137q221 0 323.5 -106.5t102.5 -317.5h-185q0 145 -52 209.5t-189 64.5q-150 0 -219.5 -97t-69.5 -316v-9q0 -217 67.5 -311t221.5 -94q135 0 193.5 68.5t58.5 205.5h174q0 -184 -104.5 -304t-321.5 -120q-246 0 -360.5 136.5t-114.5 427.5 z" />
<glyph unicode="d" d="M72 539q0 283 109.5 423t299.5 140q115 0 195 -35t133 -113h12v527h180v-1481h-135l-22 145h-13q-53 -84 -140 -127t-193 -43q-205 0 -315.5 137.5t-110.5 426.5zM258 530q0 -152 28.5 -239.5t90 -126.5t166.5 -39q145 0 211.5 102.5t66.5 302.5v9q0 205 -67.5 309 t-210.5 104q-102 0 -165 -40t-91.5 -130t-28.5 -243v-9z" />
<glyph unicode="e" d="M80 539q0 289 127 426t387 137q233 0 349 -124t116 -398v-91h-793q10 -186 89 -275t239 -89q129 0 209 59.5t80 182.5h176q0 -188 -130 -290t-335 -102q-260 0 -387 137.5t-127 426.5zM270 639h600q0 313 -276 313q-154 0 -230.5 -73.5t-93.5 -239.5z" />
<glyph unicode="f" horiz-adv-x="569" d="M18 928v149h158v172q0 106 53.5 177t180.5 71q41 0 83 -7t70 -17v-125h-106q-100 0 -101 -99v-172h207v-149h-207v-928h-180v928h-158z" />
<glyph unicode="g" d="M37 -113q0 168 174 230q-49 27 -81 68.5t-32 97.5q0 80 56.5 120.5t124.5 57.5q-68 49 -107 120.5t-39 157.5q0 172 117 267.5t319 95.5q113 0 205 -37q133 63 156 186h172q0 -96 -56.5 -165.5t-152.5 -92.5q115 -102 115 -254q0 -172 -118 -267t-321 -95h-172 q-55 0 -84.5 -24.5t-29.5 -63.5t29.5 -63.5t84.5 -24.5h432q127 0 201 -77t74 -185q0 -78 -35 -150t-111.5 -117t-193.5 -45h-434q-119 0 -206 60.5t-87 199.5zM217 -92q0 -61 35 -98t94 -37h422q68 0 113 36.5t45 98.5q0 61 -36 97t-95 36h-449q-59 0 -94 -36t-35 -97z M313 739q0 -106 65.5 -164.5t192.5 -58.5t192.5 58.5t65.5 164.5t-65.5 165t-192.5 59t-192.5 -58.5t-65.5 -165.5z" />
<glyph unicode="h" d="M137 0v1481h180v-525h15q113 145 340 146q336 0 336 -367v-735h-181v723q0 129 -57 179t-166 50q-78 0 -143.5 -37.5t-104.5 -109.5t-39 -168v-637h-180z" />
<glyph unicode="i" horiz-adv-x="454" d="M137 0v1077h180v-1077h-180zM137 1280v201h180v-201h-180z" />
<glyph unicode="j" horiz-adv-x="454" d="M-49 -231h90q96 0 96 98v1210h180v-1202q0 -106 -52 -177t-173 -71q-71 0 -141 25v117zM137 1280v201h180v-201h-180z" />
<glyph unicode="k" horiz-adv-x="1024" d="M137 0v1481h180v-932l457 528h223l-370 -424l391 -653h-209l-295 524l-197 -186v-338h-180z" />
<glyph unicode="l" horiz-adv-x="454" d="M137 0v1481h180v-1481h-180z" />
<glyph unicode="m" horiz-adv-x="1705" d="M137 0v1077h137l21 -145h14q111 170 324 170q209 0 278 -170h13q55 82 144 126t189 44q317 0 318 -326v-776h-180v743q0 117 -51.5 163t-141.5 46q-109 0 -182.5 -86t-73.5 -229v-637h-180v743q0 117 -49 163t-139 46q-70 0 -129.5 -37.5t-95.5 -109.5t-36 -168v-637 h-180z" />
<glyph unicode="n" d="M137 0v1077h137l21 -145h14q119 170 363 170q162 0 249 -87t87 -280v-735h-181v723q0 129 -57 179t-166 50q-78 0 -143.5 -37.5t-104.5 -109.5t-39 -168v-637h-180z" />
<glyph unicode="o" d="M72 539q0 287 125 425t372 138q248 0 373 -138.5t125 -424.5q0 -287 -125 -425.5t-373 -138.5q-247 0 -372 138.5t-125 425.5zM258 530q0 -215 74 -310t237 -95q164 0 238 95t74 310v17q0 215 -74 310t-238 95t-237.5 -95t-73.5 -310v-17z" />
<glyph unicode="p" d="M137 -354v1431h135l23 -145h12q53 84 140.5 127t193.5 43q205 0 315.5 -137.5t110.5 -425.5q0 -283 -109.5 -423.5t-300.5 -140.5q-115 0 -194.5 35t-132.5 113h-13v-477h-180zM317 530q0 -201 67 -303t212 -102q104 0 165.5 39t90.5 127t29 239v9q0 154 -29 243.5 t-91.5 129.5t-164.5 40q-143 0 -211 -104.5t-68 -308.5v-9z" />
<glyph unicode="q" d="M72 539q0 289 110.5 426t315.5 137q106 0 193 -43t140 -127h13l22 145h135v-1431h-180v477h-12q-53 -78 -133 -113t-195 -35q-190 0 -299.5 140.5t-109.5 423.5zM258 530q0 -152 28.5 -239.5t90 -126.5t166.5 -39q145 0 211.5 102.5t66.5 302.5v9q0 205 -67.5 309 t-210.5 104q-102 0 -165 -40t-91.5 -130t-28.5 -243v-9z" />
<glyph unicode="r" horiz-adv-x="681" d="M137 0v1077h137l21 -162h12q31 80 92.5 133.5t161.5 53.5q35 0 62.5 -7.5t33.5 -9.5v-174h-75q-115 0 -190 -66.5t-75 -207.5v-637h-180z" />
<glyph unicode="s" horiz-adv-x="1024" d="M63 291q0 25 1.5 34t1.5 11h178v-21q0 -96 75.5 -144t196.5 -48q104 0 173 42t69 118q0 59 -39 97t-96.5 59.5t-155.5 45.5q-119 31 -193.5 62t-127 91t-52.5 157q0 141 116 224t312 83q123 0 213 -40t136.5 -106.5t46.5 -148.5l-3 -39h-176v18q0 72 -56 119t-181 47 q-123 0 -172 -44t-49 -101q0 -47 34.5 -78t86 -49t143.5 -41q127 -33 206.5 -64.5t136 -96t56.5 -171.5q0 -166 -119.5 -249t-318.5 -83q-150 0 -249 44t-146.5 116t-47.5 156z" />
<glyph unicode="t" horiz-adv-x="569" d="M37 928v149h133l39 299h139v-299h182v-149h-182v-707q0 -96 90 -96h92v-119q-27 -12 -69.5 -20.5t-79.5 -8.5q-111 0 -162 66t-51 162v723h-131z" />
<glyph unicode="u" d="M131 342v735h180v-723q0 -129 57.5 -179t166.5 -50q78 0 143 38t104 109.5t39 167.5v637h180v-1077h-137l-20 145h-15q-119 -170 -362 -170q-162 0 -249 87.5t-87 279.5z" />
<glyph unicode="v" horiz-adv-x="1024" d="M27 1077h190l191 -538q27 -76 61.5 -188.5t44.5 -149.5h10q10 35 43 144.5t62 193.5l188 538h180l-395 -1077h-180z" />
<glyph unicode="w" horiz-adv-x="1478" d="M10 1077h187l165 -610q16 -63 36 -143t28 -111h10l53 254l142 610h219l149 -610q14 -63 32 -143t24 -111h10q6 31 24.5 108.5t36.5 145.5l164 610h176l-323 -1077h-197l-155 643l-50 221h-8q-6 -27 -19.5 -94.5t-27.5 -126.5l-154 -643h-198z" />
<glyph unicode="x" horiz-adv-x="1024" d="M14 0l400 551l-381 526h219l256 -383h12l262 383h209l-381 -522l400 -555h-217l-277 414h-12l-281 -414h-209z" />
<glyph unicode="y" horiz-adv-x="1024" d="M27 1077h190l201 -538q29 -76 66.5 -189.5t50.5 -148.5h10q10 35 37.5 131t62.5 207l172 538h180l-354 -1022q-72 -205 -163 -316.5t-240 -111.5q-91 1 -144 17v116h72q209 0 274 240z" />
<glyph unicode="z" horiz-adv-x="1024" d="M49 0v96l625 832h-582v149h846v-94l-627 -833h662v-150h-924z" />
<glyph unicode="{" horiz-adv-x="684" d="M84 504v172q68 0 118 29.5t50 93.5v403q0 176 92 239.5t254 63.5v-116q-76 0 -129 -32t-55 -114l-15 -422q-4 -111 -46 -166t-136 -55v-20q94 0 136 -55.5t46 -166.5l15 -421q2 -82 55 -114t129 -32v-117q-162 0 -254 63.5t-92 239.5v404q0 63 -50 93t-118 30z" />
<glyph unicode="|" horiz-adv-x="532" d="M186 -354v1835h160v-1835h-160z" />
<glyph unicode="}" horiz-adv-x="684" d="M86 -209q76 0 129 32t55 114l15 421q4 111 46 166.5t136 55.5v20q-94 0 -136 55.5t-46 165.5l-15 422q-2 82 -55 114t-129 32v116q162 0 254 -63.5t92 -239.5v-403q0 -63 50 -93t118 -30v-172q-68 0 -118 -30t-50 -93v-404q0 -176 -92 -239.5t-254 -63.5v117z" />
<glyph unicode="~" horiz-adv-x="1196" d="M84 432v191q0 6 38 45t104.5 71.5t154.5 32.5q51 0 97 -15.5t118 -45.5q66 -31 116 -47.5t103 -16.5q78 0 143.5 33t109.5 73t44 44v-191q0 -6 -38 -45t-104.5 -71.5t-154.5 -32.5q-51 0 -97 15t-118 46q-66 31 -116 47.5t-103 16.5q-78 0 -143.5 -33t-109.5 -73t-44 -44 z" />
<glyph unicode="&#xa1;" horiz-adv-x="681" d="M225 -328l54 1055h127l53 -1055h-234zM240 856v221h204v-221h-204z" />
<glyph unicode="&#xa2;" d="M102 700q0 274 104.5 411.5t321.5 150.5v219h105v-219q190 -14 280.5 -120t90.5 -302h-185q0 129 -41 193.5t-145 76.5v-821q104 14 150 81.5t46 190.5h175q0 -172 -91.5 -288.5t-279.5 -133.5v-239h-105v237q-221 14 -323.5 150.5t-102.5 412.5zM289 692q0 -199 56 -294 t183 -109v823q-125 -14 -182 -110.5t-57 -292.5v-17z" />
<glyph unicode="&#xa3;" d="M43 623v147h184v252q0 201 106.5 304.5t303.5 103.5q199 0 304.5 -93.5t105.5 -304.5v-26h-181v32q0 123 -59 182.5t-170 59.5q-117 0 -173 -54.5t-56 -170.5v-285h337v-147h-339l-25 -461h666v-162h-975v162h155v461h-184z" />
<glyph unicode="&#xa4;" d="M57 1137l99 98l116 -115q57 49 136 77t161 28t161 -28t136 -77l117 115l98 -98l-112 -111q51 -57 76.5 -138t25.5 -169q0 -86 -25.5 -166t-76.5 -143l110 -115l-92 -92l-113 119q-59 -55 -139 -84t-166 -29t-165.5 28.5t-139.5 84.5l-112 -119l-93 92l111 115 q-51 63 -76.5 143t-25.5 166q0 88 25.5 169t76.5 138zM236 719q0 -92 45 -172t121.5 -128t166.5 -48t167 48t122 128t45 172q0 90 -45 169t-122 127t-167 48t-166.5 -48t-121.5 -127t-45 -169z" />
<glyph unicode="&#xa5;" d="M14 1405h211l242 -391q45 -74 78 -139.5t41 -83.5h8q10 20 44 88.5t71 132.5l223 393h190l-286 -477q-35 -57 -70 -107.5t-45 -64.5h336v-133h-387v-144h387v-133h-387v-346h-181v346h-407v133h407v144h-407v133h356q-12 14 -50 67.5t-71 104.5z" />
<glyph unicode="&#xa6;" horiz-adv-x="532" d="M186 -354v749h160v-749h-160zM186 731v750h160v-750h-160z" />
<glyph unicode="&#xa7;" d="M88 567q0 92 57.5 163t143.5 112q-82 49 -127 116.5t-45 163.5q0 143 124 225.5t347 82.5q137 0 235.5 -40t148.5 -106.5t50 -148.5l-2 -39h-189v18q0 72 -62 120t-204 48q-150 0 -203 -52t-53 -118q0 -59 41 -100t103.5 -70t169.5 -65q135 -47 221 -90.5t146.5 -116 t60.5 -181.5q0 -92 -57.5 -162.5t-143.5 -113.5q80 -51 126 -117.5t46 -161.5q0 -143 -124 -225t-347 -82q-137 0 -235.5 40t-148.5 106.5t-50 148.5l2 39h188v-18q0 -72 62.5 -120t203.5 -48q150 0 203 52t53 116q0 59 -40.5 100t-102 69.5t-170.5 67.5q-139 51 -223 92 t-144.5 114t-60.5 181zM268 610q0 -76 46 -129t115 -86t189 -78q55 -20 103 -38q70 26 109.5 69t39.5 98q0 78 -47 131.5t-117.5 86t-191.5 75.5l-98 37q-70 -25 -109 -67.5t-39 -98.5z" />
<glyph unicode="&#xa8;" horiz-adv-x="681" d="M61 1286v195h179v-195h-179zM444 1286v195h179v-195h-179z" />
<glyph unicode="&#xa9;" horiz-adv-x="1509" d="M27 702q0 197 98 364t265 265.5t364 98.5t363.5 -98.5t265 -265.5t98.5 -364t-98.5 -363.5t-265.5 -265t-363 -98.5q-197 0 -364 98.5t-265 265.5t-98 363zM127 702q0 -172 84 -316t228.5 -229t314.5 -85t314 85t228 229t84 316t-84 316.5t-228 229.5t-314 85t-314.5 -85 t-228.5 -229.5t-84 -316.5zM391 702q0 221 88 326t275 105q168 0 245.5 -82t77.5 -242h-139q0 111 -40 160t-144 49q-115 0 -168.5 -74t-53.5 -242t52.5 -241.5t169.5 -73.5q102 0 147 52.5t45 158.5h131q0 -141 -79.5 -232.5t-243.5 -91.5q-187 0 -275 103.5t-88 324.5z " />
<glyph unicode="&#xaa;" horiz-adv-x="757" d="M47 948q0 143 121 195.5t348 52.5v88q0 55 -32.5 85t-112.5 30q-78 0 -113 -33t-35 -80v-20h-141v34q0 98 81 151.5t214 53.5q139 0 209.5 -53t70.5 -152v-405q0 -23 13.5 -34t31.5 -11h58v-84q-29 -18 -96 -18q-51 0 -88 23.5t-50 62.5h-4q-39 -43 -99.5 -68t-131.5 -25 q-94 0 -169 44t-75 163zM195 954q0 -57 31.5 -80.5t97.5 -23.5q76 0 134 46t58 128v63q-158 0 -239.5 -27.5t-81.5 -105.5z" />
<glyph unicode="&#xab;" d="M131 668l322 409h145l-264 -409l264 -410h-145zM530 668l322 409h145l-264 -409l264 -410h-145z" />
<glyph unicode="&#xac;" horiz-adv-x="1196" d="M115 737v191h968v-525h-172v334h-796z" />
<glyph unicode="&#xad;" horiz-adv-x="681" d="M66 453v200h552v-200h-552z" />
<glyph unicode="&#xae;" horiz-adv-x="1509" d="M27 702q0 197 98 364t265 265.5t364 98.5t363.5 -98.5t265 -265.5t98.5 -364t-98.5 -363.5t-265.5 -265t-363 -98.5q-197 0 -364 98.5t-265 265.5t-98 363zM127 702q0 -172 84 -316t228.5 -229t314.5 -85t314 85t228 229t84 316t-84 316.5t-228 229.5t-314 85t-314.5 -85 t-228.5 -229.5t-84 -316.5zM459 283v841h389q125 0 191.5 -68.5t66.5 -183.5q0 -86 -38 -148t-110 -91l179 -350h-148l-164 327h-227v-327h-139zM598 725h229q63 0 100.5 39t37.5 108q0 68 -36 103t-102 35h-229v-285z" />
<glyph unicode="&#xaf;" horiz-adv-x="681" d="M29 1284v148h624v-148h-624z" />
<glyph unicode="&#xb0;" horiz-adv-x="819" d="M129 1153q0 76 37 139.5t100.5 100.5t139.5 37t139 -37t100 -100.5t37 -139.5t-37 -139.5t-100.5 -100t-138.5 -36.5q-76 0 -139.5 36.5t-100.5 100t-37 139.5zM238 1153q0 -70 49 -119t119 -49q69 0 117 49t48 119t-48 118t-117 48q-70 0 -119 -48t-49 -118z" />
<glyph unicode="&#xb1;" horiz-adv-x="1124" d="M78 0v170h969v-170h-969zM80 696v172h397v439h170v-439h400v-172h-400v-436h-170v436h-397z" />
<glyph unicode="&#xb2;" horiz-adv-x="681" d="M84 686v49q0 59 28.5 107.5t69.5 84.5t113 89q8 6 57 43t78 74q35 45 35 86q0 39 -25.5 68.5t-87.5 29.5q-68 0 -98.5 -32t-30.5 -83v-51h-127q0 4 -2 18.5t-2 30.5q0 117 75 174.5t189 57.5q109 0 174.5 -53.5t65.5 -161.5q0 -66 -30.5 -117t-73.5 -88t-119 -92 q-10 -8 -44 -33t-55.5 -46.5t-29.5 -39.5h356v-115h-516z" />
<glyph unicode="&#xb3;" horiz-adv-x="681" d="M78 901v27h129v-31q0 -55 33.5 -84t97.5 -29q63 0 100 28t37 85q0 102 -141 102h-62v115h66q53 0 89 25.5t36 74.5q0 51 -34 77t-85 26q-55 0 -89 -26.5t-34 -80.5v-28h-129v39q0 94 69.5 151.5t180.5 57.5q115 0 182.5 -55.5t67.5 -153.5q0 -96 -105 -154v-4 q121 -53 121 -174q0 -98 -72.5 -157.5t-189.5 -59.5q-127 0 -197.5 61.5t-70.5 167.5z" />
<glyph unicode="&#xb4;" horiz-adv-x="681" d="M154 1210l176 271h196l2 -6l-221 -265h-153z" />
<glyph unicode="&#xb5;" horiz-adv-x="1179" d="M158 0zM158 -354v1431h180v-723q0 -129 57.5 -179t165.5 -50q78 0 143.5 38t104.5 109.5t39 167.5v637h180v-1077h-137l-21 145h-14q-57 -86 -141 -128t-187 -42q-111 0 -190 50v-129v-250h-180z" />
<glyph unicode="&#xb6;" horiz-adv-x="1099" d="M37 958q0 231 136 339t364 108h544v-125h-125v-1624h-172v1624h-135v-1624h-172v862q-117 0 -217 49t-161.5 149.5t-61.5 241.5z" />
<glyph unicode="&#xb7;" horiz-adv-x="681" d="M238 621v221h204v-221h-204z" />
<glyph unicode="&#xb8;" horiz-adv-x="681" d="M106 -256h205q41 0 62.5 11.5t21.5 37.5q0 25 -17.5 37t-62.5 12h-104l33 181h127l-17 -97q188 -12 189 -133q0 -92 -74 -129t-168 -37q-107 1 -195 17v100z" />
<glyph unicode="&#xb9;" horiz-adv-x="681" d="M104 672v114h181v461h-181v82q55 6 127 27.5t121 48.5h62v-619h164v-114h-474z" />
<glyph unicode="&#xba;" horiz-adv-x="747" d="M45 1122q0 383 330 383q328 0 327 -383q0 -383 -327 -383q-330 0 -330 383zM195 1122q0 -143 42 -208.5t138 -65.5t139 64.5t43 205.5q0 145 -44 212t-138 67q-96 0 -138 -62.5t-42 -201.5v-11z" />
<glyph unicode="&#xbb;" d="M131 258l264 410l-264 409h145l322 -409l-322 -410h-145zM530 258l265 410l-265 409h146l321 -409l-321 -410h-146z" />
<glyph unicode="&#xbc;" horiz-adv-x="1708" d="M104 672v114h181v461h-181v82q55 6 127 27.5t121 48.5h62v-619h164v-114h-474zM221 -25l1118 1455h148l-1118 -1455h-148zM1047 168v104q121 225 176 473h135q-27 -119 -81 -251t-101 -211h194v196q25 70 45 164h84v-360h92v-115h-92v-168h-129v168h-323z" />
<glyph unicode="&#xbd;" horiz-adv-x="1708" d="M104 672v114h181v461h-181v82q55 6 127 27.5t121 48.5h62v-619h164v-114h-474zM221 -25l1118 1455h148l-1118 -1455h-148zM1081 0v49q0 59 29 107.5t70 84t112 89.5q63 47 94 73.5t52 57.5q25 35 24 71q0 39 -25.5 69t-86.5 30q-68 0 -98.5 -32t-30.5 -83v-51h-127 q-4 29 -4 49q0 117 74.5 174t189.5 57q109 0 174 -53t65 -162q0 -86 -58 -152.5t-165 -144.5q-10 -8 -44 -32.5t-55.5 -46t-29.5 -39.5h356v-115h-516z" />
<glyph unicode="&#xbe;" horiz-adv-x="1708" d="M90 901v27h129v-31q0 -55 34 -84t97 -29t100 28t37 85q0 102 -141 102h-61v115h65q53 0 89 25.5t36 74.5q0 51 -33.5 77t-85.5 26q-55 0 -89 -26.5t-34 -80.5v-28h-129v39q0 94 70 151.5t180 57.5q115 0 182.5 -55.5t67.5 -153.5q0 -96 -106 -154v-4q123 -53 123 -174 q0 -98 -73 -157.5t-190 -59.5q-127 0 -197.5 61.5t-70.5 167.5zM221 -25l1118 1455h148l-1118 -1455h-148zM1047 168v104q121 225 176 473h135q-27 -119 -81 -251t-101 -211h194v196q25 70 45 164h84v-360h92v-115h-92v-168h-129v168h-323z" />
<glyph unicode="&#xbf;" horiz-adv-x="1251" d="M176 12q0 109 32 183.5t76 120.5t113 100q74 59 109 101t35 108v84h178v-115q0 -92 -46 -153.5t-136 -135.5q-86 -70 -130.5 -128t-44.5 -142t53.5 -157t196.5 -73q170 0 228.5 85t58.5 192q0 23 -1 37t-1 18h182q2 -8 4 -28.5t2 -42.5q0 -119 -54 -213.5t-163.5 -149.5 t-269.5 -55q-186 0 -304 99t-118 265zM528 856v221h205v-221h-205z" />
<glyph unicode="&#xc0;" horiz-adv-x="1366" d="M14 0l545 1405h248l545 -1405h-207l-141 375h-652l-137 -375h-201zM14 0zM385 1772l2 6h196l176 -271h-153zM416 545h524l-164 438l-94 254h-10l-92 -250z" />
<glyph unicode="&#xc1;" horiz-adv-x="1366" d="M14 0l545 1405h248l545 -1405h-207l-141 375h-652l-137 -375h-201zM14 0zM416 545h524l-164 438l-94 254h-10l-92 -250zM607 1507l176 271h196l2 -6l-221 -265h-153z" />
<glyph unicode="&#xc2;" horiz-adv-x="1366" d="M14 0l545 1405h248l545 -1405h-207l-141 375h-652l-137 -375h-201zM14 0zM381 1501l217 277h172l215 -277h-184l-117 162l-119 -162h-184zM416 545h524l-164 438l-94 254h-10l-92 -250z" />
<glyph unicode="&#xc3;" horiz-adv-x="1366" d="M14 0l545 1405h248l545 -1405h-207l-141 375h-652l-137 -375h-201zM14 0zM348 1565q0 92 43 152.5t131 60.5q39 0 75 -8.5t87 -24.5q88 -31 143 -31q51 0 58 64h133q0 -92 -43 -152.5t-131 -60.5q-39 0 -75 8t-87 24q-88 31 -143 31q-51 0 -58 -63h-133zM416 545h524 l-164 438l-94 254h-10l-92 -250z" />
<glyph unicode="&#xc4;" horiz-adv-x="1366" d="M14 0l545 1405h248l545 -1405h-207l-141 375h-652l-137 -375h-201zM14 0zM403 1583v195h179v-195h-179zM416 545h524l-164 438l-94 254h-10l-92 -250zM786 1583v195h179v-195h-179z" />
<glyph unicode="&#xc5;" horiz-adv-x="1366" d="M14 0l545 1405h248l545 -1405h-207l-141 375h-652l-137 -375h-201zM14 0zM416 545h524l-164 438l-94 254h-10l-92 -250zM487 1653q0 84 53.5 140t143.5 56t143.5 -56t53.5 -140t-53.5 -140.5t-143.5 -56.5t-143.5 56.5t-53.5 140.5zM580 1653q0 -43 29.5 -74t74.5 -31 t74.5 31t29.5 74t-29.5 73.5t-74.5 30.5t-74.5 -30.5t-29.5 -73.5z" />
<glyph unicode="&#xc6;" horiz-adv-x="2048" d="M-2 0l709 1405h1218v-170h-911l121 -432h700v-170h-651l129 -463h624v-170h-778l-104 375h-678l-184 -375h-195zM461 545h547l-193 690h-10z" />
<glyph unicode="&#xc7;" horiz-adv-x="1478" d="M96 702q0 365 172 546.5t512 181.5q274 0 439 -136.5t165 -396.5h-198q0 180 -107.5 273.5t-298.5 93.5q-248 0 -364.5 -131.5t-118.5 -425.5v-5q0 -297 116.5 -429t366.5 -132q195 0 304.5 92.5t109.5 270.5h190q0 -250 -149.5 -383t-403.5 -144l-8 -51 q188 -12 189 -133q0 -92 -74 -129t-168 -37q-106 0 -195 17v100h205q41 0 62.5 11.5t21.5 37.5q0 25 -17.5 37t-62.5 12h-104l25 135q-608 41 -609 725z" />
<glyph unicode="&#xc8;" horiz-adv-x="1366" d="M162 0v1405h1081v-170h-887v-432h797v-170h-797v-463h899v-170h-1093zM162 0zM385 1772l2 6h196l176 -271h-153z" />
<glyph unicode="&#xc9;" horiz-adv-x="1366" d="M162 0v1405h1081v-170h-887v-432h797v-170h-797v-463h899v-170h-1093zM162 0zM607 1507l176 271h196l2 -6l-221 -265h-153z" />
<glyph unicode="&#xca;" horiz-adv-x="1366" d="M162 0v1405h1081v-170h-887v-432h797v-170h-797v-463h899v-170h-1093zM162 0zM381 1501l217 277h172l215 -277h-184l-117 162l-119 -162h-184z" />
<glyph unicode="&#xcb;" horiz-adv-x="1366" d="M162 0v1405h1081v-170h-887v-432h797v-170h-797v-463h899v-170h-1093zM162 0zM403 1583v195h179v-195h-179zM786 1583v195h179v-195h-179z" />
<glyph unicode="&#xcc;" horiz-adv-x="569" d="M-14 1772l2 6h196l176 -271h-153zM0 0zM188 0v1405h195v-1405h-195z" />
<glyph unicode="&#xcd;" horiz-adv-x="569" d="M188 0v1405h195v-1405h-195zM188 0zM207 1507l176 271h196l2 -6l-221 -265h-153z" />
<glyph unicode="&#xce;" horiz-adv-x="569" d="M-18 1501l217 277h172l215 -277h-184l-117 162l-119 -162h-184zM0 0zM188 0v1405h195v-1405h-195z" />
<glyph unicode="&#xcf;" horiz-adv-x="569" d="M4 0zM4 1583v195h179v-195h-179zM188 0v1405h195v-1405h-195zM387 1583v195h179v-195h-179z" />
<glyph unicode="&#xd0;" horiz-adv-x="1478" d="M10 664v129h152v612h520q338 0 520 -173t182 -530q0 -356 -182 -529t-520 -173h-520v664h-152zM356 170h326q244 0 372 123t130 405v4q0 285 -128 409t-374 124h-326v-442h355v-129h-355v-494z" />
<glyph unicode="&#xd1;" horiz-adv-x="1478" d="M162 0v1405h174l741 -979l49 -66l9 2v97v946h182v-1405h-166l-745 991l-54 72l-8 -2v-96v-965h-182zM162 0zM403 1565q0 92 43 152.5t131 60.5q39 0 75 -8.5t87 -24.5q88 -31 143 -31q51 0 58 64h133q0 -92 -43 -152.5t-131 -60.5q-39 0 -75 8t-87 24q-88 31 -143 31 q-51 0 -58 -63h-133z" />
<glyph unicode="&#xd2;" horiz-adv-x="1593" d="M96 0zM96 702q0 360 183.5 544t517.5 184q336 0 519 -183.5t183 -544.5q0 -358 -183 -542.5t-519 -184.5q-334 0 -517.5 183.5t-183.5 543.5zM297 694q0 -289 129 -421t371 -132q243 0 372 132.5t129 420.5v8q-2 293 -131 427.5t-370 134.5q-240 0 -369 -134.5 t-131 -427.5v-8zM498 1772l2 6h196l176 -271h-153z" />
<glyph unicode="&#xd3;" horiz-adv-x="1593" d="M96 0zM96 702q0 360 183.5 544t517.5 184q336 0 519 -183.5t183 -544.5q0 -358 -183 -542.5t-519 -184.5q-334 0 -517.5 183.5t-183.5 543.5zM297 694q0 -289 129 -421t371 -132q243 0 372 132.5t129 420.5v8q-2 293 -131 427.5t-370 134.5q-240 0 -369 -134.5 t-131 -427.5v-8zM719 1507l176 271h196l2 -6l-221 -265h-153z" />
<glyph unicode="&#xd4;" horiz-adv-x="1593" d="M96 0zM96 702q0 360 183.5 544t517.5 184q336 0 519 -183.5t183 -544.5q0 -358 -183 -542.5t-519 -184.5q-334 0 -517.5 183.5t-183.5 543.5zM297 694q0 -289 129 -421t371 -132q243 0 372 132.5t129 420.5v8q-2 293 -131 427.5t-370 134.5q-240 0 -369 -134.5 t-131 -427.5v-8zM494 1501l217 277h172l215 -277h-184l-117 162l-119 -162h-184z" />
<glyph unicode="&#xd5;" horiz-adv-x="1593" d="M96 0zM96 702q0 360 183.5 544t517.5 184q336 0 519 -183.5t183 -544.5q0 -358 -183 -542.5t-519 -184.5q-334 0 -517.5 183.5t-183.5 543.5zM297 694q0 -289 129 -421t371 -132q243 0 372 132.5t129 420.5v8q-2 293 -131 427.5t-370 134.5q-240 0 -369 -134.5 t-131 -427.5v-8zM461 1565q0 92 43 152.5t131 60.5q39 0 75 -8.5t87 -24.5q88 -31 143 -31q51 0 58 64h133q0 -92 -43 -152.5t-131 -60.5q-39 0 -75 8t-87 24q-88 31 -143 31q-51 0 -58 -63h-133z" />
<glyph unicode="&#xd6;" horiz-adv-x="1593" d="M96 0zM96 702q0 360 183.5 544t517.5 184q336 0 519 -183.5t183 -544.5q0 -358 -183 -542.5t-519 -184.5q-334 0 -517.5 183.5t-183.5 543.5zM297 694q0 -289 129 -421t371 -132q243 0 372 132.5t129 420.5v8q-2 293 -131 427.5t-370 134.5q-240 0 -369 -134.5 t-131 -427.5v-8zM516 1583v195h179v-195h-179zM899 1583v195h179v-195h-179z" />
<glyph unicode="&#xd7;" horiz-adv-x="1196" d="M166 213l311 309l-311 312l121 120l309 -311l311 311l121 -120l-311 -312l311 -309l-121 -121l-311 311l-309 -311z" />
<glyph unicode="&#xd8;" horiz-adv-x="1593" d="M96 -100l193 250q-193 186 -193 552q0 360 183.5 544t517.5 184q240 0 401 -95l129 170h172l-192 -252q193 -186 192 -551q0 -358 -183 -542.5t-519 -184.5q-240 0 -400 91l-127 -166h-174zM297 702q0 -264 106 -401l687 893q-119 70 -293 70q-242 0 -371 -132.5 t-129 -420.5v-9zM508 209q113 -68 289 -68q243 0 372 132.5t129 420.5v8q0 258 -106 400z" />
<glyph unicode="&#xd9;" horiz-adv-x="1478" d="M162 0zM162 518v887h194v-897q0 -180 99.5 -273.5t281.5 -93.5q184 0 284.5 94.5t100.5 272.5v897h195v-887q0 -276 -149.5 -409.5t-430.5 -133.5q-276 0 -425.5 133.5t-149.5 409.5zM441 1772l2 6h196l176 -271h-153z" />
<glyph unicode="&#xda;" horiz-adv-x="1478" d="M162 0zM162 518v887h194v-897q0 -180 99.5 -273.5t281.5 -93.5q184 0 284.5 94.5t100.5 272.5v897h195v-887q0 -276 -149.5 -409.5t-430.5 -133.5q-276 0 -425.5 133.5t-149.5 409.5zM662 1507l176 271h196l2 -6l-221 -265h-153z" />
<glyph unicode="&#xdb;" horiz-adv-x="1478" d="M162 0zM162 518v887h194v-897q0 -180 99.5 -273.5t281.5 -93.5q184 0 284.5 94.5t100.5 272.5v897h195v-887q0 -276 -149.5 -409.5t-430.5 -133.5q-276 0 -425.5 133.5t-149.5 409.5zM436 1501l217 277h172l215 -277h-184l-117 162l-119 -162h-184z" />
<glyph unicode="&#xdc;" horiz-adv-x="1478" d="M162 0zM162 518v887h194v-897q0 -180 99.5 -273.5t281.5 -93.5q184 0 284.5 94.5t100.5 272.5v897h195v-887q0 -276 -149.5 -409.5t-430.5 -133.5q-276 0 -425.5 133.5t-149.5 409.5zM458 1583v195h179v-195h-179zM841 1583v195h179v-195h-179z" />
<glyph unicode="&#xdd;" horiz-adv-x="1366" d="M33 0zM33 1405h235l418 -643h10l416 643h223l-553 -823v-582h-194v582zM607 1507l176 271h196l2 -6l-221 -265h-153z" />
<glyph unicode="&#xde;" horiz-adv-x="1366" d="M162 0v1405h194v-244h490q211 0 323.5 -116.5t112.5 -311.5q0 -199 -117.5 -318.5t-318.5 -119.5h-490v-295h-194zM356 465h480q115 0 182 71.5t67 194.5q0 125 -63.5 192.5t-185.5 67.5h-480v-526z" />
<glyph unicode="&#xdf;" horiz-adv-x="1251" d="M131 0v1057q0 227 143.5 337.5t368.5 110.5q150 0 261.5 -47t172 -132t60.5 -191q0 -115 -65.5 -202t-178.5 -124v-8q133 -41 215 -141.5t82 -237.5q0 -117 -60.5 -214t-164 -152.5t-226.5 -55.5h-254v152h234q78 0 143.5 38.5t104.5 104t39 141.5q0 78 -41 142.5 t-112 101.5t-155 37h-213v149h193q74 0 137.5 34t100 93.5t36.5 128.5q0 104 -82 169t-229 65q-154 0 -241 -76t-87 -219v-1061h-182z" />
<glyph unicode="&#xe0;" d="M74 0zM74 279q0 207 184 283.5t533 76.5v119q0 94 -53.5 144t-192.5 50q-131 0 -187.5 -49t-56.5 -121v-24h-174q-2 12 -2 45q0 143 118.5 221t317.5 78q201 0 305.5 -84t104.5 -238v-583q0 -37 20.5 -54.5t50.5 -17.5h82v-117q-53 -25 -139 -24q-70 0 -117 42t-63 111 h-14q-55 -76 -150.5 -119t-210.5 -43q-139 0 -247.5 65.5t-108.5 238.5zM262 289q0 -88 54.5 -126t160.5 -38q80 0 151.5 32.5t117 97t45.5 157.5v77q-264 0 -396.5 -41.5t-132.5 -158.5zM271 1475l2 6h196l176 -271h-153z" />
<glyph unicode="&#xe1;" d="M74 0zM74 279q0 207 184 283.5t533 76.5v119q0 94 -53.5 144t-192.5 50q-131 0 -187.5 -49t-56.5 -121v-24h-174q-2 12 -2 45q0 143 118.5 221t317.5 78q201 0 305.5 -84t104.5 -238v-583q0 -37 20.5 -54.5t50.5 -17.5h82v-117q-53 -25 -139 -24q-70 0 -117 42t-63 111 h-14q-55 -76 -150.5 -119t-210.5 -43q-139 0 -247.5 65.5t-108.5 238.5zM262 289q0 -88 54.5 -126t160.5 -38q80 0 151.5 32.5t117 97t45.5 157.5v77q-264 0 -396.5 -41.5t-132.5 -158.5zM492 1210l176 271h196l2 -6l-221 -265h-153z" />
<glyph unicode="&#xe2;" d="M74 0zM74 279q0 207 184 283.5t533 76.5v119q0 94 -53.5 144t-192.5 50q-131 0 -187.5 -49t-56.5 -121v-24h-174q-2 12 -2 45q0 143 118.5 221t317.5 78q201 0 305.5 -84t104.5 -238v-583q0 -37 20.5 -54.5t50.5 -17.5h82v-117q-53 -25 -139 -24q-70 0 -117 42t-63 111 h-14q-55 -76 -150.5 -119t-210.5 -43q-139 0 -247.5 65.5t-108.5 238.5zM262 289q0 -88 54.5 -126t160.5 -38q80 0 151.5 32.5t117 97t45.5 157.5v77q-264 0 -396.5 -41.5t-132.5 -158.5zM266 1204l217 277h172l215 -277h-184l-117 162l-119 -162h-184z" />
<glyph unicode="&#xe3;" d="M74 0zM74 279q0 207 184 283.5t533 76.5v119q0 94 -53.5 144t-192.5 50q-131 0 -187.5 -49t-56.5 -121v-24h-174q-2 12 -2 45q0 143 118.5 221t317.5 78q201 0 305.5 -84t104.5 -238v-583q0 -37 20.5 -54.5t50.5 -17.5h82v-117q-53 -25 -139 -24q-70 0 -117 42t-63 111 h-14q-55 -76 -150.5 -119t-210.5 -43q-139 0 -247.5 65.5t-108.5 238.5zM233 1268q0 92 43 152.5t131 60.5q39 0 75 -8.5t87 -24.5q88 -31 143 -31q51 0 58 64h133q0 -92 -43 -152.5t-131 -60.5q-39 0 -75 8t-87 24q-88 31 -143 31q-51 0 -58 -63h-133zM262 289 q0 -88 54.5 -126t160.5 -38q80 0 151.5 32.5t117 97t45.5 157.5v77q-264 0 -396.5 -41.5t-132.5 -158.5z" />
<glyph unicode="&#xe4;" d="M74 0zM74 279q0 207 184 283.5t533 76.5v119q0 94 -53.5 144t-192.5 50q-131 0 -187.5 -49t-56.5 -121v-24h-174q-2 12 -2 45q0 143 118.5 221t317.5 78q201 0 305.5 -84t104.5 -238v-583q0 -37 20.5 -54.5t50.5 -17.5h82v-117q-53 -25 -139 -24q-70 0 -117 42t-63 111 h-14q-55 -76 -150.5 -119t-210.5 -43q-139 0 -247.5 65.5t-108.5 238.5zM262 289q0 -88 54.5 -126t160.5 -38q80 0 151.5 32.5t117 97t45.5 157.5v77q-264 0 -396.5 -41.5t-132.5 -158.5zM288 1286v195h179v-195h-179zM671 1286v195h179v-195h-179z" />
<glyph unicode="&#xe5;" d="M74 0zM74 279q0 207 184 283.5t533 76.5v119q0 94 -53.5 144t-192.5 50q-131 0 -187.5 -49t-56.5 -121v-24h-174q-2 12 -2 45q0 143 118.5 221t317.5 78q201 0 305.5 -84t104.5 -238v-583q0 -37 20.5 -54.5t50.5 -17.5h82v-117q-53 -25 -139 -24q-70 0 -117 42t-63 111 h-14q-55 -76 -150.5 -119t-210.5 -43q-139 0 -247.5 65.5t-108.5 238.5zM262 289q0 -88 54.5 -126t160.5 -38q80 0 151.5 32.5t117 97t45.5 157.5v77q-264 0 -396.5 -41.5t-132.5 -158.5zM372 1356q0 84 53.5 140t143.5 56t143.5 -56t53.5 -140t-53.5 -140.5t-143.5 -56.5 t-143.5 56.5t-53.5 140.5zM465 1356q0 -43 29.5 -74t74.5 -31t74.5 31t29.5 74t-29.5 73.5t-74.5 30.5t-74.5 -30.5t-29.5 -73.5z" />
<glyph unicode="&#xe6;" horiz-adv-x="1820" d="M74 279q0 207 186 283.5t535 76.5v119q0 94 -55.5 144t-194.5 50q-131 0 -187.5 -49t-56.5 -121v-24h-174q-2 12 -2 45q0 143 118.5 221t317.5 78q254 0 357 -152q123 152 370 152q225 0 339 -124t114 -398v-91h-764q10 -186 85 -275t226 -89q123 0 200 59.5t77 182.5 h176q0 -188 -127 -290t-326 -102q-289 0 -403 183q-74 -86 -188.5 -134.5t-245.5 -48.5q-148 0 -262.5 65.5t-114.5 238.5zM262 289q0 -88 54.5 -126t160.5 -38q131 0 224.5 69.5t93.5 217.5v77q-264 0 -398.5 -41.5t-134.5 -158.5zM981 639h571q0 313 -264 313 q-145 0 -219 -73.5t-88 -239.5z" />
<glyph unicode="&#xe7;" horiz-adv-x="1024" d="M72 539q0 289 115.5 426t359.5 137q221 0 323.5 -106.5t102.5 -317.5h-185q0 145 -52 209.5t-189 64.5q-150 0 -219.5 -97t-69.5 -316v-9q0 -217 67.5 -311t221.5 -94q135 0 193.5 68.5t58.5 205.5h174q0 -180 -99.5 -298.5t-306.5 -125.5l-8 -49q188 -12 189 -133 q0 -92 -74 -129t-168 -37q-106 0 -195 17v100h205q41 0 62.5 11.5t21.5 37.5q0 25 -17.5 37t-62.5 12h-104l24 140q-190 27 -279 163t-89 394z" />
<glyph unicode="&#xe8;" d="M80 0zM80 539q0 289 127 426t387 137q233 0 349 -124t116 -398v-91h-793q10 -186 89 -275t239 -89q129 0 209 59.5t80 182.5h176q0 -188 -130 -290t-335 -102q-260 0 -387 137.5t-127 426.5zM270 639h600q0 313 -276 313q-154 0 -230.5 -73.5t-93.5 -239.5zM271 1475l2 6 h196l176 -271h-153z" />
<glyph unicode="&#xe9;" d="M80 0zM80 539q0 289 127 426t387 137q233 0 349 -124t116 -398v-91h-793q10 -186 89 -275t239 -89q129 0 209 59.5t80 182.5h176q0 -188 -130 -290t-335 -102q-260 0 -387 137.5t-127 426.5zM270 639h600q0 313 -276 313q-154 0 -230.5 -73.5t-93.5 -239.5zM492 1210 l176 271h196l2 -6l-221 -265h-153z" />
<glyph unicode="&#xea;" d="M80 0zM80 539q0 289 127 426t387 137q233 0 349 -124t116 -398v-91h-793q10 -186 89 -275t239 -89q129 0 209 59.5t80 182.5h176q0 -188 -130 -290t-335 -102q-260 0 -387 137.5t-127 426.5zM266 1204l217 277h172l215 -277h-184l-117 162l-119 -162h-184zM270 639h600 q0 313 -276 313q-154 0 -230.5 -73.5t-93.5 -239.5z" />
<glyph unicode="&#xeb;" d="M80 0zM80 539q0 289 127 426t387 137q233 0 349 -124t116 -398v-91h-793q10 -186 89 -275t239 -89q129 0 209 59.5t80 182.5h176q0 -188 -130 -290t-335 -102q-260 0 -387 137.5t-127 426.5zM270 639h600q0 313 -276 313q-154 0 -230.5 -73.5t-93.5 -239.5zM288 1286v195 h179v-195h-179zM671 1286v195h179v-195h-179z" />
<glyph unicode="&#xec;" horiz-adv-x="569" d="M18 1475l2 6h197l176 -271h-153zM195 0v1077h180v-1077h-180z" />
<glyph unicode="&#xed;" horiz-adv-x="569" d="M174 1210l176 271h197l2 -6l-221 -265h-154zM195 0v1077h180v-1077h-180z" />
<glyph unicode="&#xee;" horiz-adv-x="569" d="M-16 1204l217 277h172l215 -277h-185l-116 162l-119 -162h-184zM195 0v1077h180v-1077h-180z" />
<glyph unicode="&#xef;" horiz-adv-x="569" d="M4 1286v195h178v-195h-178zM195 0v1077h180v-1077h-180zM387 1286v195h178v-195h-178z" />
<glyph unicode="&#xf0;" d="M72 539q0 285 127 424t342 139q72 0 157 -23l2 2q-59 92 -143 172l-311 -24v123l203 16l-91 68l-49 37l4 8h201q66 -49 117 -99l311 21v-123l-190 -12q151 -160 233 -338t82 -391q0 -287 -125 -425.5t-373 -138.5t-372.5 138.5t-124.5 425.5zM258 539q0 -219 74 -316.5 t237 -97.5q162 0 236 96t76 314q-2 221 -76 319t-236 98q-164 0 -237.5 -95t-73.5 -308v-10z" />
<glyph unicode="&#xf1;" d="M137 0v1077h137l21 -145h14q119 170 363 170q162 0 249 -87t87 -280v-735h-181v723q0 129 -57 179t-166 50q-78 0 -143.5 -37.5t-104.5 -109.5t-39 -168v-637h-180zM137 0zM233 1268q0 92 43 152.5t131 60.5q39 0 75 -8.5t87 -24.5q88 -31 143 -31q51 0 58 64h133 q0 -92 -43 -152.5t-131 -60.5q-39 0 -75 8t-87 24q-88 31 -143 31q-51 0 -58 -63h-133z" />
<glyph unicode="&#xf2;" d="M72 0zM72 539q0 287 125 425t372 138q248 0 373 -138.5t125 -424.5q0 -287 -125 -425.5t-373 -138.5q-247 0 -372 138.5t-125 425.5zM258 530q0 -215 74 -310t237 -95q164 0 238 95t74 310v17q0 215 -74 310t-238 95t-237.5 -95t-73.5 -310v-17zM271 1475l2 6h196 l176 -271h-153z" />
<glyph unicode="&#xf3;" d="M72 0zM72 539q0 287 125 425t372 138q248 0 373 -138.5t125 -424.5q0 -287 -125 -425.5t-373 -138.5q-247 0 -372 138.5t-125 425.5zM258 530q0 -215 74 -310t237 -95q164 0 238 95t74 310v17q0 215 -74 310t-238 95t-237.5 -95t-73.5 -310v-17zM492 1210l176 271h196 l2 -6l-221 -265h-153z" />
<glyph unicode="&#xf4;" d="M72 0zM72 539q0 287 125 425t372 138q248 0 373 -138.5t125 -424.5q0 -287 -125 -425.5t-373 -138.5q-247 0 -372 138.5t-125 425.5zM258 530q0 -215 74 -310t237 -95q164 0 238 95t74 310v17q0 215 -74 310t-238 95t-237.5 -95t-73.5 -310v-17zM266 1204l217 277h172 l215 -277h-184l-117 162l-119 -162h-184z" />
<glyph unicode="&#xf5;" d="M72 0zM72 539q0 287 125 425t372 138q248 0 373 -138.5t125 -424.5q0 -287 -125 -425.5t-373 -138.5q-247 0 -372 138.5t-125 425.5zM233 1268q0 92 43 152.5t131 60.5q39 0 75 -8.5t87 -24.5q88 -31 143 -31q51 0 58 64h133q0 -92 -43 -152.5t-131 -60.5q-39 0 -75 8 t-87 24q-88 31 -143 31q-51 0 -58 -63h-133zM258 530q0 -215 74 -310t237 -95q164 0 238 95t74 310v17q0 215 -74 310t-238 95t-237.5 -95t-73.5 -310v-17z" />
<glyph unicode="&#xf6;" d="M72 0zM72 539q0 287 125 425t372 138q248 0 373 -138.5t125 -424.5q0 -287 -125 -425.5t-373 -138.5q-247 0 -372 138.5t-125 425.5zM258 530q0 -215 74 -310t237 -95q164 0 238 95t74 310v17q0 215 -74 310t-238 95t-237.5 -95t-73.5 -310v-17zM288 1286v195h179v-195 h-179zM671 1286v195h179v-195h-179z" />
<glyph unicode="&#xf7;" horiz-adv-x="1124" d="M78 438v170h969v-170h-969zM459 0v205h205v-205h-205zM459 842v205h205v-205h-205z" />
<glyph unicode="&#xf8;" horiz-adv-x="1251" d="M92 -100l156 217q-121 139 -121 422q0 287 125 425t373 138q168 0 282 -66l101 142h151l-158 -222q121 -139 121 -417q0 -287 -125 -425.5t-372 -138.5q-168 0 -281 64l-98 -139h-154zM313 539q0 -176 45 -269l453 633q-70 49 -186 49q-164 0 -238 -95t-74 -308v-10z M440 172q68 -47 185 -47q163 0 237 95t74 308v11q0 172 -45 264z" />
<glyph unicode="&#xf9;" d="M131 0zM131 342v735h180v-723q0 -129 57.5 -179t166.5 -50q78 0 143 38t104 109.5t39 167.5v637h180v-1077h-137l-20 145h-15q-119 -170 -362 -170q-162 0 -249 87.5t-87 279.5zM269 1475l2 6h196l176 -271h-153z" />
<glyph unicode="&#xfa;" d="M131 0zM131 342v735h180v-723q0 -129 57.5 -179t166.5 -50q78 0 143 38t104 109.5t39 167.5v637h180v-1077h-137l-20 145h-15q-119 -170 -362 -170q-162 0 -249 87.5t-87 279.5zM490 1210l176 271h196l2 -6l-221 -265h-153z" />
<glyph unicode="&#xfb;" d="M131 0zM131 342v735h180v-723q0 -129 57.5 -179t166.5 -50q78 0 143 38t104 109.5t39 167.5v637h180v-1077h-137l-20 145h-15q-119 -170 -362 -170q-162 0 -249 87.5t-87 279.5zM264 1204l217 277h172l215 -277h-184l-117 162l-119 -162h-184z" />
<glyph unicode="&#xfc;" d="M131 0zM131 342v735h180v-723q0 -129 57.5 -179t166.5 -50q78 0 143 38t104 109.5t39 167.5v637h180v-1077h-137l-20 145h-15q-119 -170 -362 -170q-162 0 -249 87.5t-87 279.5zM286 1286v195h179v-195h-179zM669 1286v195h179v-195h-179z" />
<glyph unicode="&#xfd;" horiz-adv-x="1024" d="M27 0zM27 1077h190l201 -538q29 -76 66.5 -189.5t50.5 -148.5h10q10 35 37.5 131t62.5 207l172 538h180l-354 -1022q-72 -205 -163 -316.5t-240 -111.5q-91 1 -144 17v116h72q209 0 274 240zM435 1210l176 271h196l2 -6l-221 -265h-153z" />
<glyph unicode="&#xfe;" d="M137 -354v1835h180v-527h13q53 78 133 113t194 35q190 0 300 -140.5t110 -422.5q0 -283 -109.5 -423.5t-300.5 -140.5q-115 0 -194.5 35t-132.5 113h-13v-477h-180zM317 530q0 -201 67 -303t212 -102q104 0 165.5 39t90.5 127t29 239v9q0 154 -29 243.5t-91.5 129.5 t-164.5 40q-143 0 -211 -104.5t-68 -308.5v-9z" />
<glyph unicode="&#xff;" horiz-adv-x="1024" d="M27 0zM27 1077h190l201 -538q29 -76 66.5 -189.5t50.5 -148.5h10q10 35 37.5 131t62.5 207l172 538h180l-354 -1022q-72 -205 -163 -316.5t-240 -111.5q-91 1 -144 17v116h72q209 0 274 240zM231 1286v195h179v-195h-179zM614 1286v195h179v-195h-179z" />
<glyph unicode="&#x100;" horiz-adv-x="1366" d="M14 0l545 1405h248l545 -1405h-207l-141 375h-652l-137 -375h-201zM14 0zM371 1581v148h624v-148h-624zM416 545h524l-164 438l-94 254h-10l-92 -250z" />
<glyph unicode="&#x101;" d="M74 0zM74 279q0 207 184 283.5t533 76.5v119q0 94 -53.5 144t-192.5 50q-131 0 -187.5 -49t-56.5 -121v-24h-174q-2 12 -2 45q0 143 118.5 221t317.5 78q201 0 305.5 -84t104.5 -238v-583q0 -37 20.5 -54.5t50.5 -17.5h82v-117q-53 -25 -139 -24q-70 0 -117 42t-63 111 h-14q-55 -76 -150.5 -119t-210.5 -43q-139 0 -247.5 65.5t-108.5 238.5zM256 1284v148h624v-148h-624zM262 289q0 -88 54.5 -126t160.5 -38q80 0 151.5 32.5t117 97t45.5 157.5v77q-264 0 -396.5 -41.5t-132.5 -158.5z" />
<glyph unicode="&#x102;" horiz-adv-x="1366" d="M14 0l545 1405h248l545 -1405h-207l-141 375h-652l-137 -375h-201zM14 0zM385 1778h125q25 -109 172 -109q88 0 128 33t46 76h125q0 -98 -70.5 -169t-228.5 -71t-227.5 70.5t-69.5 169.5zM416 545h524l-164 438l-94 254h-10l-92 -250z" />
<glyph unicode="&#x103;" d="M74 0zM74 279q0 207 184 283.5t533 76.5v119q0 94 -53.5 144t-192.5 50q-131 0 -187.5 -49t-56.5 -121v-24h-174q-2 12 -2 45q0 143 118.5 221t317.5 78q201 0 305.5 -84t104.5 -238v-583q0 -37 20.5 -54.5t50.5 -17.5h82v-117q-53 -25 -139 -24q-70 0 -117 42t-63 111 h-14q-55 -76 -150.5 -119t-210.5 -43q-139 0 -247.5 65.5t-108.5 238.5zM262 289q0 -88 54.5 -126t160.5 -38q80 0 151.5 32.5t117 97t45.5 157.5v77q-264 0 -396.5 -41.5t-132.5 -158.5zM270 1481h125q25 -109 172 -109q88 0 128 33t46 76h125q0 -98 -70.5 -169t-228.5 -71 t-227.5 70.5t-69.5 169.5z" />
<glyph unicode="&#x104;" horiz-adv-x="1366" d="M14 0l545 1405h248l545 -1405h-74q-37 -31 -61.5 -68.5t-24.5 -78.5q0 -45 24.5 -69t69.5 -24h66v-104q-63 -29 -129 -29q-76 0 -132.5 44t-56.5 141q0 59 30 103t81 85l-141 375h-652l-137 -375h-201zM416 545h524l-164 438l-94 254h-10l-92 -250z" />
<glyph unicode="&#x105;" d="M74 279q0 207 184 283.5t533 76.5v119q0 94 -53.5 144t-192.5 50q-131 0 -187.5 -49t-56.5 -121v-24h-174q-2 12 -2 45q0 143 118.5 221t317.5 78q201 0 305.5 -84t104.5 -238v-583q0 -37 20.5 -54.5t50.5 -17.5h82v-117q-76 -12 -125 -39.5t-49 -103.5q0 -45 27 -75 t82 -30h65v-104q-76 -29 -141 -29q-78 0 -135 44t-57 141q0 115 102 194q-70 41 -88 131h-14q-55 -76 -150.5 -119t-210.5 -43q-139 0 -247.5 65.5t-108.5 238.5zM262 289q0 -88 54.5 -126t160.5 -38q80 0 151.5 32.5t117 97t45.5 157.5v77q-264 0 -396.5 -41.5 t-132.5 -158.5z" />
<glyph unicode="&#x106;" horiz-adv-x="1478" d="M96 0zM96 702q0 365 172 546.5t512 181.5q274 0 439 -136.5t165 -396.5h-198q0 180 -107.5 273.5t-298.5 93.5q-248 0 -364.5 -131.5t-118.5 -425.5v-5q0 -297 116.5 -429t366.5 -132q195 0 304.5 92.5t109.5 270.5h190q0 -262 -163.5 -395.5t-440.5 -133.5 q-340 0 -512 181.5t-172 545.5zM662 1507l176 271h196l2 -6l-221 -265h-153z" />
<glyph unicode="&#x107;" horiz-adv-x="1024" d="M72 0zM72 539q0 289 115.5 426t359.5 137q221 0 323.5 -106.5t102.5 -317.5h-185q0 145 -52 209.5t-189 64.5q-150 0 -219.5 -97t-69.5 -316v-9q0 -217 67.5 -311t221.5 -94q135 0 193.5 68.5t58.5 205.5h174q0 -184 -104.5 -304t-321.5 -120q-246 0 -360.5 136.5 t-114.5 427.5zM435 1210l176 271h196l2 -6l-221 -265h-153z" />
<glyph unicode="&#x108;" horiz-adv-x="1478" d="M96 0zM96 702q0 365 172 546.5t512 181.5q274 0 439 -136.5t165 -396.5h-198q0 180 -107.5 273.5t-298.5 93.5q-248 0 -364.5 -131.5t-118.5 -425.5v-5q0 -297 116.5 -429t366.5 -132q195 0 304.5 92.5t109.5 270.5h190q0 -262 -163.5 -395.5t-440.5 -133.5 q-340 0 -512 181.5t-172 545.5zM436 1501l217 277h172l215 -277h-184l-117 162l-119 -162h-184z" />
<glyph unicode="&#x109;" horiz-adv-x="1024" d="M72 0zM72 539q0 289 115.5 426t359.5 137q221 0 323.5 -106.5t102.5 -317.5h-185q0 145 -52 209.5t-189 64.5q-150 0 -219.5 -97t-69.5 -316v-9q0 -217 67.5 -311t221.5 -94q135 0 193.5 68.5t58.5 205.5h174q0 -184 -104.5 -304t-321.5 -120q-246 0 -360.5 136.5 t-114.5 427.5zM209 1204l217 277h172l215 -277h-184l-117 162l-119 -162h-184z" />
<glyph unicode="&#x10a;" horiz-adv-x="1478" d="M96 0zM96 702q0 365 172 546.5t512 181.5q274 0 439 -136.5t165 -396.5h-198q0 180 -107.5 273.5t-298.5 93.5q-248 0 -364.5 -131.5t-118.5 -425.5v-5q0 -297 116.5 -429t366.5 -132q195 0 304.5 92.5t109.5 270.5h190q0 -262 -163.5 -395.5t-440.5 -133.5 q-340 0 -512 181.5t-172 545.5zM649 1583v195h178v-195h-178z" />
<glyph unicode="&#x10b;" horiz-adv-x="1024" d="M72 0zM72 539q0 289 115.5 426t359.5 137q221 0 323.5 -106.5t102.5 -317.5h-185q0 145 -52 209.5t-189 64.5q-150 0 -219.5 -97t-69.5 -316v-9q0 -217 67.5 -311t221.5 -94q135 0 193.5 68.5t58.5 205.5h174q0 -184 -104.5 -304t-321.5 -120q-246 0 -360.5 136.5 t-114.5 427.5zM422 1286v195h178v-195h-178z" />
<glyph unicode="&#x10c;" horiz-adv-x="1478" d="M96 0zM96 702q0 365 172 546.5t512 181.5q274 0 439 -136.5t165 -396.5h-198q0 180 -107.5 273.5t-298.5 93.5q-248 0 -364.5 -131.5t-118.5 -425.5v-5q0 -297 116.5 -429t366.5 -132q195 0 304.5 92.5t109.5 270.5h190q0 -262 -163.5 -395.5t-440.5 -133.5 q-340 0 -512 181.5t-172 545.5zM436 1778h184l119 -162l117 162h184l-215 -277h-172z" />
<glyph unicode="&#x10d;" horiz-adv-x="1024" d="M72 0zM72 539q0 289 115.5 426t359.5 137q221 0 323.5 -106.5t102.5 -317.5h-185q0 145 -52 209.5t-189 64.5q-150 0 -219.5 -97t-69.5 -316v-9q0 -217 67.5 -311t221.5 -94q135 0 193.5 68.5t58.5 205.5h174q0 -184 -104.5 -304t-321.5 -120q-246 0 -360.5 136.5 t-114.5 427.5zM209 1481h184l119 -162l117 162h184l-215 -277h-172z" />
<glyph unicode="&#x10e;" horiz-adv-x="1478" d="M162 0v1405h520q338 0 520 -173t182 -530q0 -356 -182 -529t-520 -173h-520zM162 0zM356 170h326q244 0 372 123t130 405v4q0 285 -128 409t-374 124h-326v-1065zM436 1778h184l119 -162l117 162h184l-215 -277h-172z" />
<glyph unicode="&#x10f;" horiz-adv-x="1280" d="M72 539q0 283 109.5 423t299.5 140q115 0 195 -35t133 -113h12v527h180v-1481h-135l-22 145h-13q-53 -84 -140 -127t-193 -43q-205 0 -315.5 137.5t-110.5 426.5zM258 530q0 -152 28.5 -239.5t90 -126.5t166.5 -39q145 0 211.5 102.5t66.5 302.5v9q0 205 -67.5 309 t-210.5 104q-102 0 -165 -40t-91.5 -130t-28.5 -243v-9zM1116 1004l70 215h-70v186h174v-172l-84 -229h-90z" />
<glyph unicode="&#x110;" horiz-adv-x="1478" d="M10 0zM10 664v129h152v612h520q338 0 520 -173t182 -530q0 -356 -182 -529t-520 -173h-520v664h-152zM356 170h326q244 0 372 123t130 405v4q0 285 -128 409t-374 124h-326v-442h355v-129h-355v-494z" />
<glyph unicode="&#x111;" d="M72 539q0 283 109.5 423t299.5 140q115 0 195 -35t133 -113h12v267h-286v127h286v133h180v-133h136v-127h-136v-1221h-135l-22 145h-13q-53 -84 -140 -127t-193 -43q-205 0 -315.5 137.5t-110.5 426.5zM258 530q0 -152 28.5 -239.5t90 -126.5t166.5 -39 q145 0 211.5 102.5t66.5 302.5v9q0 205 -67.5 309t-210.5 104q-102 0 -165 -40t-91.5 -130t-28.5 -243v-9z" />
<glyph unicode="&#x112;" horiz-adv-x="1366" d="M162 0v1405h1081v-170h-887v-432h797v-170h-797v-463h899v-170h-1093zM162 0zM371 1581v148h624v-148h-624z" />
<glyph unicode="&#x113;" d="M80 0zM80 539q0 289 127 426t387 137q233 0 349 -124t116 -398v-91h-793q10 -186 89 -275t239 -89q129 0 209 59.5t80 182.5h176q0 -188 -130 -290t-335 -102q-260 0 -387 137.5t-127 426.5zM256 1284v148h624v-148h-624zM270 639h600q0 313 -276 313 q-154 0 -230.5 -73.5t-93.5 -239.5z" />
<glyph unicode="&#x114;" horiz-adv-x="1366" d="M162 0v1405h1081v-170h-887v-432h797v-170h-797v-463h899v-170h-1093zM162 0zM385 1778h125q25 -109 172 -109q88 0 128 33t46 76h125q0 -98 -70.5 -169t-228.5 -71t-227.5 70.5t-69.5 169.5z" />
<glyph unicode="&#x115;" d="M80 0zM80 539q0 289 127 426t387 137q233 0 349 -124t116 -398v-91h-793q10 -186 89 -275t239 -89q129 0 209 59.5t80 182.5h176q0 -188 -130 -290t-335 -102q-260 0 -387 137.5t-127 426.5zM270 639h600q0 313 -276 313q-154 0 -230.5 -73.5t-93.5 -239.5zM270 1481h125 q25 -109 172 -109q88 0 128 33t46 76h125q0 -98 -70.5 -169t-228.5 -71t-227.5 70.5t-69.5 169.5z" />
<glyph unicode="&#x116;" horiz-adv-x="1366" d="M162 0v1405h1081v-170h-887v-432h797v-170h-797v-463h899v-170h-1093zM162 0zM594 1583v195h178v-195h-178z" />
<glyph unicode="&#x117;" d="M80 0zM80 539q0 289 127 426t387 137q233 0 349 -124t116 -398v-91h-793q10 -186 89 -275t239 -89q129 0 209 59.5t80 182.5h176q0 -188 -130 -290t-335 -102q-260 0 -387 137.5t-127 426.5zM270 639h600q0 313 -276 313q-154 0 -230.5 -73.5t-93.5 -239.5zM479 1286v195 h178v-195h-178z" />
<glyph unicode="&#x118;" horiz-adv-x="1366" d="M162 0v1405h1081v-170h-887v-432h797v-170h-797v-463h899v-170q-84 0 -129 -44t-45 -91q0 -45 27 -75t82 -30h65v-104q-70 -29 -133 -29q-73 0 -136.5 43t-63.5 137q0 127 129 193h-889z" />
<glyph unicode="&#x119;" d="M80 539q0 289 127 426t387 137q233 0 349 -124t116 -398v-91h-793q10 -186 89 -275t239 -89q129 0 209 59.5t80 182.5h176q-2 -150 -80 -242q-37 -45 -65.5 -107.5t-28.5 -123.5q0 -57 26.5 -95.5t81.5 -38.5h66v-104q-74 -29 -135 -29q-86 0 -143.5 46t-57.5 153 q0 53 15.5 100t35.5 80q-82 -31 -180 -31q-260 0 -387 137.5t-127 426.5zM270 639h600q0 313 -276 313q-154 0 -230.5 -73.5t-93.5 -239.5z" />
<glyph unicode="&#x11a;" horiz-adv-x="1366" d="M162 0v1405h1081v-170h-887v-432h797v-170h-797v-463h899v-170h-1093zM162 0zM381 1778h184l119 -162l117 162h184l-215 -277h-172z" />
<glyph unicode="&#x11b;" d="M80 0zM80 539q0 289 127 426t387 137q233 0 349 -124t116 -398v-91h-793q10 -186 89 -275t239 -89q129 0 209 59.5t80 182.5h176q0 -188 -130 -290t-335 -102q-260 0 -387 137.5t-127 426.5zM266 1481h184l119 -162l117 162h184l-215 -277h-172zM270 639h600 q0 313 -276 313q-154 0 -230.5 -73.5t-93.5 -239.5z" />
<glyph unicode="&#x11c;" horiz-adv-x="1593" d="M96 0zM96 702q0 727 709 728q291 0 467 -129.5t176 -374.5h-199q0 170 -118.5 254t-325.5 84q-256 0 -381 -131.5t-125 -430.5v-4q2 -297 124 -427t370 -130q238 0 349 98.5t111 301.5v20h-495v170h690v-731h-152l-14 156q-160 -180 -489 -181q-344 0 -520.5 181.5 t-176.5 545.5zM494 1501l217 277h172l215 -277h-184l-117 162l-119 -162h-184z" />
<glyph unicode="&#x11d;" d="M37 -113q0 168 174 230q-49 27 -81 68.5t-32 97.5q0 80 56.5 120.5t124.5 57.5q-68 49 -107 120.5t-39 157.5q0 172 117 267.5t319 95.5q113 0 205 -37q133 63 156 186h172q0 -96 -56.5 -165.5t-152.5 -92.5q115 -102 115 -254q0 -172 -118 -267t-321 -95h-172 q-55 0 -84.5 -24.5t-29.5 -63.5t29.5 -63.5t84.5 -24.5h432q127 0 201 -77t74 -185q0 -78 -35 -150t-111.5 -117t-193.5 -45h-434q-119 0 -206 60.5t-87 199.5zM217 -92q0 -61 35 -98t94 -37h422q68 0 113 36.5t45 98.5q0 61 -36 97t-95 36h-449q-59 0 -94 -36t-35 -97z M266 1204l217 277h172l215 -277h-184l-117 162l-118 -162h-185zM313 739q0 -106 65.5 -164.5t192.5 -58.5t192.5 58.5t65.5 164.5t-65.5 165t-192.5 59t-192.5 -58.5t-65.5 -165.5z" />
<glyph unicode="&#x11e;" horiz-adv-x="1593" d="M96 0zM96 702q0 727 709 728q291 0 467 -129.5t176 -374.5h-199q0 170 -118.5 254t-325.5 84q-256 0 -381 -131.5t-125 -430.5v-4q2 -297 124 -427t370 -130q238 0 349 98.5t111 301.5v20h-495v170h690v-731h-152l-14 156q-160 -180 -489 -181q-344 0 -520.5 181.5 t-176.5 545.5zM498 1778h125q25 -109 172 -109q88 0 128 33t46 76h125q0 -98 -70.5 -169t-228.5 -71t-227.5 70.5t-69.5 169.5z" />
<glyph unicode="&#x11f;" d="M37 0zM37 -113q0 168 174 230q-49 27 -81 68.5t-32 97.5q0 80 56.5 120.5t124.5 57.5q-68 49 -107 120.5t-39 157.5q0 172 117 267.5t319 95.5q113 0 205 -37q133 63 156 186h172q0 -96 -56.5 -165.5t-152.5 -92.5q115 -102 115 -254q0 -172 -118 -267t-321 -95h-172 q-55 0 -84.5 -24.5t-29.5 -63.5t29.5 -63.5t84.5 -24.5h432q127 0 201 -77t74 -185q0 -78 -35 -150t-111.5 -117t-193.5 -45h-434q-119 0 -206 60.5t-87 199.5zM217 -92q0 -61 35 -98t94 -37h422q68 0 113 36.5t45 98.5q0 61 -36 97t-95 36h-449q-59 0 -94 -36t-35 -97z M270 1481h125q25 -109 172 -109q88 0 128 33t46 76h125q0 -98 -70.5 -169t-228.5 -71t-227.5 70.5t-69.5 169.5zM313 739q0 -106 65.5 -164.5t192.5 -58.5t192.5 58.5t65.5 164.5t-65.5 165t-192.5 59t-192.5 -58.5t-65.5 -165.5z" />
<glyph unicode="&#x120;" horiz-adv-x="1593" d="M96 0zM96 702q0 727 709 728q291 0 467 -129.5t176 -374.5h-199q0 170 -118.5 254t-325.5 84q-256 0 -381 -131.5t-125 -430.5v-4q2 -297 124 -427t370 -130q238 0 349 98.5t111 301.5v20h-495v170h690v-731h-152l-14 156q-160 -180 -489 -181q-344 0 -520.5 181.5 t-176.5 545.5zM707 1583v195h178v-195h-178z" />
<glyph unicode="&#x121;" d="M37 0zM37 -113q0 168 174 230q-49 27 -81 68.5t-32 97.5q0 80 56.5 120.5t124.5 57.5q-68 49 -107 120.5t-39 157.5q0 172 117 267.5t319 95.5q113 0 205 -37q133 63 156 186h172q0 -96 -56.5 -165.5t-152.5 -92.5q115 -102 115 -254q0 -172 -118 -267t-321 -95h-172 q-55 0 -84.5 -24.5t-29.5 -63.5t29.5 -63.5t84.5 -24.5h432q127 0 201 -77t74 -185q0 -78 -35 -150t-111.5 -117t-193.5 -45h-434q-119 0 -206 60.5t-87 199.5zM217 -92q0 -61 35 -98t94 -37h422q68 0 113 36.5t45 98.5q0 61 -36 97t-95 36h-449q-59 0 -94 -36t-35 -97z M313 739q0 -106 65.5 -164.5t192.5 -58.5t192.5 58.5t65.5 164.5t-65.5 165t-192.5 59t-192.5 -58.5t-65.5 -165.5zM479 1286v195h178v-195h-178z" />
<glyph unicode="&#x122;" horiz-adv-x="1593" d="M96 0zM96 702q0 727 709 728q291 0 467 -129.5t176 -374.5h-199q0 170 -118.5 254t-325.5 84q-256 0 -381 -131.5t-125 -430.5v-4q2 -297 124 -427t370 -130q238 0 349 98.5t111 301.5v20h-495v170h690v-731h-152l-14 156q-160 -180 -489 -181q-344 0 -520.5 181.5 t-176.5 545.5zM707 -119h180v-172l-88 -180h-92l75 166h-75v186z" />
<glyph unicode="&#x123;" d="M37 -113q0 168 174 230q-49 27 -81 68.5t-32 97.5q0 80 56.5 120.5t124.5 57.5q-68 49 -107 120.5t-39 157.5q0 172 117 267.5t319 95.5q113 0 205 -37q133 63 156 186h172q0 -96 -56.5 -165.5t-152.5 -92.5q115 -102 115 -254q0 -172 -118 -267t-321 -95h-172 q-55 0 -84.5 -24.5t-29.5 -63.5t29.5 -63.5t84.5 -24.5h432q127 0 201 -77t74 -185q0 -78 -35 -150t-111.5 -117t-193.5 -45h-434q-119 0 -206 60.5t-87 199.5zM217 -92q0 -61 35 -98t94 -37h422q68 0 113 36.5t45 98.5q0 61 -36 97t-95 36h-449q-59 0 -94 -36t-35 -97z M313 739q0 -106 65.5 -164.5t192.5 -58.5t192.5 58.5t65.5 164.5t-65.5 165t-192.5 59t-192.5 -58.5t-65.5 -165.5zM485 1245v172l88 180h93l-76 -165h76v-187h-181z" />
<glyph unicode="&#x124;" horiz-adv-x="1478" d="M162 0v1405h194v-602h766v602h195v-1405h-195v633h-766v-633h-194zM162 0zM436 1501l217 277h172l215 -277h-184l-117 162l-119 -162h-184z" />
<glyph unicode="&#x125;" d="M-76 1532l217 277h172l215 -277h-184l-117 162l-119 -162h-184zM0 0zM137 0v1481h180v-525h15q113 145 340 146q336 0 336 -367v-735h-181v723q0 129 -57 179t-166 50q-78 0 -143.5 -37.5t-104.5 -109.5t-39 -168v-637h-180z" />
<glyph unicode="&#x126;" horiz-adv-x="1478" d="M18 1077v148h144v180h194v-180h766v180h195v-180h143v-148h-143v-1077h-195v633h-766v-633h-194v1077h-144zM356 803h766v274h-766v-274z" />
<glyph unicode="&#x127;" d="M2 1221v127h135v133h180v-133h287v-127h-287v-265h15q113 145 340 146q336 0 336 -367v-735h-181v723q0 129 -57 179t-166 50q-78 0 -143.5 -37.5t-104.5 -109.5t-39 -168v-637h-180v1221h-135z" />
<glyph unicode="&#x128;" horiz-adv-x="569" d="M-51 1565q0 92 43 152.5t131 60.5q39 0 75 -8.5t87 -24.5q88 -31 143 -31q51 0 58 64h133q0 -92 -43 -152.5t-131 -60.5q-39 0 -75 8t-87 24q-88 31 -143 31q-51 0 -58 -63h-133zM0 0zM188 0v1405h195v-1405h-195z" />
<glyph unicode="&#x129;" horiz-adv-x="569" d="M-49 1268q0 92 43 152.5t131 60.5q39 0 75 -8.5t87 -24.5q88 -31 143 -31q51 0 57 64h134q0 -92 -43 -152.5t-132 -60.5q-39 0 -74.5 8t-86.5 24q-88 31 -144 31q-51 0 -57 -63h-133zM195 0v1077h180v-1077h-180z" />
<glyph unicode="&#x12a;" horiz-adv-x="569" d="M-28 1581v148h624v-148h-624zM0 0zM188 0v1405h195v-1405h-195z" />
<glyph unicode="&#x12b;" horiz-adv-x="569" d="M25 1309v147h520v-147h-520zM195 0v1077h180v-1077h-180z" />
<glyph unicode="&#x12c;" horiz-adv-x="569" d="M-14 1778h125q25 -109 172 -109q88 0 128 33t46 76h125q0 -98 -70.5 -169t-228.5 -71t-227.5 70.5t-69.5 169.5zM0 0zM188 0v1405h195v-1405h-195z" />
<glyph unicode="&#x12d;" horiz-adv-x="569" d="M-12 1481h125q25 -109 172 -109q88 0 128 33t46 76h125q0 -98 -71 -169t-228 -71q-158 0 -227.5 70.5t-69.5 169.5zM195 0v1077h180v-1077h-180z" />
<glyph unicode="&#x12e;" horiz-adv-x="569" d="M84 -205q0 66 27.5 113t78.5 92h-2v1405h195v-1405h-61q-31 -29 -54.5 -66.5t-23.5 -76.5q0 -47 26.5 -80t81.5 -33h66v-104q-68 -29 -125 -29q-86 0 -147.5 44t-61.5 140z" />
<glyph unicode="&#x12f;" horiz-adv-x="569" d="M76 -205q0 68 29.5 116t84.5 97h5v1069h180v-1077h-62q-31 -29 -54 -66.5t-23 -76.5q0 -47 26.5 -80t81.5 -33h66v-104q-68 -29 -125 -29q-86 0 -147.5 44t-61.5 140zM195 1286v195h178v-195h-178z" />
<glyph unicode="&#x130;" horiz-adv-x="569" d="M188 0v1405h195v-1405h-195zM188 0zM195 1583v195h178v-195h-178z" />
<glyph unicode="&#x131;" horiz-adv-x="569" d="M195 0v1077h180v-1077h-180z" />
<glyph unicode="&#x132;" horiz-adv-x="1593" d="M188 0v1405h195v-1405h-195zM188 0zM628 375v51h195v-61q0 -111 53 -167.5t154 -56.5q102 0 155.5 64.5t53.5 191.5v1008h194v-997q0 -215 -104.5 -324t-298.5 -109q-193 0 -297.5 102.5t-104.5 297.5z" />
<glyph unicode="&#x133;" horiz-adv-x="909" d="M137 0v1077h180v-1077h-180zM137 0zM137 1280v201h180v-201h-180zM406 -231h90q96 0 96 98v1210h180v-1202q0 -106 -52 -177t-173 -71q-71 0 -141 25v117zM592 1280v201h180v-201h-180z" />
<glyph unicode="&#x134;" horiz-adv-x="1024" d="M59 0zM59 375v51h195v-61q0 -111 53 -167.5t154 -56.5q102 0 155.5 64.5t53.5 191.5v1008h194v-997q0 -215 -104.5 -324t-298.5 -109q-193 0 -297.5 102.5t-104.5 297.5zM465 1501l217 277h172l215 -277h-184l-117 162l-119 -162h-184z" />
<glyph unicode="&#x135;" horiz-adv-x="454" d="M-74 1204l217 277h172l215 -277h-184l-117 162l-118 -162h-185zM-49 -231h90q96 0 96 98v1210h180v-1202q0 -106 -52 -177t-173 -71q-71 0 -141 25v117z" />
<glyph unicode="&#x136;" horiz-adv-x="1366" d="M162 0v1405h194v-774l744 774h241l-534 -561l553 -844h-232l-456 705l-316 -295v-410h-194zM162 0zM594 -119h180v-172l-88 -180h-92l75 166h-75v186z" />
<glyph unicode="&#x137;" horiz-adv-x="1024" d="M137 0v1481h180v-932l457 528h223l-370 -424l391 -653h-209l-295 524l-197 -186v-338h-180zM137 0zM474 -119h180v-172l-88 -180h-92l75 166h-75v186z" />
<glyph unicode="&#x138;" horiz-adv-x="1024" d="M137 0v1077h180v-528l457 528h223l-370 -424l391 -653h-209l-295 524l-197 -186v-338h-180z" />
<glyph unicode="&#x139;" d="M162 0v1405h194v-1235h721v-170h-915zM162 0zM183 1507l176 271h196l2 -6l-221 -265h-153z" />
<glyph unicode="&#x13a;" horiz-adv-x="454" d="M137 0v1481h180v-1481h-180zM137 0zM150 1538l176 271h196l2 -6l-221 -265h-153z" />
<glyph unicode="&#x13b;" d="M162 0v1405h194v-1235h721v-170h-915zM162 0zM531 -119h180v-172l-88 -180h-92l75 166h-75v186z" />
<glyph unicode="&#x13c;" horiz-adv-x="454" d="M137 0v1481h180v-1481h-180zM137 0zM138 -119h180v-172l-88 -180h-92l75 166h-75v186z" />
<glyph unicode="&#x13d;" d="M162 0v1405h194v-1235h721v-170h-915zM655 1004l70 215h-70v186h174v-172l-84 -229h-90z" />
<glyph unicode="&#x13e;" horiz-adv-x="598" d="M137 0v1481h180v-1481h-180zM424 1004l70 215h-70v186h174v-172l-84 -229h-90z" />
<glyph unicode="&#x13f;" d="M162 0v1405h194v-1235h721v-170h-915zM162 0zM719 857v221h204v-221h-204z" />
<glyph unicode="&#x140;" horiz-adv-x="579" d="M137 0v1481h180v-1481h-180zM137 0zM422 621v221h204v-221h-204z" />
<glyph unicode="&#x141;" d="M10 442v166l152 101v696h194v-567l342 227v-168l-342 -227v-500h721v-170h-915v543z" />
<glyph unicode="&#x142;" horiz-adv-x="454" d="M0 465v158l137 114v744h180v-594l136 112v-157l-136 -113v-729h-180v580z" />
<glyph unicode="&#x143;" horiz-adv-x="1478" d="M162 0v1405h174l741 -979l49 -66l9 2v97v946h182v-1405h-166l-745 991l-54 72l-8 -2v-96v-965h-182zM162 0zM662 1507l176 271h196l2 -6l-221 -265h-153z" />
<glyph unicode="&#x144;" d="M137 0v1077h137l21 -145h14q119 170 363 170q162 0 249 -87t87 -280v-735h-181v723q0 129 -57 179t-166 50q-78 0 -143.5 -37.5t-104.5 -109.5t-39 -168v-637h-180zM137 0zM492 1210l176 271h196l2 -6l-221 -265h-153z" />
<glyph unicode="&#x145;" horiz-adv-x="1478" d="M162 0v1405h174l741 -979l49 -66l9 2v97v946h182v-1405h-166l-745 991l-54 72l-8 -2v-96v-965h-182zM162 0zM650 -119h180v-172l-88 -180h-92l75 166h-75v186z" />
<glyph unicode="&#x146;" d="M137 0v1077h137l21 -145h14q119 170 363 170q162 0 249 -87t87 -280v-735h-181v723q0 129 -57 179t-166 50q-78 0 -143.5 -37.5t-104.5 -109.5t-39 -168v-637h-180zM137 0zM480 -119h180v-172l-88 -180h-92l75 166h-75v186z" />
<glyph unicode="&#x147;" horiz-adv-x="1478" d="M162 0v1405h174l741 -979l49 -66l9 2v97v946h182v-1405h-166l-745 991l-54 72l-8 -2v-96v-965h-182zM162 0zM436 1778h184l119 -162l117 162h184l-215 -277h-172z" />
<glyph unicode="&#x148;" d="M137 0v1077h137l21 -145h14q119 170 363 170q162 0 249 -87t87 -280v-735h-181v723q0 129 -57 179t-166 50q-78 0 -143.5 -37.5t-104.5 -109.5t-39 -168v-637h-180zM137 0zM266 1481h184l119 -162l117 162h184l-215 -277h-172z" />
<glyph unicode="&#x149;" horiz-adv-x="1236" d="M0 1004l70 215h-70v186h174v-172l-84 -229h-90zM236 0v1077h137l20 -145h15q119 170 362 170q162 0 249 -87t87 -280v-735h-180v723q0 129 -57.5 179t-166.5 50q-78 0 -143 -37.5t-104 -109.5t-39 -168v-637h-180z" />
<glyph unicode="&#x14a;" horiz-adv-x="1478" d="M162 0v1405h174l741 -979l49 -66l9 2v97v946h182v-1530q0 -106 -52.5 -177t-172.5 -71q-72 0 -142 25v117h88q96 0 97 98v133l-725 993l-29 35l-29 33l-8 -2q4 -66 4 -96l-4 -963h-182z" />
<glyph unicode="&#x14b;" d="M137 0v1077h137l21 -145h14q119 170 363 170q162 0 249 -87t87 -280v-860q0 -106 -52.5 -177t-173.5 -71q-71 0 -141 25v117h90q96 0 96 98v856q0 129 -57 179t-166 50q-78 0 -143.5 -37.5t-104.5 -109.5t-39 -168v-637h-180z" />
<glyph unicode="&#x14c;" horiz-adv-x="1593" d="M96 0zM96 702q0 360 183.5 544t517.5 184q336 0 519 -183.5t183 -544.5q0 -358 -183 -542.5t-519 -184.5q-334 0 -517.5 183.5t-183.5 543.5zM297 694q0 -289 129 -421t371 -132q243 0 372 132.5t129 420.5v8q-2 293 -131 427.5t-370 134.5q-240 0 -369 -134.5 t-131 -427.5v-8zM484 1581v148h624v-148h-624z" />
<glyph unicode="&#x14d;" d="M72 0zM72 539q0 287 125 425t372 138q248 0 373 -138.5t125 -424.5q0 -287 -125 -425.5t-373 -138.5q-247 0 -372 138.5t-125 425.5zM256 1284v148h624v-148h-624zM258 530q0 -215 74 -310t237 -95q164 0 238 95t74 310v17q0 215 -74 310t-238 95t-237.5 -95t-73.5 -310 v-17z" />
<glyph unicode="&#x14e;" horiz-adv-x="1593" d="M96 0zM96 702q0 360 183.5 544t517.5 184q336 0 519 -183.5t183 -544.5q0 -358 -183 -542.5t-519 -184.5q-334 0 -517.5 183.5t-183.5 543.5zM297 694q0 -289 129 -421t371 -132q243 0 372 132.5t129 420.5v8q-2 293 -131 427.5t-370 134.5q-240 0 -369 -134.5 t-131 -427.5v-8zM498 1778h125q25 -109 172 -109q88 0 128 33t46 76h125q0 -98 -70.5 -169t-228.5 -71t-227.5 70.5t-69.5 169.5z" />
<glyph unicode="&#x14f;" d="M72 0zM72 539q0 287 125 425t372 138q248 0 373 -138.5t125 -424.5q0 -287 -125 -425.5t-373 -138.5q-247 0 -372 138.5t-125 425.5zM258 530q0 -215 74 -310t237 -95q164 0 238 95t74 310v17q0 215 -74 310t-238 95t-237.5 -95t-73.5 -310v-17zM270 1481h125 q25 -109 172 -109q88 0 128 33t46 76h125q0 -98 -70.5 -169t-228.5 -71t-227.5 70.5t-69.5 169.5z" />
<glyph unicode="&#x150;" horiz-adv-x="1593" d="M96 0zM96 702q0 360 183.5 544t517.5 184q336 0 519 -183.5t183 -544.5q0 -358 -183 -542.5t-519 -184.5q-334 0 -517.5 183.5t-183.5 543.5zM297 694q0 -289 129 -421t371 -132q243 0 372 132.5t129 420.5v8q-2 293 -131 427.5t-370 134.5q-240 0 -369 -134.5 t-131 -427.5v-8zM575 1507l127 271h199l2 -6l-172 -265h-156zM860 1507l127 271h199l2 -6l-172 -265h-156z" />
<glyph unicode="&#x151;" d="M72 0zM72 539q0 287 125 425t372 138q248 0 373 -138.5t125 -424.5q0 -287 -125 -425.5t-373 -138.5q-247 0 -372 138.5t-125 425.5zM258 530q0 -215 74 -310t237 -95q164 0 238 95t74 310v17q0 215 -74 310t-238 95t-237.5 -95t-73.5 -310v-17zM348 1210l127 271h199 l2 -6l-172 -265h-156zM633 1210l127 271h199l2 -6l-172 -265h-156z" />
<glyph unicode="&#x152;" horiz-adv-x="2048" d="M96 702q0 360 146.5 544t414.5 184q242 0 381 -181v156h885v-164h-690v-440h577v-164h-577v-473h704v-164h-899v156q-137 -180 -381 -181q-268 0 -414.5 183.5t-146.5 543.5zM297 702q0 -301 96 -431t291 -130q172 0 263 132.5t91 428.5q0 297 -91 429.5t-263 132.5 q-195 0 -291 -130t-96 -432z" />
<glyph unicode="&#x153;" horiz-adv-x="1933" d="M72 539q0 287 125 425t372 138q281 0 404 -197q125 197 422 197q233 0 349 -124t116 -398v-91h-793q10 -186 89 -275t239 -89q129 0 208.5 59.5t79.5 182.5h177q0 -188 -130.5 -290t-334.5 -102q-297 0 -422 195q-121 -195 -404 -195q-247 0 -372 138.5t-125 425.5z M258 539q0 -219 74 -316.5t237 -97.5q162 0 236 96t76 314q-2 221 -76 319t-236 98q-164 0 -237.5 -95t-73.5 -308v-10zM1071 639h600q0 313 -276 313q-154 0 -231 -73.5t-93 -239.5z" />
<glyph unicode="&#x154;" horiz-adv-x="1478" d="M162 0v1405h731q211 0 323.5 -108.5t112.5 -290.5q0 -143 -68.5 -248t-189.5 -150l324 -608h-217l-306 580h-516v-580h-194zM162 0zM356 750h527q115 0 182.5 67.5t67.5 186.5q0 111 -63.5 171t-186.5 60h-527v-485zM662 1507l176 271h196l2 -6l-221 -265h-153z" />
<glyph unicode="&#x155;" horiz-adv-x="681" d="M137 0v1077h137l21 -162h12q31 80 92.5 133.5t161.5 53.5q35 0 62.5 -7.5t33.5 -9.5v-174h-75q-115 0 -190 -66.5t-75 -207.5v-637h-180zM137 0zM265 1210l176 271h196l2 -6l-221 -265h-153z" />
<glyph unicode="&#x156;" horiz-adv-x="1478" d="M162 0v1405h731q211 0 323.5 -108.5t112.5 -290.5q0 -143 -68.5 -248t-189.5 -150l324 -608h-217l-306 580h-516v-580h-194zM162 0zM356 750h527q115 0 182.5 67.5t67.5 186.5q0 111 -63.5 171t-186.5 60h-527v-485zM650 -119h180v-172l-88 -180h-92l75 166h-75v186z" />
<glyph unicode="&#x157;" horiz-adv-x="681" d="M137 0v1077h137l21 -162h12q31 80 92.5 133.5t161.5 53.5q35 0 62.5 -7.5t33.5 -9.5v-174h-75q-115 0 -190 -66.5t-75 -207.5v-637h-180zM137 0zM138 -119h180v-172l-88 -180h-92l75 166h-75v186z" />
<glyph unicode="&#x158;" horiz-adv-x="1478" d="M162 0v1405h731q211 0 323.5 -108.5t112.5 -290.5q0 -143 -68.5 -248t-189.5 -150l324 -608h-217l-306 580h-516v-580h-194zM162 0zM356 750h527q115 0 182.5 67.5t67.5 186.5q0 111 -63.5 171t-186.5 60h-527v-485zM436 1778h184l119 -162l117 162h184l-215 -277h-172z " />
<glyph unicode="&#x159;" horiz-adv-x="681" d="M39 0zM39 1481h184l119 -162l117 162h184l-215 -277h-172zM137 0v1077h137l21 -162h12q31 80 92.5 133.5t161.5 53.5q35 0 62.5 -7.5t33.5 -9.5v-174h-75q-115 0 -190 -66.5t-75 -207.5v-637h-180z" />
<glyph unicode="&#x15a;" horiz-adv-x="1366" d="M100 0zM100 397l2 41h193q0 -2 -2 -14t-2 -29q0 -125 103.5 -189.5t275.5 -64.5q193 0 295 60.5t102 173.5q0 76 -53 126t-134 78.5t-218 63.5q-170 43 -274.5 83t-178.5 119t-74 208q0 184 153.5 280.5t393.5 96.5t389.5 -97.5t149.5 -298.5v-24h-191v30q0 104 -95 164 t-247 60q-162 0 -259 -49.5t-97 -147.5q0 -72 52 -117t129 -72.5t214 -62.5q170 -43 277.5 -84t182.5 -120t75 -205q0 -225 -157 -328t-425 -103q-256 0 -418 102.5t-162 319.5zM607 1507l176 271h196l2 -6l-221 -265h-153z" />
<glyph unicode="&#x15b;" horiz-adv-x="1024" d="M63 0zM63 291q0 25 1.5 34t1.5 11h178v-21q0 -96 75.5 -144t196.5 -48q104 0 173 42t69 118q0 59 -39 97t-96.5 59.5t-155.5 45.5q-119 31 -193.5 62t-127 91t-52.5 157q0 141 116 224t312 83q123 0 213 -40t136.5 -106.5t46.5 -148.5l-3 -39h-176v18q0 72 -56 119 t-181 47q-123 0 -172 -44t-49 -101q0 -47 34.5 -78t86 -49t143.5 -41q127 -33 206.5 -64.5t136 -96t56.5 -171.5q0 -166 -119.5 -249t-318.5 -83q-150 0 -249 44t-146.5 116t-47.5 156zM435 1210l176 271h196l2 -6l-221 -265h-153z" />
<glyph unicode="&#x15c;" horiz-adv-x="1366" d="M100 0zM100 397l2 41h193q0 -2 -2 -14t-2 -29q0 -125 103.5 -189.5t275.5 -64.5q193 0 295 60.5t102 173.5q0 76 -53 126t-134 78.5t-218 63.5q-170 43 -274.5 83t-178.5 119t-74 208q0 184 153.5 280.5t393.5 96.5t389.5 -97.5t149.5 -298.5v-24h-191v30q0 104 -95 164 t-247 60q-162 0 -259 -49.5t-97 -147.5q0 -72 52 -117t129 -72.5t214 -62.5q170 -43 277.5 -84t182.5 -120t75 -205q0 -225 -157 -328t-425 -103q-256 0 -418 102.5t-162 319.5zM381 1501l217 277h172l215 -277h-184l-117 162l-119 -162h-184z" />
<glyph unicode="&#x15d;" horiz-adv-x="1024" d="M63 0zM63 291q0 25 1.5 34t1.5 11h178v-21q0 -96 75.5 -144t196.5 -48q104 0 173 42t69 118q0 59 -39 97t-96.5 59.5t-155.5 45.5q-119 31 -193.5 62t-127 91t-52.5 157q0 141 116 224t312 83q123 0 213 -40t136.5 -106.5t46.5 -148.5l-3 -39h-176v18q0 72 -56 119 t-181 47q-123 0 -172 -44t-49 -101q0 -47 34.5 -78t86 -49t143.5 -41q127 -33 206.5 -64.5t136 -96t56.5 -171.5q0 -166 -119.5 -249t-318.5 -83q-150 0 -249 44t-146.5 116t-47.5 156zM209 1204l217 277h172l215 -277h-184l-117 162l-119 -162h-184z" />
<glyph unicode="&#x15e;" horiz-adv-x="1366" d="M100 397l2 41h193q0 -2 -2 -14t-2 -29q0 -125 103.5 -189.5t275.5 -64.5q193 0 295 60.5t102 173.5q0 76 -53 126t-134 78.5t-218 63.5q-170 43 -274.5 83t-178.5 119t-74 208q0 184 153.5 280.5t393.5 96.5t389.5 -97.5t149.5 -298.5v-24h-191v30q0 104 -95 164t-247 60 q-162 0 -259 -49.5t-97 -147.5q0 -72 52 -117t129 -72.5t214 -62.5q170 -43 277.5 -84t182.5 -120t75 -205q0 -209 -136.5 -312.5t-373.5 -116.5l-9 -51q188 -12 189 -133q0 -92 -74 -129t-168 -37q-106 1 -194 17v100h204q41 0 62.5 11.5t21.5 37.5q0 25 -17 37t-62 12 h-105l25 135q-236 10 -380.5 113t-144.5 307z" />
<glyph unicode="&#x15f;" horiz-adv-x="1024" d="M63 291q0 25 1.5 34t1.5 11h178v-21q0 -96 75.5 -144t196.5 -48q104 0 173 42t69 118q0 59 -39 97t-96.5 59.5t-155.5 45.5q-119 31 -193.5 62t-127 91t-52.5 157q0 141 116 224t312 83q123 0 213 -40t136.5 -106.5t46.5 -148.5l-3 -39h-176v18q0 72 -56 119t-181 47 q-123 0 -172 -44t-49 -101q0 -47 34.5 -78t86 -49t143.5 -41q127 -33 206.5 -64.5t136 -96t56.5 -171.5q0 -153 -101.5 -235t-275.5 -95l-8 -51q188 -12 189 -133q0 -92 -74 -129t-168 -37q-106 0 -195 17v100h205q41 0 62.5 11.5t21.5 37.5q0 25 -17.5 37t-62.5 12h-104 l24 135q-188 14 -282.5 103.5t-94.5 210.5z" />
<glyph unicode="&#x160;" horiz-adv-x="1366" d="M100 0zM100 397l2 41h193q0 -2 -2 -14t-2 -29q0 -125 103.5 -189.5t275.5 -64.5q193 0 295 60.5t102 173.5q0 76 -53 126t-134 78.5t-218 63.5q-170 43 -274.5 83t-178.5 119t-74 208q0 184 153.5 280.5t393.5 96.5t389.5 -97.5t149.5 -298.5v-24h-191v30q0 104 -95 164 t-247 60q-162 0 -259 -49.5t-97 -147.5q0 -72 52 -117t129 -72.5t214 -62.5q170 -43 277.5 -84t182.5 -120t75 -205q0 -225 -157 -328t-425 -103q-256 0 -418 102.5t-162 319.5zM381 1778h184l119 -162l117 162h184l-215 -277h-172z" />
<glyph unicode="&#x161;" horiz-adv-x="1024" d="M63 0zM63 291q0 25 1.5 34t1.5 11h178v-21q0 -96 75.5 -144t196.5 -48q104 0 173 42t69 118q0 59 -39 97t-96.5 59.5t-155.5 45.5q-119 31 -193.5 62t-127 91t-52.5 157q0 141 116 224t312 83q123 0 213 -40t136.5 -106.5t46.5 -148.5l-3 -39h-176v18q0 72 -56 119 t-181 47q-123 0 -172 -44t-49 -101q0 -47 34.5 -78t86 -49t143.5 -41q127 -33 206.5 -64.5t136 -96t56.5 -171.5q0 -166 -119.5 -249t-318.5 -83q-150 0 -249 44t-146.5 116t-47.5 156zM209 1481h184l119 -162l117 162h184l-215 -277h-172z" />
<glyph unicode="&#x162;" horiz-adv-x="1251" d="M45 1235v170h1161v-170h-483v-1235h-37l-12 -74q188 -12 188 -133q0 -92 -73.5 -129t-167.5 -37q-106 0 -195 17v100h205q41 0 62.5 11.5t21.5 37.5q0 25 -17.5 37t-62.5 12h-105l29 158h-31v1235h-483z" />
<glyph unicode="&#x163;" horiz-adv-x="569" d="M37 928v149h133l39 299h139v-299h182v-149h-182v-707q0 -96 90 -96h92v-119q-27 -12 -69.5 -20.5t-79.5 -8.5h-19l-8 -51q189 -12 189 -133q0 -92 -74 -129t-168 -37q-106 0 -195 17v100h205q41 0 62.5 11.5t21.5 37.5q0 25 -17.5 37t-62.5 12h-104l33 178 q-39 31 -57.5 79t-18.5 106v723h-131z" />
<glyph unicode="&#x164;" horiz-adv-x="1251" d="M45 0zM45 1235v170h1161v-170h-483v-1235h-195v1235h-483zM324 1778h184l119 -162l117 162h184l-215 -277h-172z" />
<glyph unicode="&#x165;" horiz-adv-x="768" d="M37 928v149h133l39 299h139v-299h182v-149h-182v-707q0 -96 90 -96h92v-119q-27 -12 -69.5 -20.5t-79.5 -8.5q-111 0 -162 66t-51 162v723h-131zM588 1079l69 215h-69v187h174v-172l-84 -230h-90z" />
<glyph unicode="&#x166;" horiz-adv-x="1251" d="M45 1235v170h1161v-170h-483v-307h215v-148h-215v-780h-195v780h-215v148h215v307h-483z" />
<glyph unicode="&#x167;" horiz-adv-x="569" d="M37 539v127h131v262h-131v149h133l39 299h139v-299h182v-149h-182v-262h182v-127h-182v-318q0 -96 90 -96h92v-119q-27 -12 -69.5 -20.5t-79.5 -8.5q-111 0 -162 66t-51 162v334h-131z" />
<glyph unicode="&#x168;" horiz-adv-x="1478" d="M162 0zM162 518v887h194v-897q0 -180 99.5 -273.5t281.5 -93.5q184 0 284.5 94.5t100.5 272.5v897h195v-887q0 -276 -149.5 -409.5t-430.5 -133.5q-276 0 -425.5 133.5t-149.5 409.5zM403 1565q0 92 43 152.5t131 60.5q39 0 75 -8.5t87 -24.5q88 -31 143 -31q51 0 58 64 h133q0 -92 -43 -152.5t-131 -60.5q-39 0 -75 8t-87 24q-88 31 -143 31q-51 0 -58 -63h-133z" />
<glyph unicode="&#x169;" d="M131 0zM131 342v735h180v-723q0 -129 57.5 -179t166.5 -50q78 0 143 38t104 109.5t39 167.5v637h180v-1077h-137l-20 145h-15q-119 -170 -362 -170q-162 0 -249 87.5t-87 279.5zM231 1268q0 92 43 152.5t131 60.5q39 0 75 -8.5t87 -24.5q88 -31 143 -31q51 0 58 64h133 q0 -92 -43 -152.5t-131 -60.5q-39 0 -75 8t-87 24q-88 31 -143 31q-51 0 -58 -63h-133z" />
<glyph unicode="&#x16a;" horiz-adv-x="1478" d="M162 0zM162 518v887h194v-897q0 -180 99.5 -273.5t281.5 -93.5q184 0 284.5 94.5t100.5 272.5v897h195v-887q0 -276 -149.5 -409.5t-430.5 -133.5q-276 0 -425.5 133.5t-149.5 409.5zM426 1581v148h624v-148h-624z" />
<glyph unicode="&#x16b;" d="M131 0zM131 342v735h180v-723q0 -129 57.5 -179t166.5 -50q78 0 143 38t104 109.5t39 167.5v637h180v-1077h-137l-20 145h-15q-119 -170 -362 -170q-162 0 -249 87.5t-87 279.5zM254 1284v148h624v-148h-624z" />
<glyph unicode="&#x16c;" horiz-adv-x="1478" d="M162 0zM162 518v887h194v-897q0 -180 99.5 -273.5t281.5 -93.5q184 0 284.5 94.5t100.5 272.5v897h195v-887q0 -276 -149.5 -409.5t-430.5 -133.5q-276 0 -425.5 133.5t-149.5 409.5zM440 1778h125q25 -109 172 -109q88 0 128 33t46 76h125q0 -98 -70.5 -169t-228.5 -71 t-227.5 70.5t-69.5 169.5z" />
<glyph unicode="&#x16d;" d="M131 0zM131 342v735h180v-723q0 -129 57.5 -179t166.5 -50q78 0 143 38t104 109.5t39 167.5v637h180v-1077h-137l-20 145h-15q-119 -170 -362 -170q-162 0 -249 87.5t-87 279.5zM268 1481h125q25 -109 172 -109q88 0 128 33t46 76h125q0 -98 -70.5 -169t-228.5 -71 t-227.5 70.5t-69.5 169.5z" />
<glyph unicode="&#x16e;" horiz-adv-x="1478" d="M162 0zM162 518v887h194v-897q0 -180 99.5 -273.5t281.5 -93.5q184 0 284.5 94.5t100.5 272.5v897h195v-887q0 -276 -149.5 -409.5t-430.5 -133.5q-276 0 -425.5 133.5t-149.5 409.5zM542 1653q0 84 53.5 140t143.5 56t143.5 -56t53.5 -140t-53.5 -140.5t-143.5 -56.5 t-143.5 56.5t-53.5 140.5zM635 1653q0 -43 29.5 -74t74.5 -31t74.5 31t29.5 74t-29.5 73.5t-74.5 30.5t-74.5 -30.5t-29.5 -73.5z" />
<glyph unicode="&#x16f;" d="M131 0zM131 342v735h180v-723q0 -129 57.5 -179t166.5 -50q78 0 143 38t104 109.5t39 167.5v637h180v-1077h-137l-20 145h-15q-119 -170 -362 -170q-162 0 -249 87.5t-87 279.5zM370 1356q0 84 53.5 140t143.5 56t143.5 -56t53.5 -140t-53.5 -140.5t-143.5 -56.5 t-143.5 56.5t-53.5 140.5zM463 1356q0 -43 29.5 -74t74.5 -31t74.5 31t29.5 74t-29.5 73.5t-74.5 30.5t-74.5 -30.5t-29.5 -73.5z" />
<glyph unicode="&#x170;" horiz-adv-x="1478" d="M162 0zM162 518v887h194v-897q0 -180 99.5 -273.5t281.5 -93.5q184 0 284.5 94.5t100.5 272.5v897h195v-887q0 -276 -149.5 -409.5t-430.5 -133.5q-276 0 -425.5 133.5t-149.5 409.5zM518 1507l127 271h199l2 -6l-172 -265h-156zM803 1507l127 271h199l2 -6l-172 -265 h-156z" />
<glyph unicode="&#x171;" d="M131 0zM131 342v735h180v-723q0 -129 57.5 -179t166.5 -50q78 0 143 38t104 109.5t39 167.5v637h180v-1077h-137l-20 145h-15q-119 -170 -362 -170q-162 0 -249 87.5t-87 279.5zM346 1210l127 271h199l2 -6l-172 -265h-156zM631 1210l127 271h199l2 -6l-172 -265h-156z " />
<glyph unicode="&#x172;" horiz-adv-x="1478" d="M162 518v887h194v-897q0 -180 99.5 -273.5t281.5 -93.5q184 0 284.5 94.5t100.5 272.5v897h195v-887q0 -471 -440 -532q-47 -59 -48 -113q0 -47 27 -80t82 -33h66v-104q-68 -29 -125 -29q-86 0 -147.5 44t-61.5 141q0 94 63 163q-276 2 -423.5 134.5t-147.5 408.5z" />
<glyph unicode="&#x173;" d="M131 342v735h180v-723q0 -129 57.5 -179t166.5 -50q78 0 143 38t104 109.5t39 167.5v637h180v-1077q-70 -20 -122 -62t-52 -94q0 -37 27 -60.5t82 -23.5h65v-104q-68 -29 -124 -29q-82 0 -145.5 41t-63.5 127q0 78 51 135.5t143 83.5l-18 131h-15q-119 -170 -362 -170 q-162 0 -249 87.5t-87 279.5z" />
<glyph unicode="&#x174;" horiz-adv-x="1933" d="M23 0zM23 1405h204l283 -991q14 -53 30.5 -121t22.5 -94h10l41 215l217 991h279l225 -991l43 -215h11q6 27 23.5 94t31.5 121l272 991h195l-406 -1405h-268l-221 985q-16 74 -29.5 140.5t-17.5 88.5h-11q-4 -25 -15 -93t-25 -136l-222 -985h-268zM664 1501l217 277h172 l215 -277h-184l-117 162l-119 -162h-184z" />
<glyph unicode="&#x175;" horiz-adv-x="1478" d="M10 0zM10 1077h187l165 -610q16 -63 36 -143t28 -111h10l53 254l142 610h219l149 -610q14 -63 32 -143t24 -111h10q6 31 24.5 108.5t36.5 145.5l164 610h176l-323 -1077h-197l-155 643l-50 221h-8q-6 -27 -19.5 -94.5t-27.5 -126.5l-154 -643h-198zM436 1204l217 277h172 l215 -277h-184l-117 162l-119 -162h-184z" />
<glyph unicode="&#x176;" horiz-adv-x="1366" d="M33 0zM33 1405h235l418 -643h10l416 643h223l-553 -823v-582h-194v582zM381 1501l217 277h172l215 -277h-184l-117 162l-119 -162h-184z" />
<glyph unicode="&#x177;" horiz-adv-x="1024" d="M27 0zM27 1077h190l201 -538q29 -76 66.5 -189.5t50.5 -148.5h10q10 35 37.5 131t62.5 207l172 538h180l-354 -1022q-72 -205 -163 -316.5t-240 -111.5q-91 1 -144 17v116h72q209 0 274 240zM209 1204l217 277h172l215 -277h-184l-117 162l-119 -162h-184z" />
<glyph unicode="&#x178;" horiz-adv-x="1366" d="M33 0zM33 1405h235l418 -643h10l416 643h223l-553 -823v-582h-194v582zM403 1583v195h179v-195h-179zM786 1583v195h179v-195h-179z" />
<glyph unicode="&#x179;" horiz-adv-x="1251" d="M47 0v100l844 1135h-791v170h1088v-100l-846 -1135h864v-170h-1159zM47 0zM549 1507l176 271h196l2 -6l-221 -265h-153z" />
<glyph unicode="&#x17a;" horiz-adv-x="1024" d="M49 0v96l625 832h-582v149h846v-94l-627 -833h662v-150h-924zM49 0zM435 1210l176 271h196l2 -6l-221 -265h-153z" />
<glyph unicode="&#x17b;" horiz-adv-x="1251" d="M47 0v100l844 1135h-791v170h1088v-100l-846 -1135h864v-170h-1159zM47 0zM537 1583v195h178v-195h-178z" />
<glyph unicode="&#x17c;" horiz-adv-x="1024" d="M49 0v96l625 832h-582v149h846v-94l-627 -833h662v-150h-924zM49 0zM422 1286v195h178v-195h-178z" />
<glyph unicode="&#x17d;" horiz-adv-x="1251" d="M47 0v100l844 1135h-791v170h1088v-100l-846 -1135h864v-170h-1159zM47 0zM324 1778h184l119 -162l117 162h184l-215 -277h-172z" />
<glyph unicode="&#x17e;" horiz-adv-x="1024" d="M49 0v96l625 832h-582v149h846v-94l-627 -833h662v-150h-924zM49 0zM209 1481h184l119 -162l117 162h184l-215 -277h-172z" />
<glyph unicode="&#x17f;" horiz-adv-x="569" d="M18 928v149h158v172q0 106 53.5 177t180.5 71q41 0 83 -7t70 -17v-125h-106q-100 0 -101 -99v-1249h-180v928h-158z" />
<glyph unicode="&#x18f;" horiz-adv-x="1552" d="M96 633v127h1153q-14 258 -140 381t-370 123q-201 0 -328.5 -81t-127.5 -253h-187q0 242 180.5 371t483.5 129q346 0 518 -180.5t172 -557.5q0 -369 -168 -543t-520 -174q-330 0 -498 157t-168 501zM297 580q0 -438 481 -439q221 0 331 102.5t134 336.5h-946z" />
<glyph unicode="&#x192;" d="M80 -350l26 125h107q98 0 121 98l203 950h-158l31 150h157l60 276q23 106 91 177t195 71q41 0 82 -7t66 -17l-27 -125h-106q-98 0 -121 -99l-59 -276h206l-30 -150h-207l-203 -950q-23 -106 -91.5 -177t-195.5 -71q-41 0 -82 7.5t-65 17.5z" />
<glyph unicode="&#x19d;" horiz-adv-x="1478" d="M-23 -231h89q96 0 96 98v1538h174l741 -979l49 -66l9 2v97v946h182v-1405h-166l-717 954l-82 109l-8 -2v-148v-1038q0 -106 -52 -177t-173 -71q-72 0 -142 25v117z" />
<glyph unicode="&#x1a0;" horiz-adv-x="1593" d="M96 702q0 360 183.5 544t517.5 184q281 0 450 -125q172 37 209 170h-108v221h245v-111q0 -135 -63.5 -228t-186.5 -140q156 -188 156 -515q0 -358 -183 -542.5t-519 -184.5q-334 0 -517.5 183.5t-183.5 543.5zM297 694q0 -289 129 -421t371 -132q244 0 372.5 132.5 t128.5 420.5v8q-2 293 -131 427.5t-370 134.5q-240 0 -369 -134.5t-131 -427.5v-8z" />
<glyph unicode="&#x1a1;" d="M72 539q0 287 125 425t372 138q211 0 328 -96q209 35 248 178h-109v221h246v-111q0 -147 -76 -245.5t-223 -139.5q84 -137 84 -370q0 -287 -125 -425.5t-373 -138.5t-372.5 138.5t-124.5 425.5zM258 530q0 -215 74 -310t237 -95q164 0 238 95t74 310v17q0 215 -74 310 t-238 95t-237.5 -95t-73.5 -310v-17z" />
<glyph unicode="&#x1af;" horiz-adv-x="1478" d="M162 518v887h194v-897q0 -180 99.5 -273.5t281.5 -93.5q184 0 284.5 94.5t100.5 272.5v897h156q115 47 145 151h-108v222h246v-111q0 -133 -61.5 -226t-182.5 -141v-782q0 -276 -149.5 -409.5t-430.5 -133.5q-276 0 -425.5 133.5t-149.5 409.5z" />
<glyph unicode="&#x1b0;" d="M131 342v735h180v-723q0 -129 57.5 -179t166.5 -50q78 0 143 38t104 109.5t39 167.5v637h6q117 14 186.5 58.5t90.5 124.5h-109v221h246v-111q0 -131 -60.5 -224t-179.5 -140v-1006h-137l-20 145h-15q-119 -170 -362 -170q-162 0 -249 87.5t-87 279.5z" />
<glyph unicode="&#x1c4;" horiz-adv-x="2729" d="M162 0v1405h520q338 0 520 -173t182 -530q0 -356 -182 -529t-520 -173h-520zM162 0zM356 170h326q244 0 372 123t130 405v4q0 285 -128 409t-374 124h-326v-1065zM1526 0v100l844 1135h-791v170h1088v-100l-846 -1135h864v-170h-1159zM1802 1778h184l119 -162l117 162 h184l-215 -277h-172z" />
<glyph unicode="&#x1c5;" horiz-adv-x="2502" d="M162 0v1405h520q338 0 520 -173t182 -530q0 -356 -182 -529t-520 -173h-520zM162 0zM356 170h326q244 0 372 123t130 405v4q0 285 -128 409t-374 124h-326v-1065zM1528 0v96l625 832h-582v149h846v-94l-627 -833h662v-150h-924zM1688 1481h184l119 -162l117 162h184 l-215 -277h-172z" />
<glyph unicode="&#x1c6;" horiz-adv-x="2162" d="M72 0zM72 539q0 283 109.5 423t299.5 140q115 0 195 -35t133 -113h12v527h180v-1481h-135l-22 145h-13q-53 -84 -140 -127t-193 -43q-205 0 -315.5 137.5t-110.5 426.5zM258 530q0 -152 28.5 -239.5t90 -126.5t166.5 -39q145 0 211.5 102.5t66.5 302.5v9q0 205 -67.5 309 t-210.5 104q-102 0 -165 -40t-91.5 -130t-28.5 -243v-9zM1188 0v96l625 832h-582v149h846v-94l-627 -833h662v-150h-924zM1348 1481h184l119 -162l117 162h184l-215 -277h-172z" />
<glyph unicode="&#x1c7;" horiz-adv-x="2162" d="M162 0v1405h194v-1235h721v-170h-915zM162 0zM1198 375v51h195v-61q0 -111 53 -167.5t154 -56.5q102 0 155.5 64.5t53.5 191.5v1008h194v-997q0 -215 -104.5 -324t-298.5 -109q-193 0 -297.5 102.5t-104.5 297.5z" />
<glyph unicode="&#x1c8;" horiz-adv-x="1593" d="M162 0v1405h194v-1235h721v-170h-915zM162 0zM1090 -231h90q96 0 96 98v1210h180v-1202q0 -106 -52 -177t-173 -71q-71 0 -141 25v117zM1276 1280v201h180v-201h-180z" />
<glyph unicode="&#x1c9;" horiz-adv-x="909" d="M137 0v1481h180v-1481h-180zM137 0zM406 -231h90q96 0 96 98v1210h180v-1202q0 -106 -52 -177t-173 -71q-71 0 -141 25v117zM592 1280v201h180v-201h-180z" />
<glyph unicode="&#x1ca;" horiz-adv-x="2502" d="M162 0v1405h174l741 -979l49 -66l9 2v97v946h182v-1405h-166l-745 991l-54 72l-8 -2v-96v-965h-182zM162 0zM1538 375v51h195v-61q0 -111 53 -167.5t154 -56.5q102 0 155.5 64.5t53.5 191.5v1008h194v-997q0 -215 -104.5 -324t-298.5 -109q-193 0 -297.5 102.5 t-104.5 297.5z" />
<glyph unicode="&#x1cb;" horiz-adv-x="1933" d="M162 0v1405h174l741 -979l49 -66l9 2v97v946h182v-1405h-166l-745 991l-54 72l-8 -2v-96v-965h-182zM162 0zM1430 -231h90q96 0 96 98v1210h180v-1202q0 -106 -52 -177t-173 -71q-71 0 -141 25v117zM1616 1280v201h180v-201h-180z" />
<glyph unicode="&#x1cc;" horiz-adv-x="1593" d="M137 0v1077h137l21 -145h14q119 170 363 170q162 0 249 -87t87 -280v-735h-181v723q0 129 -57 179t-166 50q-78 0 -143.5 -37.5t-104.5 -109.5t-39 -168v-637h-180zM137 0zM1090 -231h90q96 0 96 98v1210h180v-1202q0 -106 -52 -177t-173 -71q-71 0 -141 25v117z M1276 1280v201h180v-201h-180z" />
<glyph unicode="&#x1cd;" horiz-adv-x="1366" d="M14 0l545 1405h248l545 -1405h-207l-141 375h-652l-137 -375h-201zM14 0zM381 1778h184l119 -162l117 162h184l-215 -277h-172zM416 545h524l-164 438l-94 254h-10l-92 -250z" />
<glyph unicode="&#x1ce;" d="M74 0zM74 279q0 207 184 283.5t533 76.5v119q0 94 -53.5 144t-192.5 50q-131 0 -187.5 -49t-56.5 -121v-24h-174q-2 12 -2 45q0 143 118.5 221t317.5 78q201 0 305.5 -84t104.5 -238v-583q0 -37 20.5 -54.5t50.5 -17.5h82v-117q-53 -25 -139 -24q-70 0 -117 42t-63 111 h-14q-55 -76 -150.5 -119t-210.5 -43q-139 0 -247.5 65.5t-108.5 238.5zM262 289q0 -88 54.5 -126t160.5 -38q80 0 151.5 32.5t117 97t45.5 157.5v77q-264 0 -396.5 -41.5t-132.5 -158.5zM266 1481h184l119 -162l117 162h184l-215 -277h-172z" />
<glyph unicode="&#x1cf;" horiz-adv-x="569" d="M-18 1778h184l119 -162l117 162h184l-215 -277h-172zM0 0zM188 0v1405h195v-1405h-195z" />
<glyph unicode="&#x1d0;" horiz-adv-x="569" d="M-18 1481h184l119 -162l117 162h184l-215 -277h-172zM0 0zM195 0v1077h180v-1077h-180z" />
<glyph unicode="&#x1d1;" horiz-adv-x="1593" d="M96 0zM96 702q0 360 183.5 544t517.5 184q336 0 519 -183.5t183 -544.5q0 -358 -183 -542.5t-519 -184.5q-334 0 -517.5 183.5t-183.5 543.5zM297 694q0 -289 129 -421t371 -132q243 0 372 132.5t129 420.5v8q-2 293 -131 427.5t-370 134.5q-240 0 -369 -134.5 t-131 -427.5v-8zM494 1778h184l119 -162l117 162h184l-215 -277h-172z" />
<glyph unicode="&#x1d2;" d="M72 0zM72 539q0 287 125 425t372 138q248 0 373 -138.5t125 -424.5q0 -287 -125 -425.5t-373 -138.5q-247 0 -372 138.5t-125 425.5zM258 530q0 -215 74 -310t237 -95q164 0 238 95t74 310v17q0 215 -74 310t-238 95t-237.5 -95t-73.5 -310v-17zM266 1481h184l119 -162 l117 162h184l-215 -277h-172z" />
<glyph unicode="&#x1d3;" horiz-adv-x="1478" d="M162 0zM162 518v887h194v-897q0 -180 99.5 -273.5t281.5 -93.5q184 0 284.5 94.5t100.5 272.5v897h195v-887q0 -276 -149.5 -409.5t-430.5 -133.5q-276 0 -425.5 133.5t-149.5 409.5zM436 1778h184l119 -162l117 162h184l-215 -277h-172z" />
<glyph unicode="&#x1d4;" d="M131 0zM131 342v735h180v-723q0 -129 57.5 -179t166.5 -50q78 0 143 38t104 109.5t39 167.5v637h180v-1077h-137l-20 145h-15q-119 -170 -362 -170q-162 0 -249 87.5t-87 279.5zM264 1481h184l119 -162l117 162h184l-215 -277h-172z" />
<glyph unicode="&#x1d5;" horiz-adv-x="1478" d="M162 0zM162 518v887h194v-897q0 -180 99.5 -273.5t281.5 -93.5q184 0 284.5 94.5t100.5 272.5v897h195v-887q0 -276 -149.5 -409.5t-430.5 -133.5q-276 0 -425.5 133.5t-149.5 409.5zM426 1923v148h624v-148h-624zM458 1583v195h179v-195h-179zM841 1583v195h179v-195 h-179z" />
<glyph unicode="&#x1d6;" d="M131 0zM131 342v735h180v-723q0 -129 57.5 -179t166.5 -50q78 0 143 38t104 109.5t39 167.5v637h180v-1077h-137l-20 145h-15q-119 -170 -362 -170q-162 0 -249 87.5t-87 279.5zM254 1626v148h624v-148h-624zM286 1286v195h179v-195h-179zM669 1286v195h179v-195h-179z " />
<glyph unicode="&#x1d7;" horiz-adv-x="1478" d="M162 0zM162 518v887h194v-897q0 -180 99.5 -273.5t281.5 -93.5q184 0 284.5 94.5t100.5 272.5v897h195v-887q0 -276 -149.5 -409.5t-430.5 -133.5q-276 0 -425.5 133.5t-149.5 409.5zM458 1583v195h179v-195h-179zM662 1849l176 271h196l2 -6l-221 -265h-153zM841 1583 v195h179v-195h-179z" />
<glyph unicode="&#x1d8;" d="M131 0zM131 342v735h180v-723q0 -129 57.5 -179t166.5 -50q78 0 143 38t104 109.5t39 167.5v637h180v-1077h-137l-20 145h-15q-119 -170 -362 -170q-162 0 -249 87.5t-87 279.5zM286 1286v195h179v-195h-179zM490 1552l176 271h196l2 -6l-221 -265h-153zM669 1286v195 h179v-195h-179z" />
<glyph unicode="&#x1d9;" horiz-adv-x="1478" d="M162 0zM162 518v887h194v-897q0 -180 99.5 -273.5t281.5 -93.5q184 0 284.5 94.5t100.5 272.5v897h195v-887q0 -276 -149.5 -409.5t-430.5 -133.5q-276 0 -425.5 133.5t-149.5 409.5zM436 2120h184l119 -162l117 162h184l-215 -277h-172zM458 1583v195h179v-195h-179z M841 1583v195h179v-195h-179z" />
<glyph unicode="&#x1da;" d="M131 0zM131 342v735h180v-723q0 -129 57.5 -179t166.5 -50q78 0 143 38t104 109.5t39 167.5v637h180v-1077h-137l-20 145h-15q-119 -170 -362 -170q-162 0 -249 87.5t-87 279.5zM264 1823h184l119 -162l117 162h184l-215 -277h-172zM286 1286v195h179v-195h-179z M669 1286v195h179v-195h-179z" />
<glyph unicode="&#x1db;" horiz-adv-x="1478" d="M162 0zM162 518v887h194v-897q0 -180 99.5 -273.5t281.5 -93.5q184 0 284.5 94.5t100.5 272.5v897h195v-887q0 -276 -149.5 -409.5t-430.5 -133.5q-276 0 -425.5 133.5t-149.5 409.5zM441 2114l2 6h196l176 -271h-153zM458 1583v195h179v-195h-179zM841 1583v195h179 v-195h-179z" />
<glyph unicode="&#x1dc;" d="M131 0zM131 342v735h180v-723q0 -129 57.5 -179t166.5 -50q78 0 143 38t104 109.5t39 167.5v637h180v-1077h-137l-20 145h-15q-119 -170 -362 -170q-162 0 -249 87.5t-87 279.5zM269 1817l2 6h196l176 -271h-153zM286 1286v195h179v-195h-179zM669 1286v195h179v-195 h-179z" />
<glyph unicode="&#x1e6;" horiz-adv-x="1593" d="M96 0zM96 702q0 727 709 728q291 0 467 -129.5t176 -374.5h-199q0 170 -118.5 254t-325.5 84q-256 0 -381 -131.5t-125 -430.5v-4q2 -297 124 -427t370 -130q238 0 349 98.5t111 301.5v20h-495v170h690v-731h-152l-14 156q-160 -180 -489 -181q-344 0 -520.5 181.5 t-176.5 545.5zM494 1778h184l119 -162l117 162h184l-215 -277h-172z" />
<glyph unicode="&#x1e7;" d="M37 0zM37 -113q0 168 174 230q-49 27 -81 68.5t-32 97.5q0 80 56.5 120.5t124.5 57.5q-68 49 -107 120.5t-39 157.5q0 172 117 267.5t319 95.5q113 0 205 -37q133 63 156 186h172q0 -96 -56.5 -165.5t-152.5 -92.5q115 -102 115 -254q0 -172 -118 -267t-321 -95h-172 q-55 0 -84.5 -24.5t-29.5 -63.5t29.5 -63.5t84.5 -24.5h432q127 0 201 -77t74 -185q0 -78 -35 -150t-111.5 -117t-193.5 -45h-434q-119 0 -206 60.5t-87 199.5zM217 -92q0 -61 35 -98t94 -37h422q68 0 113 36.5t45 98.5q0 61 -36 97t-95 36h-449q-59 0 -94 -36t-35 -97z M266 1481h184l119 -162l117 162h184l-215 -277h-172zM313 739q0 -106 65.5 -164.5t192.5 -58.5t192.5 58.5t65.5 164.5t-65.5 165t-192.5 59t-192.5 -58.5t-65.5 -165.5z" />
<glyph unicode="&#x1ea;" horiz-adv-x="1593" d="M96 702q0 360 183.5 544t517.5 184q336 0 519 -183.5t183 -544.5q0 -272 -107.5 -444t-308.5 -240v-2q-30 -28 -53.5 -66t-23.5 -77q0 -47 26.5 -80t81.5 -33h66v-104q-68 -29 -125 -29q-86 0 -147.5 44t-61.5 141q0 94 72 170q-57 -6 -121 -7q-334 0 -517.5 183.5 t-183.5 543.5zM297 694q0 -288 129 -420.5t371 -132.5q244 0 372.5 132.5t128.5 420.5v8q-2 293 -131 427.5t-370 134.5q-240 0 -369 -134.5t-131 -427.5v-8z" />
<glyph unicode="&#x1eb;" d="M72 539q0 287 125 425t372 138q248 0 373 -138.5t125 -424.5q0 -414 -264 -523q-31 -28 -54.5 -66t-23.5 -77q0 -47 26.5 -80t82.5 -33h65v-104q-68 -29 -125 -29q-86 0 -147.5 44t-61.5 141q0 92 68 165q-20 -2 -64 -2q-248 0 -372.5 138.5t-124.5 425.5zM258 530 q0 -215 74 -310t237 -95q164 0 238 95t74 310v17q0 215 -74 310t-238 95t-237.5 -95t-73.5 -310v-17z" />
<glyph unicode="&#x1f1;" horiz-adv-x="2729" d="M162 0v1405h520q338 0 520 -173t182 -530q0 -356 -182 -529t-520 -173h-520zM162 0zM356 170h326q244 0 372 123t130 405v4q0 285 -128 409t-374 124h-326v-1065zM1526 0v100l844 1135h-791v170h1088v-100l-846 -1135h864v-170h-1159z" />
<glyph unicode="&#x1f2;" horiz-adv-x="2502" d="M162 0v1405h520q338 0 520 -173t182 -530q0 -356 -182 -529t-520 -173h-520zM162 0zM356 170h326q244 0 372 123t130 405v4q0 285 -128 409t-374 124h-326v-1065zM1528 0v96l625 832h-582v149h846v-94l-627 -833h662v-150h-924z" />
<glyph unicode="&#x1f3;" horiz-adv-x="2162" d="M72 0zM72 539q0 283 109.5 423t299.5 140q115 0 195 -35t133 -113h12v527h180v-1481h-135l-22 145h-13q-53 -84 -140 -127t-193 -43q-205 0 -315.5 137.5t-110.5 426.5zM258 530q0 -152 28.5 -239.5t90 -126.5t166.5 -39q145 0 211.5 102.5t66.5 302.5v9q0 205 -67.5 309 t-210.5 104q-102 0 -165 -40t-91.5 -130t-28.5 -243v-9zM1188 0v96l625 832h-582v149h846v-94l-627 -833h662v-150h-924z" />
<glyph unicode="&#x1f4;" horiz-adv-x="1593" d="M96 0zM96 702q0 727 709 728q291 0 467 -129.5t176 -374.5h-199q0 170 -118.5 254t-325.5 84q-256 0 -381 -131.5t-125 -430.5v-4q2 -297 124 -427t370 -130q238 0 349 98.5t111 301.5v20h-495v170h690v-731h-152l-14 156q-160 -180 -489 -181q-344 0 -520.5 181.5 t-176.5 545.5zM719 1507l176 271h196l2 -6l-221 -265h-153z" />
<glyph unicode="&#x1f5;" d="M37 0zM37 -113q0 168 174 230q-49 27 -81 68.5t-32 97.5q0 80 56.5 120.5t124.5 57.5q-68 49 -107 120.5t-39 157.5q0 172 117 267.5t319 95.5q113 0 205 -37q133 63 156 186h172q0 -96 -56.5 -165.5t-152.5 -92.5q115 -102 115 -254q0 -172 -118 -267t-321 -95h-172 q-55 0 -84.5 -24.5t-29.5 -63.5t29.5 -63.5t84.5 -24.5h432q127 0 201 -77t74 -185q0 -78 -35 -150t-111.5 -117t-193.5 -45h-434q-119 0 -206 60.5t-87 199.5zM217 -92q0 -61 35 -98t94 -37h422q68 0 113 36.5t45 98.5q0 61 -36 97t-95 36h-449q-59 0 -94 -36t-35 -97z M313 739q0 -106 65.5 -164.5t192.5 -58.5t192.5 58.5t65.5 164.5t-65.5 165t-192.5 59t-192.5 -58.5t-65.5 -165.5zM492 1210l176 271h196l2 -6l-221 -265h-153z" />
<glyph unicode="&#x1fa;" horiz-adv-x="1366" d="M14 0l533 1374q-29 27 -45.5 65t-16.5 83q0 84 53.5 140t143.5 56t143.5 -56t53.5 -140q0 -94 -60 -148l533 -1374h-207l-141 375h-652l-137 -375h-201zM416 545h524l-164 438l-94 254h-10l-92 -250zM578 1522q0 -43 29.5 -74t74.5 -31t74.5 31t29.5 74t-29.5 73.5 t-74.5 30.5t-74.5 -30.5t-29.5 -73.5zM606 1763l176 271h197l2 -6l-221 -265h-154z" />
<glyph unicode="&#x1fb;" d="M74 0zM74 279q0 207 184 283.5t533 76.5v119q0 94 -53.5 144t-192.5 50q-131 0 -187.5 -49t-56.5 -121v-24h-174q-2 12 -2 45q0 143 118.5 221t317.5 78q201 0 305.5 -84t104.5 -238v-583q0 -37 20.5 -54.5t50.5 -17.5h82v-117q-53 -25 -139 -24q-70 0 -117 42t-63 111 h-14q-55 -76 -150.5 -119t-210.5 -43q-139 0 -247.5 65.5t-108.5 238.5zM262 289q0 -88 54.5 -126t160.5 -38q80 0 151.5 32.5t117 97t45.5 157.5v77q-264 0 -396.5 -41.5t-132.5 -158.5zM372 1356q0 84 53.5 140t143.5 56t143.5 -56t53.5 -140t-53.5 -140.5t-143.5 -56.5 t-143.5 56.5t-53.5 140.5zM465 1356q0 -43 29.5 -74t74.5 -31t74.5 31t29.5 74t-29.5 73.5t-74.5 30.5t-74.5 -30.5t-29.5 -73.5zM494 1601l176 271h196l2 -6l-221 -265h-153z" />
<glyph unicode="&#x1fc;" horiz-adv-x="2048" d="M-2 0l709 1405h1218v-170h-911l121 -432h700v-170h-651l129 -463h624v-170h-778l-104 375h-678l-184 -375h-195zM0 0zM461 545h547l-193 690h-10zM947 1507l176 271h196l2 -6l-221 -265h-153z" />
<glyph unicode="&#x1fd;" horiz-adv-x="1820" d="M74 0zM74 279q0 207 186 283.5t535 76.5v119q0 94 -55.5 144t-194.5 50q-131 0 -187.5 -49t-56.5 -121v-24h-174q-2 12 -2 45q0 143 118.5 221t317.5 78q254 0 357 -152q123 152 370 152q225 0 339 -124t114 -398v-91h-764q10 -186 85 -275t226 -89q123 0 200 59.5 t77 182.5h176q0 -188 -127 -290t-326 -102q-289 0 -403 183q-74 -86 -188.5 -134.5t-245.5 -48.5q-148 0 -262.5 65.5t-114.5 238.5zM262 289q0 -88 54.5 -126t160.5 -38q131 0 224.5 69.5t93.5 217.5v77q-264 0 -398.5 -41.5t-134.5 -158.5zM834 1210l176 271h196l2 -6 l-221 -265h-153zM981 639h571q0 313 -264 313q-145 0 -219 -73.5t-88 -239.5z" />
<glyph unicode="&#x1fe;" horiz-adv-x="1593" d="M96 0zM96 -100l193 250q-193 186 -193 552q0 360 183.5 544t517.5 184q240 0 401 -95l129 170h172l-192 -252q193 -186 192 -551q0 -358 -183 -542.5t-519 -184.5q-240 0 -400 91l-127 -166h-174zM297 702q0 -264 106 -401l687 893q-119 70 -293 70q-242 0 -371 -132.5 t-129 -420.5v-9zM508 209q113 -68 289 -68q243 0 372 132.5t129 420.5v8q0 258 -106 400zM719 1507l176 271h196l2 -6l-221 -265h-153z" />
<glyph unicode="&#x1ff;" horiz-adv-x="1251" d="M92 0zM92 -100l156 217q-121 139 -121 422q0 287 125 425t373 138q168 0 282 -66l101 142h151l-158 -222q121 -139 121 -417q0 -287 -125 -425.5t-372 -138.5q-168 0 -281 64l-98 -139h-154zM313 539q0 -176 45 -269l453 633q-70 49 -186 49q-164 0 -238 -95t-74 -308 v-10zM440 172q68 -47 185 -47q163 0 237 95t74 308v11q0 172 -45 264zM549 1210l176 271h196l2 -6l-221 -265h-153z" />
<glyph unicode="&#x200;" horiz-adv-x="1366" d="M14 0l545 1405h248l545 -1405h-207l-141 375h-652l-137 -375h-201zM14 0zM321 1772l2 6h199l127 -271h-156zM416 545h524l-164 438l-94 254h-10l-92 -250zM606 1772l2 6h199l127 -271h-156z" />
<glyph unicode="&#x201;" d="M74 0zM74 279q0 207 184 283.5t533 76.5v119q0 94 -53.5 144t-192.5 50q-131 0 -187.5 -49t-56.5 -121v-24h-174q-2 12 -2 45q0 143 118.5 221t317.5 78q201 0 305.5 -84t104.5 -238v-583q0 -37 20.5 -54.5t50.5 -17.5h82v-117q-53 -25 -139 -24q-70 0 -117 42t-63 111 h-14q-55 -76 -150.5 -119t-210.5 -43q-139 0 -247.5 65.5t-108.5 238.5zM207 1475l2 6h199l127 -271h-156zM262 289q0 -88 54.5 -126t160.5 -38q80 0 151.5 32.5t117 97t45.5 157.5v77q-264 0 -396.5 -41.5t-132.5 -158.5zM492 1475l2 6h199l127 -271h-156z" />
<glyph unicode="&#x202;" horiz-adv-x="1366" d="M14 0l545 1405h248l545 -1405h-207l-141 375h-652l-137 -375h-201zM14 0zM385 1538q0 98 69.5 169t227.5 71t228.5 -71t70.5 -169h-125q-6 43 -46 76t-128 33q-147 0 -172 -109h-125zM416 545h524l-164 438l-94 254h-10l-92 -250z" />
<glyph unicode="&#x203;" d="M74 0zM74 279q0 207 184 283.5t533 76.5v119q0 94 -53.5 144t-192.5 50q-131 0 -187.5 -49t-56.5 -121v-24h-174q-2 12 -2 45q0 143 118.5 221t317.5 78q201 0 305.5 -84t104.5 -238v-583q0 -37 20.5 -54.5t50.5 -17.5h82v-117q-53 -25 -139 -24q-70 0 -117 42t-63 111 h-14q-55 -76 -150.5 -119t-210.5 -43q-139 0 -247.5 65.5t-108.5 238.5zM262 289q0 -88 54.5 -126t160.5 -38q80 0 151.5 32.5t117 97t45.5 157.5v77q-264 0 -396.5 -41.5t-132.5 -158.5zM270 1241q0 98 69.5 169t227.5 71t228.5 -71t70.5 -169h-125q-6 43 -46 76t-128 33 q-147 0 -172 -109h-125z" />
<glyph unicode="&#x204;" horiz-adv-x="1366" d="M162 0v1405h1081v-170h-887v-432h797v-170h-797v-463h899v-170h-1093zM162 0zM321 1772l2 6h199l127 -271h-156zM606 1772l2 6h199l127 -271h-156z" />
<glyph unicode="&#x205;" d="M80 0zM80 539q0 289 127 426t387 137q233 0 349 -124t116 -398v-91h-793q10 -186 89 -275t239 -89q129 0 209 59.5t80 182.5h176q0 -188 -130 -290t-335 -102q-260 0 -387 137.5t-127 426.5zM207 1475l2 6h199l127 -271h-156zM270 639h600q0 313 -276 313 q-154 0 -230.5 -73.5t-93.5 -239.5zM492 1475l2 6h199l127 -271h-156z" />
<glyph unicode="&#x206;" horiz-adv-x="1366" d="M162 0v1405h1081v-170h-887v-432h797v-170h-797v-463h899v-170h-1093zM162 0zM385 1538q0 98 69.5 169t227.5 71t228.5 -71t70.5 -169h-125q-6 43 -46 76t-128 33q-147 0 -172 -109h-125z" />
<glyph unicode="&#x207;" d="M80 0zM80 539q0 289 127 426t387 137q233 0 349 -124t116 -398v-91h-793q10 -186 89 -275t239 -89q129 0 209 59.5t80 182.5h176q0 -188 -130 -290t-335 -102q-260 0 -387 137.5t-127 426.5zM270 639h600q0 313 -276 313q-154 0 -230.5 -73.5t-93.5 -239.5zM270 1241 q0 98 69.5 169t227.5 71t228.5 -71t70.5 -169h-125q-6 43 -46 76t-128 33q-147 0 -172 -109h-125z" />
<glyph unicode="&#x208;" horiz-adv-x="569" d="M-78 1772l2 6h199l127 -271h-156zM0 0zM188 0v1405h195v-1405h-195zM207 1772l2 6h199l127 -271h-156z" />
<glyph unicode="&#x209;" horiz-adv-x="569" d="M-78 1475l2 6h199l127 -271h-156zM0 0zM195 0v1077h180v-1077h-180zM207 1475l2 6h199l127 -271h-156z" />
<glyph unicode="&#x20a;" horiz-adv-x="569" d="M-14 1538q0 98 69.5 169t227.5 71t228.5 -71t70.5 -169h-125q-6 43 -46 76t-128 33q-147 0 -172 -109h-125zM0 0zM188 0v1405h195v-1405h-195z" />
<glyph unicode="&#x20b;" horiz-adv-x="569" d="M-14 1241q0 98 69.5 169t227.5 71t228.5 -71t70.5 -169h-125q-6 43 -46 76t-128 33q-147 0 -172 -109h-125zM0 0zM195 0v1077h180v-1077h-180z" />
<glyph unicode="&#x20c;" horiz-adv-x="1593" d="M96 0zM96 702q0 360 183.5 544t517.5 184q336 0 519 -183.5t183 -544.5q0 -358 -183 -542.5t-519 -184.5q-334 0 -517.5 183.5t-183.5 543.5zM297 694q0 -289 129 -421t371 -132q243 0 372 132.5t129 420.5v8q-2 293 -131 427.5t-370 134.5q-240 0 -369 -134.5 t-131 -427.5v-8zM434 1772l2 6h199l127 -271h-156zM719 1772l2 6h199l127 -271h-156z" />
<glyph unicode="&#x20d;" d="M72 0zM72 539q0 287 125 425t372 138q248 0 373 -138.5t125 -424.5q0 -287 -125 -425.5t-373 -138.5q-247 0 -372 138.5t-125 425.5zM207 1475l2 6h199l127 -271h-156zM258 530q0 -215 74 -310t237 -95q164 0 238 95t74 310v17q0 215 -74 310t-238 95t-237.5 -95 t-73.5 -310v-17zM492 1475l2 6h199l127 -271h-156z" />
<glyph unicode="&#x20e;" horiz-adv-x="1593" d="M96 0zM96 702q0 360 183.5 544t517.5 184q336 0 519 -183.5t183 -544.5q0 -358 -183 -542.5t-519 -184.5q-334 0 -517.5 183.5t-183.5 543.5zM297 694q0 -289 129 -421t371 -132q243 0 372 132.5t129 420.5v8q-2 293 -131 427.5t-370 134.5q-240 0 -369 -134.5 t-131 -427.5v-8zM498 1538q0 98 69.5 169t227.5 71t228.5 -71t70.5 -169h-125q-6 43 -46 76t-128 33q-147 0 -172 -109h-125z" />
<glyph unicode="&#x20f;" d="M72 0zM72 539q0 287 125 425t372 138q248 0 373 -138.5t125 -424.5q0 -287 -125 -425.5t-373 -138.5q-247 0 -372 138.5t-125 425.5zM258 530q0 -215 74 -310t237 -95q164 0 238 95t74 310v17q0 215 -74 310t-238 95t-237.5 -95t-73.5 -310v-17zM270 1241q0 98 69.5 169 t227.5 71t228.5 -71t70.5 -169h-125q-6 43 -46 76t-128 33q-147 0 -172 -109h-125z" />
<glyph unicode="&#x210;" horiz-adv-x="1478" d="M162 0v1405h731q211 0 323.5 -108.5t112.5 -290.5q0 -143 -68.5 -248t-189.5 -150l324 -608h-217l-306 580h-516v-580h-194zM162 0zM356 750h527q115 0 182.5 67.5t67.5 186.5q0 111 -63.5 171t-186.5 60h-527v-485zM377 1772l2 6h199l127 -271h-156zM662 1772l2 6h199 l127 -271h-156z" />
<glyph unicode="&#x211;" horiz-adv-x="681" d="M-21 1475l2 6h199l127 -271h-156zM0 0zM137 0v1077h137l21 -162h12q31 80 92.5 133.5t161.5 53.5q35 0 62.5 -7.5t33.5 -9.5v-174h-75q-115 0 -190 -66.5t-75 -207.5v-637h-180zM264 1475l2 6h199l127 -271h-156z" />
<glyph unicode="&#x212;" horiz-adv-x="1478" d="M162 0v1405h731q211 0 323.5 -108.5t112.5 -290.5q0 -143 -68.5 -248t-189.5 -150l324 -608h-217l-306 580h-516v-580h-194zM162 0zM356 750h527q115 0 182.5 67.5t67.5 186.5q0 111 -63.5 171t-186.5 60h-527v-485zM440 1538q0 98 69.5 169t227.5 71t228.5 -71 t70.5 -169h-125q-6 43 -46 76t-128 33q-147 0 -172 -109h-125z" />
<glyph unicode="&#x213;" horiz-adv-x="681" d="M43 0zM43 1241q0 98 69.5 169t227.5 71t228.5 -71t70.5 -169h-125q-6 43 -46 76t-128 33q-147 0 -172 -109h-125zM137 0v1077h137l21 -162h12q31 80 92.5 133.5t161.5 53.5q35 0 62.5 -7.5t33.5 -9.5v-174h-75q-115 0 -190 -66.5t-75 -207.5v-637h-180z" />
<glyph unicode="&#x214;" horiz-adv-x="1478" d="M162 0zM162 518v887h194v-897q0 -180 99.5 -273.5t281.5 -93.5q184 0 284.5 94.5t100.5 272.5v897h195v-887q0 -276 -149.5 -409.5t-430.5 -133.5q-276 0 -425.5 133.5t-149.5 409.5zM377 1772l2 6h199l127 -271h-156zM662 1772l2 6h199l127 -271h-156z" />
<glyph unicode="&#x215;" d="M131 0zM131 342v735h180v-723q0 -129 57.5 -179t166.5 -50q78 0 143 38t104 109.5t39 167.5v637h180v-1077h-137l-20 145h-15q-119 -170 -362 -170q-162 0 -249 87.5t-87 279.5zM204 1475l2 6h199l127 -271h-156zM489 1475l2 6h199l127 -271h-156z" />
<glyph unicode="&#x216;" horiz-adv-x="1478" d="M162 0zM162 518v887h194v-897q0 -180 99.5 -273.5t281.5 -93.5q184 0 284.5 94.5t100.5 272.5v897h195v-887q0 -276 -149.5 -409.5t-430.5 -133.5q-276 0 -425.5 133.5t-149.5 409.5zM440 1538q0 98 69.5 169t227.5 71t228.5 -71t70.5 -169h-125q-6 43 -46 76t-128 33 q-147 0 -172 -109h-125z" />
<glyph unicode="&#x217;" d="M131 0zM131 342v735h180v-723q0 -129 57.5 -179t166.5 -50q78 0 143 38t104 109.5t39 167.5v637h180v-1077h-137l-20 145h-15q-119 -170 -362 -170q-162 0 -249 87.5t-87 279.5zM268 1241q0 98 69.5 169t227.5 71t228.5 -71t70.5 -169h-125q-6 43 -46 76t-128 33 q-147 0 -172 -109h-125z" />
<glyph unicode="&#x218;" horiz-adv-x="1366" d="M100 0zM100 397l2 41h193q0 -2 -2 -14t-2 -29q0 -125 103.5 -189.5t275.5 -64.5q193 0 295 60.5t102 173.5q0 76 -53 126t-134 78.5t-218 63.5q-170 43 -274.5 83t-178.5 119t-74 208q0 184 153.5 280.5t393.5 96.5t389.5 -97.5t149.5 -298.5v-24h-191v30q0 104 -95 164 t-247 60q-162 0 -259 -49.5t-97 -147.5q0 -72 52 -117t129 -72.5t214 -62.5q170 -43 277.5 -84t182.5 -120t75 -205q0 -225 -157 -328t-425 -103q-256 0 -418 102.5t-162 319.5zM594 -119h180v-172l-88 -180h-92l75 166h-75v186z" />
<glyph unicode="&#x219;" horiz-adv-x="1024" d="M63 0zM63 291q0 25 1.5 34t1.5 11h178v-21q0 -96 75.5 -144t196.5 -48q104 0 173 42t69 118q0 59 -39 97t-96.5 59.5t-155.5 45.5q-119 31 -193.5 62t-127 91t-52.5 157q0 141 116 224t312 83q123 0 213 -40t136.5 -106.5t46.5 -148.5l-3 -39h-176v18q0 72 -56 119 t-181 47q-123 0 -172 -44t-49 -101q0 -47 34.5 -78t86 -49t143.5 -41q127 -33 206.5 -64.5t136 -96t56.5 -171.5q0 -166 -119.5 -249t-318.5 -83q-150 0 -249 44t-146.5 116t-47.5 156zM422 -119h180v-172l-88 -180h-92l75 166h-75v186z" />
<glyph unicode="&#x21a;" horiz-adv-x="1251" d="M45 0zM45 1235v170h1161v-170h-483v-1235h-195v1235h-483zM537 -119h180v-172l-88 -180h-92l75 166h-75v186z" />
<glyph unicode="&#x21b;" horiz-adv-x="569" d="M37 0zM37 928v149h133l39 299h139v-299h182v-149h-182v-707q0 -96 90 -96h92v-119q-27 -12 -69.5 -20.5t-79.5 -8.5q-111 0 -162 66t-51 162v723h-131zM218 -119h180v-172l-88 -180h-92l75 166h-75v186z" />
<glyph unicode="&#x232;" horiz-adv-x="1366" d="M33 0zM33 1405h235l418 -643h10l416 643h223l-553 -823v-582h-194v582zM371 1581v148h624v-148h-624z" />
<glyph unicode="&#x233;" horiz-adv-x="1024" d="M27 0zM27 1077h190l201 -538q29 -76 66.5 -189.5t50.5 -148.5h10q10 35 37.5 131t62.5 207l172 538h180l-354 -1022q-72 -205 -163 -316.5t-240 -111.5q-91 1 -144 17v116h72q209 0 274 240zM199 1284v148h624v-148h-624z" />
<glyph unicode="&#x237;" horiz-adv-x="454" d="M-49 -231h90q96 0 96 98v1210h180v-1202q0 -106 -52 -177t-173 -71q-71 0 -141 25v117z" />
<glyph unicode="&#x259;" d="M80 498v90h792q-8 188 -89 276t-234 88q-131 0 -212 -59t-81 -182h-176q0 190 131 290.5t348 100.5q250 0 375 -139.5t125 -423.5q0 -287 -127 -425.5t-383 -138.5q-236 0 -352.5 123t-116.5 400zM268 438q0 -166 74 -239.5t213 -73.5q141 0 220 74.5t93 238.5h-600z" />
<glyph unicode="&#x272;" d="M-49 -231h90q96 0 96 98v1210h137l21 -145h14q119 170 363 170q162 0 249 -87t87 -280v-735h-181v723q0 129 -57 179t-166 50q-78 0 -143.5 -37.5t-104.5 -109.5t-39 -168v-762q0 -106 -52 -177t-173 -71q-71 0 -141 25v117z" />
<glyph unicode="&#x2bc;" horiz-adv-x="411" d="M119 1004l69 215h-69v186h174v-172l-84 -229h-90z" />
<glyph unicode="&#x2c6;" horiz-adv-x="681" d="M39 1204l217 277h172l215 -277h-184l-117 162l-119 -162h-184z" />
<glyph unicode="&#x2c7;" horiz-adv-x="681" d="M39 1481h184l119 -162l117 162h184l-215 -277h-172z" />
<glyph unicode="&#x2c9;" horiz-adv-x="681" d="M29 1284v148h624v-148h-624zM29 1284z" />
<glyph unicode="&#x2d8;" horiz-adv-x="681" d="M43 1481h125q25 -109 172 -109q88 0 128 33t46 76h125q0 -98 -70.5 -169t-228.5 -71t-227.5 70.5t-69.5 169.5z" />
<glyph unicode="&#x2d9;" horiz-adv-x="681" d="M252 1286v195h178v-195h-178z" />
<glyph unicode="&#x2da;" horiz-adv-x="681" d="M145 1356q0 84 53.5 140t143.5 56t143.5 -56t53.5 -140t-53.5 -140.5t-143.5 -56.5t-143.5 56.5t-53.5 140.5zM238 1356q0 -43 29.5 -74t74.5 -31t74.5 31t29.5 74t-29.5 73.5t-74.5 30.5t-74.5 -30.5t-29.5 -73.5z" />
<glyph unicode="&#x2db;" horiz-adv-x="681" d="M166 -188q0 68 29.5 115.5t85.5 97.5h122v-9q-31 -29 -54 -66.5t-23 -76.5q0 -47 26.5 -80t81.5 -33h66v-104q-68 -29 -125 -29q-86 0 -147.5 44t-61.5 141z" />
<glyph unicode="&#x2dc;" horiz-adv-x="681" d="M6 1268q0 92 43 152.5t131 60.5q39 0 75 -8.5t87 -24.5q88 -31 143 -31q51 0 58 64h133q0 -92 -43 -152.5t-131 -60.5q-39 0 -75 8t-87 24q-88 31 -143 31q-51 0 -58 -63h-133z" />
<glyph unicode="&#x2dd;" horiz-adv-x="681" d="M55 1210l127 271h199l2 -6l-172 -265h-156zM340 1210l127 271h199l2 -6l-172 -265h-156z" />
<glyph unicode="&#x309;" horiz-adv-x="0" d="M-508 1409v80q70 16 148 16q76 0 131 -27.5t55 -95.5q0 -51 -34 -80.5t-85 -33.5v-58h-115v125h27q59 0 59 37q0 20 -15 28.5t-48 8.5h-123z" />
<glyph unicode="&#x30f;" horiz-adv-x="0" d="M-627 1475l2 6h199l127 -271h-156zM-342 1475l2 6h199l127 -271h-156z" />
<glyph unicode="&#x311;" horiz-adv-x="0" d="M-639 1241q0 98 69.5 169t227.5 71t228.5 -71t70.5 -169h-125q-6 43 -46 76t-128 33q-147 0 -172 -109h-125z" />
<glyph unicode="&#x31b;" horiz-adv-x="0" d="M-602 887v114q117 14 186.5 58.5t89.5 124.5h-108v221h246v-111q0 -174 -104.5 -278.5t-309.5 -128.5z" />
<glyph unicode="&#x323;" horiz-adv-x="0" d="M-430 -160h178v-194h-178v194z" />
<glyph unicode="&#x326;" horiz-adv-x="0" d="M-317 -119h180v-172l-88 -180h-92l75 166h-75v186z" />
<glyph unicode="&#x328;" horiz-adv-x="0" d="M-516 -188q0 68 29.5 115.5t85.5 97.5h122v-9q-31 -29 -54 -66.5t-23 -76.5q0 -47 26.5 -80t81.5 -33h66v-104q-68 -29 -125 -29q-86 0 -147.5 44t-61.5 141zM-182 0z" />
<glyph unicode="&#x394;" horiz-adv-x="1366" d="M14 0l545 1405h248l545 -1405h-1338zM283 170h792l-67 184l-238 635l-88 238h-10l-88 -238l-236 -639z" />
<glyph unicode="&#x3a9;" horiz-adv-x="1531" d="M76 0v172h82q18 0 84 -4q61 -4 102 -4q-248 190 -248 538q0 358 176.5 543t493.5 185t493.5 -184.5t176.5 -543.5q0 -348 -252 -538q25 0 69 4q74 4 121 4h82v-172h-631v145q137 29 224.5 84.5t136.5 167t49 299.5q-2 301 -123 434.5t-346 133.5q-227 0 -348 -130 t-121 -421v-11q0 -190 48 -303.5t135 -169t225 -84.5v-145h-629z" />
<glyph unicode="&#x3bc;" horiz-adv-x="1179" d="M158 -354v1431h180v-723q0 -129 57.5 -179t165.5 -50q78 0 143.5 38t104.5 109.5t39 167.5v637h180v-1077h-137l-21 145h-14q-57 -86 -141 -128t-187 -42q-111 0 -190 50v-129v-250h-180z" />
<glyph unicode="&#x3c0;" horiz-adv-x="1413" d="M49 1016q90 61 369 61h932l-21 -149h-199v-609q0 -221 33 -319h-176q-18 25 -28.5 103.5t-10.5 197.5v627h-411q-16 -231 -63.5 -517t-104.5 -411h-181q62 158 111 439.5t53 488.5q-195 0 -272 -27z" />
<glyph unicode="&#x1e0c;" horiz-adv-x="1478" d="M162 0v1405h520q338 0 520 -173t182 -530q0 -356 -182 -529t-520 -173h-520zM162 0zM356 170h326q244 0 372 123t130 405v4q0 285 -128 409t-374 124h-326v-1065zM649 -160h178v-194h-178v194z" />
<glyph unicode="&#x1e0d;" d="M72 0zM72 539q0 283 109.5 423t299.5 140q115 0 195 -35t133 -113h12v527h180v-1481h-135l-22 145h-13q-53 -84 -140 -127t-193 -43q-205 0 -315.5 137.5t-110.5 426.5zM258 530q0 -152 28.5 -239.5t90 -126.5t166.5 -39q145 0 211.5 102.5t66.5 302.5v9q0 205 -67.5 309 t-210.5 104q-102 0 -165 -40t-91.5 -130t-28.5 -243v-9zM479 -160h178v-194h-178v194z" />
<glyph unicode="&#x1e24;" horiz-adv-x="1478" d="M162 0v1405h194v-602h766v602h195v-1405h-195v633h-766v-633h-194zM162 0zM649 -160h178v-194h-178v194z" />
<glyph unicode="&#x1e25;" d="M137 0v1481h180v-525h15q113 145 340 146q336 0 336 -367v-735h-181v723q0 129 -57 179t-166 50q-78 0 -143.5 -37.5t-104.5 -109.5t-39 -168v-637h-180zM137 0zM479 -160h178v-194h-178v194z" />
<glyph unicode="&#x1e44;" horiz-adv-x="1478" d="M162 0v1405h174l741 -979l49 -66l9 2v97v946h182v-1405h-166l-745 991l-54 72l-8 -2v-96v-965h-182zM162 0zM649 1583v195h178v-195h-178z" />
<glyph unicode="&#x1e45;" d="M137 0v1077h137l21 -145h14q119 170 363 170q162 0 249 -87t87 -280v-735h-181v723q0 129 -57 179t-166 50q-78 0 -143.5 -37.5t-104.5 -109.5t-39 -168v-637h-180zM137 0zM479 1286v195h178v-195h-178z" />
<glyph unicode="&#x1e5a;" horiz-adv-x="1478" d="M162 0v1405h731q211 0 323.5 -108.5t112.5 -290.5q0 -143 -68.5 -248t-189.5 -150l324 -608h-217l-306 580h-516v-580h-194zM162 0zM356 750h527q115 0 182.5 67.5t67.5 186.5q0 111 -63.5 171t-186.5 60h-527v-485zM649 -160h178v-194h-178v194z" />
<glyph unicode="&#x1e5b;" horiz-adv-x="681" d="M137 0v1077h137l21 -162h12q31 80 92.5 133.5t161.5 53.5q35 0 62.5 -7.5t33.5 -9.5v-174h-75q-115 0 -190 -66.5t-75 -207.5v-637h-180zM137 0zM137 -160h178v-194h-178v194z" />
<glyph unicode="&#x1e62;" horiz-adv-x="1366" d="M100 0zM100 397l2 41h193q0 -2 -2 -14t-2 -29q0 -125 103.5 -189.5t275.5 -64.5q193 0 295 60.5t102 173.5q0 76 -53 126t-134 78.5t-218 63.5q-170 43 -274.5 83t-178.5 119t-74 208q0 184 153.5 280.5t393.5 96.5t389.5 -97.5t149.5 -298.5v-24h-191v30q0 104 -95 164 t-247 60q-162 0 -259 -49.5t-97 -147.5q0 -72 52 -117t129 -72.5t214 -62.5q170 -43 277.5 -84t182.5 -120t75 -205q0 -225 -157 -328t-425 -103q-256 0 -418 102.5t-162 319.5zM594 -160h178v-194h-178v194z" />
<glyph unicode="&#x1e63;" horiz-adv-x="1024" d="M63 0zM63 291q0 25 1.5 34t1.5 11h178v-21q0 -96 75.5 -144t196.5 -48q104 0 173 42t69 118q0 59 -39 97t-96.5 59.5t-155.5 45.5q-119 31 -193.5 62t-127 91t-52.5 157q0 141 116 224t312 83q123 0 213 -40t136.5 -106.5t46.5 -148.5l-3 -39h-176v18q0 72 -56 119 t-181 47q-123 0 -172 -44t-49 -101q0 -47 34.5 -78t86 -49t143.5 -41q127 -33 206.5 -64.5t136 -96t56.5 -171.5q0 -166 -119.5 -249t-318.5 -83q-150 0 -249 44t-146.5 116t-47.5 156zM422 -160h178v-194h-178v194z" />
<glyph unicode="&#x1e6c;" horiz-adv-x="1251" d="M45 0zM45 1235v170h1161v-170h-483v-1235h-195v1235h-483zM537 -160h178v-194h-178v194z" />
<glyph unicode="&#x1e6d;" horiz-adv-x="569" d="M37 0zM37 928v149h133l39 299h139v-299h182v-149h-182v-707q0 -96 90 -96h92v-119q-27 -12 -69.5 -20.5t-79.5 -8.5q-111 0 -162 66t-51 162v723h-131zM217 -160h178v-194h-178v194z" />
<glyph unicode="&#x1e80;" horiz-adv-x="1933" d="M23 0zM23 1405h204l283 -991q14 -53 30.5 -121t22.5 -94h10l41 215l217 991h279l225 -991l43 -215h11q6 27 23.5 94t31.5 121l272 991h195l-406 -1405h-268l-221 985q-16 74 -29.5 140.5t-17.5 88.5h-11q-4 -25 -15 -93t-25 -136l-222 -985h-268zM668 1772l2 6h196 l176 -271h-153z" />
<glyph unicode="&#x1e81;" horiz-adv-x="1478" d="M10 0zM10 1077h187l165 -610q16 -63 36 -143t28 -111h10l53 254l142 610h219l149 -610q14 -63 32 -143t24 -111h10q6 31 24.5 108.5t36.5 145.5l164 610h176l-323 -1077h-197l-155 643l-50 221h-8q-6 -27 -19.5 -94.5t-27.5 -126.5l-154 -643h-198zM441 1475l2 6h196 l176 -271h-153z" />
<glyph unicode="&#x1e82;" horiz-adv-x="1933" d="M23 0zM23 1405h204l283 -991q14 -53 30.5 -121t22.5 -94h10l41 215l217 991h279l225 -991l43 -215h11q6 27 23.5 94t31.5 121l272 991h195l-406 -1405h-268l-221 985q-16 74 -29.5 140.5t-17.5 88.5h-11q-4 -25 -15 -93t-25 -136l-222 -985h-268zM889 1507l176 271h196 l2 -6l-221 -265h-153z" />
<glyph unicode="&#x1e83;" horiz-adv-x="1478" d="M10 0zM10 1077h187l165 -610q16 -63 36 -143t28 -111h10l53 254l142 610h219l149 -610q14 -63 32 -143t24 -111h10q6 31 24.5 108.5t36.5 145.5l164 610h176l-323 -1077h-197l-155 643l-50 221h-8q-6 -27 -19.5 -94.5t-27.5 -126.5l-154 -643h-198zM662 1210l176 271h196 l2 -6l-221 -265h-153z" />
<glyph unicode="&#x1e84;" horiz-adv-x="1933" d="M23 0zM23 1405h204l283 -991q14 -53 30.5 -121t22.5 -94h10l41 215l217 991h279l225 -991l43 -215h11q6 27 23.5 94t31.5 121l272 991h195l-406 -1405h-268l-221 985q-16 74 -29.5 140.5t-17.5 88.5h-11q-4 -25 -15 -93t-25 -136l-222 -985h-268zM686 1583v195h179v-195 h-179zM1069 1583v195h179v-195h-179z" />
<glyph unicode="&#x1e85;" horiz-adv-x="1478" d="M10 0zM10 1077h187l165 -610q16 -63 36 -143t28 -111h10l53 254l142 610h219l149 -610q14 -63 32 -143t24 -111h10q6 31 24.5 108.5t36.5 145.5l164 610h176l-323 -1077h-197l-155 643l-50 221h-8q-6 -27 -19.5 -94.5t-27.5 -126.5l-154 -643h-198zM458 1286v195h179 v-195h-179zM841 1286v195h179v-195h-179z" />
<glyph unicode="&#x1e92;" horiz-adv-x="1251" d="M47 0v100l844 1135h-791v170h1088v-100l-846 -1135h864v-170h-1159zM47 0zM537 -160h178v-194h-178v194z" />
<glyph unicode="&#x1e93;" horiz-adv-x="1024" d="M49 0v96l625 832h-582v149h846v-94l-627 -833h662v-150h-924zM49 0zM422 -160h178v-194h-178v194z" />
<glyph unicode="&#x1e9e;" horiz-adv-x="1572" d="M162 0v862q0 276 172 422t469 146q174 0 305 -49.5t202.5 -140.5t71.5 -210q0 -109 -53 -194.5t-133 -116.5v-8q121 -31 188.5 -116t67.5 -212q0 -109 -50 -196t-144.5 -137t-221.5 -50h-454v170h428q113 0 178 66.5t65 156.5q0 96 -75.5 156.5t-208.5 60.5h-387v170h381 q98 0 159.5 63.5t61.5 168.5q0 119 -89 185.5t-274 66.5q-223 0 -344 -103.5t-121 -312.5v-848h-194z" />
<glyph unicode="&#x1ea0;" horiz-adv-x="1366" d="M14 0l545 1405h248l545 -1405h-207l-141 375h-652l-137 -375h-201zM14 0zM416 545h524l-164 438l-94 254h-10l-92 -250zM594 -160h178v-194h-178v194z" />
<glyph unicode="&#x1ea1;" d="M74 0zM74 279q0 207 184 283.5t533 76.5v119q0 94 -53.5 144t-192.5 50q-131 0 -187.5 -49t-56.5 -121v-24h-174q-2 12 -2 45q0 143 118.5 221t317.5 78q201 0 305.5 -84t104.5 -238v-583q0 -37 20.5 -54.5t50.5 -17.5h82v-117q-53 -25 -139 -24q-70 0 -117 42t-63 111 h-14q-55 -76 -150.5 -119t-210.5 -43q-139 0 -247.5 65.5t-108.5 238.5zM262 289q0 -88 54.5 -126t160.5 -38q80 0 151.5 32.5t117 97t45.5 157.5v77q-264 0 -396.5 -41.5t-132.5 -158.5zM479 -160h178v-194h-178v194z" />
<glyph unicode="&#x1ea2;" horiz-adv-x="1366" d="M14 0l545 1405h248l545 -1405h-207l-141 375h-652l-137 -375h-201zM14 0zM416 545h524l-164 438l-94 254h-10l-92 -250zM526 1706v80q70 16 148 16q76 0 131 -27.5t55 -95.5q0 -51 -34 -80.5t-85 -33.5v-58h-115v125h27q59 0 59 37q0 20 -15 28.5t-48 8.5h-123z" />
<glyph unicode="&#x1ea3;" d="M74 0zM74 279q0 207 184 283.5t533 76.5v119q0 94 -53.5 144t-192.5 50q-131 0 -187.5 -49t-56.5 -121v-24h-174q-2 12 -2 45q0 143 118.5 221t317.5 78q201 0 305.5 -84t104.5 -238v-583q0 -37 20.5 -54.5t50.5 -17.5h82v-117q-53 -25 -139 -24q-70 0 -117 42t-63 111 h-14q-55 -76 -150.5 -119t-210.5 -43q-139 0 -247.5 65.5t-108.5 238.5zM262 289q0 -88 54.5 -126t160.5 -38q80 0 151.5 32.5t117 97t45.5 157.5v77q-264 0 -396.5 -41.5t-132.5 -158.5zM412 1409v80q70 16 148 16q76 0 131 -27.5t55 -95.5q0 -51 -34 -80.5t-85 -33.5v-58 h-115v125h27q59 0 59 37q0 20 -15 28.5t-48 8.5h-123z" />
<glyph unicode="&#x1ea4;" horiz-adv-x="1366" d="M14 0l545 1405h248l545 -1405h-207l-141 375h-652l-137 -375h-201zM14 0zM381 1501l217 277h172l215 -277h-184l-117 162l-119 -162h-184zM416 545h524l-164 438l-94 254h-10l-92 -250zM877 1702l176 271h196l2 -6l-221 -265h-153z" />
<glyph unicode="&#x1ea5;" d="M74 0zM74 279q0 207 184 283.5t533 76.5v119q0 94 -53.5 144t-192.5 50q-131 0 -187.5 -49t-56.5 -121v-24h-174q-2 12 -2 45q0 143 118.5 221t317.5 78q201 0 305.5 -84t104.5 -238v-583q0 -37 20.5 -54.5t50.5 -17.5h82v-117q-53 -25 -139 -24q-70 0 -117 42t-63 111 h-14q-55 -76 -150.5 -119t-210.5 -43q-139 0 -247.5 65.5t-108.5 238.5zM262 289q0 -88 54.5 -126t160.5 -38q80 0 151.5 32.5t117 97t45.5 157.5v77q-264 0 -396.5 -41.5t-132.5 -158.5zM266 1204l217 277h172l215 -277h-184l-117 162l-119 -162h-184zM762 1405l176 271 h196l2 -6l-221 -265h-153z" />
<glyph unicode="&#x1ea6;" horiz-adv-x="1366" d="M14 0l545 1405h248l545 -1405h-207l-141 375h-652l-137 -375h-201zM14 0zM381 1501l217 277h172l215 -277h-184l-117 162l-119 -162h-184zM416 545h524l-164 438l-94 254h-10l-92 -250zM738 1967l2 6h196l176 -271h-153z" />
<glyph unicode="&#x1ea7;" d="M74 0zM74 279q0 207 184 283.5t533 76.5v119q0 94 -53.5 144t-192.5 50q-131 0 -187.5 -49t-56.5 -121v-24h-174q-2 12 -2 45q0 143 118.5 221t317.5 78q201 0 305.5 -84t104.5 -238v-583q0 -37 20.5 -54.5t50.5 -17.5h82v-117q-53 -25 -139 -24q-70 0 -117 42t-63 111 h-14q-55 -76 -150.5 -119t-210.5 -43q-139 0 -247.5 65.5t-108.5 238.5zM262 289q0 -88 54.5 -126t160.5 -38q80 0 151.5 32.5t117 97t45.5 157.5v77q-264 0 -396.5 -41.5t-132.5 -158.5zM266 1204l217 277h172l215 -277h-184l-117 162l-119 -162h-184zM623 1670l2 6h196 l176 -271h-153z" />
<glyph unicode="&#x1ea8;" horiz-adv-x="1366" d="M14 0l545 1405h248l545 -1405h-207l-141 375h-652l-137 -375h-201zM14 0zM381 1501l217 277h172l215 -277h-184l-117 162l-119 -162h-184zM416 545h524l-164 438l-94 254h-10l-92 -250zM797 1901v80q70 16 148 16q76 0 131 -27.5t55 -95.5q0 -51 -34 -80.5t-85 -33.5v-58 h-115v125h27q59 0 59 37q0 20 -15 28.5t-48 8.5h-123z" />
<glyph unicode="&#x1ea9;" d="M74 0zM74 279q0 207 184 283.5t533 76.5v119q0 94 -53.5 144t-192.5 50q-131 0 -187.5 -49t-56.5 -121v-24h-174q-2 12 -2 45q0 143 118.5 221t317.5 78q201 0 305.5 -84t104.5 -238v-583q0 -37 20.5 -54.5t50.5 -17.5h82v-117q-53 -25 -139 -24q-70 0 -117 42t-63 111 h-14q-55 -76 -150.5 -119t-210.5 -43q-139 0 -247.5 65.5t-108.5 238.5zM262 289q0 -88 54.5 -126t160.5 -38q80 0 151.5 32.5t117 97t45.5 157.5v77q-264 0 -396.5 -41.5t-132.5 -158.5zM266 1204l217 277h172l215 -277h-184l-117 162l-119 -162h-184zM682 1604v80 q70 16 148 16q76 0 131 -27.5t55 -95.5q0 -51 -34 -80.5t-85 -33.5v-58h-115v125h27q59 0 59 37q0 20 -15 28.5t-48 8.5h-123z" />
<glyph unicode="&#x1eaa;" horiz-adv-x="1366" d="M14 0l545 1405h248l545 -1405h-207l-141 375h-652l-137 -375h-201zM14 0zM352 1893q0 92 43 152.5t131 60.5q39 0 75 -8.5t87 -24.5q88 -31 143 -31q51 0 58 64h133q0 -92 -43 -152.5t-131 -60.5q-39 0 -75 8t-87 24q-88 31 -143 31q-51 0 -58 -63h-133zM381 1501 l217 277h172l215 -277h-184l-117 162l-119 -162h-184zM416 545h524l-164 438l-94 254h-10l-92 -250z" />
<glyph unicode="&#x1eab;" d="M74 0zM74 279q0 207 184 283.5t533 76.5v119q0 94 -53.5 144t-192.5 50q-131 0 -187.5 -49t-56.5 -121v-24h-174q-2 12 -2 45q0 143 118.5 221t317.5 78q201 0 305.5 -84t104.5 -238v-583q0 -37 20.5 -54.5t50.5 -17.5h82v-117q-53 -25 -139 -24q-70 0 -117 42t-63 111 h-14q-55 -76 -150.5 -119t-210.5 -43q-139 0 -247.5 65.5t-108.5 238.5zM237 1596q0 92 43 152.5t131 60.5q39 0 75 -8.5t87 -24.5q88 -31 143 -31q51 0 58 64h133q0 -92 -43 -152.5t-131 -60.5q-39 0 -75 8t-87 24q-88 31 -143 31q-51 0 -58 -63h-133zM262 289 q0 -88 54.5 -126t160.5 -38q80 0 151.5 32.5t117 97t45.5 157.5v77q-264 0 -396.5 -41.5t-132.5 -158.5zM266 1204l217 277h172l215 -277h-184l-117 162l-119 -162h-184z" />
<glyph unicode="&#x1eac;" horiz-adv-x="1366" d="M14 0l545 1405h248l545 -1405h-207l-141 375h-652l-137 -375h-201zM14 0zM381 1501l217 277h172l215 -277h-184l-117 162l-119 -162h-184zM416 545h524l-164 438l-94 254h-10l-92 -250zM594 -160h178v-194h-178v194z" />
<glyph unicode="&#x1ead;" d="M74 0zM74 279q0 207 184 283.5t533 76.5v119q0 94 -53.5 144t-192.5 50q-131 0 -187.5 -49t-56.5 -121v-24h-174q-2 12 -2 45q0 143 118.5 221t317.5 78q201 0 305.5 -84t104.5 -238v-583q0 -37 20.5 -54.5t50.5 -17.5h82v-117q-53 -25 -139 -24q-70 0 -117 42t-63 111 h-14q-55 -76 -150.5 -119t-210.5 -43q-139 0 -247.5 65.5t-108.5 238.5zM262 289q0 -88 54.5 -126t160.5 -38q80 0 151.5 32.5t117 97t45.5 157.5v77q-264 0 -396.5 -41.5t-132.5 -158.5zM266 1204l217 277h172l215 -277h-184l-117 162l-119 -162h-184zM479 -160h178v-194 h-178v194z" />
<glyph unicode="&#x1eae;" horiz-adv-x="1366" d="M14 0l545 1405h248l545 -1405h-207l-141 375h-652l-137 -375h-201zM14 0zM385 1778h125q25 -109 172 -109q88 0 128 33t46 76h125q0 -98 -70.5 -169t-228.5 -71t-227.5 70.5t-69.5 169.5zM416 545h524l-164 438l-94 254h-10l-92 -250zM607 1777l176 271h196l2 -6 l-221 -265h-153z" />
<glyph unicode="&#x1eaf;" d="M74 0zM74 279q0 207 184 283.5t533 76.5v119q0 94 -53.5 144t-192.5 50q-131 0 -187.5 -49t-56.5 -121v-24h-174q-2 12 -2 45q0 143 118.5 221t317.5 78q201 0 305.5 -84t104.5 -238v-583q0 -37 20.5 -54.5t50.5 -17.5h82v-117q-53 -25 -139 -24q-70 0 -117 42t-63 111 h-14q-55 -76 -150.5 -119t-210.5 -43q-139 0 -247.5 65.5t-108.5 238.5zM262 289q0 -88 54.5 -126t160.5 -38q80 0 151.5 32.5t117 97t45.5 157.5v77q-264 0 -396.5 -41.5t-132.5 -158.5zM270 1481h125q25 -109 172 -109q88 0 128 33t46 76h125q0 -98 -70.5 -169t-228.5 -71 t-227.5 70.5t-69.5 169.5zM492 1480l176 271h196l2 -6l-221 -265h-153z" />
<glyph unicode="&#x1eb0;" horiz-adv-x="1366" d="M14 0l545 1405h248l545 -1405h-207l-141 375h-652l-137 -375h-201zM14 0zM379 2042l2 6h196l176 -271h-153zM385 1778h125q25 -109 172 -109q88 0 128 33t46 76h125q0 -98 -70.5 -169t-228.5 -71t-227.5 70.5t-69.5 169.5zM416 545h524l-164 438l-94 254h-10l-92 -250z " />
<glyph unicode="&#x1eb1;" d="M74 0zM74 279q0 207 184 283.5t533 76.5v119q0 94 -53.5 144t-192.5 50q-131 0 -187.5 -49t-56.5 -121v-24h-174q-2 12 -2 45q0 143 118.5 221t317.5 78q201 0 305.5 -84t104.5 -238v-583q0 -37 20.5 -54.5t50.5 -17.5h82v-117q-53 -25 -139 -24q-70 0 -117 42t-63 111 h-14q-55 -76 -150.5 -119t-210.5 -43q-139 0 -247.5 65.5t-108.5 238.5zM262 289q0 -88 54.5 -126t160.5 -38q80 0 151.5 32.5t117 97t45.5 157.5v77q-264 0 -396.5 -41.5t-132.5 -158.5zM270 1481h125q25 -109 172 -109q88 0 128 33t46 76h125q0 -98 -70.5 -169t-228.5 -71 t-227.5 70.5t-69.5 169.5zM275 1745l2 6h196l176 -271h-153z" />
<glyph unicode="&#x1eb2;" horiz-adv-x="1366" d="M14 0l545 1405h248l545 -1405h-207l-141 375h-652l-137 -375h-201zM14 0zM385 1778h125q25 -109 172 -109q88 0 128 33t46 76h125q0 -98 -70.5 -169t-228.5 -71t-227.5 70.5t-69.5 169.5zM416 545h524l-164 438l-94 254h-10l-92 -250zM526 1976v80q70 16 148 16 q76 0 131 -27.5t55 -95.5q0 -51 -34 -80.5t-85 -33.5v-58h-115v125h27q59 0 59 37q0 20 -15 28.5t-48 8.5h-123z" />
<glyph unicode="&#x1eb3;" d="M74 0zM74 279q0 207 184 283.5t533 76.5v119q0 94 -53.5 144t-192.5 50q-131 0 -187.5 -49t-56.5 -121v-24h-174q-2 12 -2 45q0 143 118.5 221t317.5 78q201 0 305.5 -84t104.5 -238v-583q0 -37 20.5 -54.5t50.5 -17.5h82v-117q-53 -25 -139 -24q-70 0 -117 42t-63 111 h-14q-55 -76 -150.5 -119t-210.5 -43q-139 0 -247.5 65.5t-108.5 238.5zM262 289q0 -88 54.5 -126t160.5 -38q80 0 151.5 32.5t117 97t45.5 157.5v77q-264 0 -396.5 -41.5t-132.5 -158.5zM270 1481h125q25 -109 172 -109q88 0 128 33t46 76h125q0 -98 -70.5 -169t-228.5 -71 t-227.5 70.5t-69.5 169.5zM412 1679v80q70 16 148 16q76 0 131 -27.5t55 -95.5q0 -51 -34 -80.5t-85 -33.5v-58h-115v125h27q59 0 59 37q0 20 -15 28.5t-48 8.5h-123z" />
<glyph unicode="&#x1eb4;" horiz-adv-x="1366" d="M14 0l545 1405h248l545 -1405h-207l-141 375h-652l-137 -375h-201zM14 0zM352 1893q0 92 43 152.5t131 60.5q39 0 75 -8.5t87 -24.5q88 -31 143 -31q51 0 58 64h133q0 -92 -43 -152.5t-131 -60.5q-39 0 -75 8t-87 24q-88 31 -143 31q-51 0 -58 -63h-133zM385 1778h125 q25 -109 172 -109q88 0 128 33t46 76h125q0 -98 -70.5 -169t-228.5 -71t-227.5 70.5t-69.5 169.5zM416 545h524l-164 438l-94 254h-10l-92 -250z" />
<glyph unicode="&#x1eb5;" d="M74 0zM74 279q0 207 184 283.5t533 76.5v119q0 94 -53.5 144t-192.5 50q-131 0 -187.5 -49t-56.5 -121v-24h-174q-2 12 -2 45q0 143 118.5 221t317.5 78q201 0 305.5 -84t104.5 -238v-583q0 -37 20.5 -54.5t50.5 -17.5h82v-117q-53 -25 -139 -24q-70 0 -117 42t-63 111 h-14q-55 -76 -150.5 -119t-210.5 -43q-139 0 -247.5 65.5t-108.5 238.5zM237 1596q0 92 43 152.5t131 60.5q39 0 75 -8.5t87 -24.5q88 -31 143 -31q51 0 58 64h133q0 -92 -43 -152.5t-131 -60.5q-39 0 -75 8t-87 24q-88 31 -143 31q-51 0 -58 -63h-133zM262 289 q0 -88 54.5 -126t160.5 -38q80 0 151.5 32.5t117 97t45.5 157.5v77q-264 0 -396.5 -41.5t-132.5 -158.5zM270 1481h125q25 -109 172 -109q88 0 128 33t46 76h125q0 -98 -70.5 -169t-228.5 -71t-227.5 70.5t-69.5 169.5z" />
<glyph unicode="&#x1eb6;" horiz-adv-x="1366" d="M14 0l545 1405h248l545 -1405h-207l-141 375h-652l-137 -375h-201zM14 0zM385 1778h125q25 -109 172 -109q88 0 128 33t46 76h125q0 -98 -70.5 -169t-228.5 -71t-227.5 70.5t-69.5 169.5zM416 545h524l-164 438l-94 254h-10l-92 -250zM594 -160h178v-194h-178v194z" />
<glyph unicode="&#x1eb7;" d="M74 0zM74 279q0 207 184 283.5t533 76.5v119q0 94 -53.5 144t-192.5 50q-131 0 -187.5 -49t-56.5 -121v-24h-174q-2 12 -2 45q0 143 118.5 221t317.5 78q201 0 305.5 -84t104.5 -238v-583q0 -37 20.5 -54.5t50.5 -17.5h82v-117q-53 -25 -139 -24q-70 0 -117 42t-63 111 h-14q-55 -76 -150.5 -119t-210.5 -43q-139 0 -247.5 65.5t-108.5 238.5zM262 289q0 -88 54.5 -126t160.5 -38q80 0 151.5 32.5t117 97t45.5 157.5v77q-264 0 -396.5 -41.5t-132.5 -158.5zM270 1481h125q25 -109 172 -109q88 0 128 33t46 76h125q0 -98 -70.5 -169t-228.5 -71 t-227.5 70.5t-69.5 169.5zM479 -160h178v-194h-178v194z" />
<glyph unicode="&#x1eb8;" horiz-adv-x="1366" d="M162 0v1405h1081v-170h-887v-432h797v-170h-797v-463h899v-170h-1093zM162 0zM594 -160h178v-194h-178v194z" />
<glyph unicode="&#x1eb9;" d="M80 0zM80 539q0 289 127 426t387 137q233 0 349 -124t116 -398v-91h-793q10 -186 89 -275t239 -89q129 0 209 59.5t80 182.5h176q0 -188 -130 -290t-335 -102q-260 0 -387 137.5t-127 426.5zM270 639h600q0 313 -276 313q-154 0 -230.5 -73.5t-93.5 -239.5zM479 -160h178 v-194h-178v194z" />
<glyph unicode="&#x1eba;" horiz-adv-x="1366" d="M162 0v1405h1081v-170h-887v-432h797v-170h-797v-463h899v-170h-1093zM162 0zM526 1706v80q70 16 148 16q76 0 131 -27.5t55 -95.5q0 -51 -34 -80.5t-85 -33.5v-58h-115v125h27q59 0 59 37q0 20 -15 28.5t-48 8.5h-123z" />
<glyph unicode="&#x1ebb;" d="M80 0zM80 539q0 289 127 426t387 137q233 0 349 -124t116 -398v-91h-793q10 -186 89 -275t239 -89q129 0 209 59.5t80 182.5h176q0 -188 -130 -290t-335 -102q-260 0 -387 137.5t-127 426.5zM270 639h600q0 313 -276 313q-154 0 -230.5 -73.5t-93.5 -239.5zM412 1409v80 q70 16 148 16q76 0 131 -27.5t55 -95.5q0 -51 -34 -80.5t-85 -33.5v-58h-115v125h27q59 0 59 37q0 20 -15 28.5t-48 8.5h-123z" />
<glyph unicode="&#x1ebc;" horiz-adv-x="1366" d="M162 0v1405h1081v-170h-887v-432h797v-170h-797v-463h899v-170h-1093zM162 0zM348 1565q0 92 43 152.5t131 60.5q39 0 75 -8.5t87 -24.5q88 -31 143 -31q51 0 58 64h133q0 -92 -43 -152.5t-131 -60.5q-39 0 -75 8t-87 24q-88 31 -143 31q-51 0 -58 -63h-133z" />
<glyph unicode="&#x1ebd;" d="M80 0zM80 539q0 289 127 426t387 137q233 0 349 -124t116 -398v-91h-793q10 -186 89 -275t239 -89q129 0 209 59.5t80 182.5h176q0 -188 -130 -290t-335 -102q-260 0 -387 137.5t-127 426.5zM233 1268q0 92 43 152.5t131 60.5q39 0 75 -8.5t87 -24.5q88 -31 143 -31 q51 0 58 64h133q0 -92 -43 -152.5t-131 -60.5q-39 0 -75 8t-87 24q-88 31 -143 31q-51 0 -58 -63h-133zM270 639h600q0 313 -276 313q-154 0 -230.5 -73.5t-93.5 -239.5z" />
<glyph unicode="&#x1ebe;" horiz-adv-x="1366" d="M162 0v1405h1081v-170h-887v-432h797v-170h-797v-463h899v-170h-1093zM162 0zM381 1501l217 277h172l215 -277h-184l-117 162l-119 -162h-184zM877 1702l176 271h196l2 -6l-221 -265h-153z" />
<glyph unicode="&#x1ebf;" d="M80 0zM80 539q0 289 127 426t387 137q233 0 349 -124t116 -398v-91h-793q10 -186 89 -275t239 -89q129 0 209 59.5t80 182.5h176q0 -188 -130 -290t-335 -102q-260 0 -387 137.5t-127 426.5zM266 1204l217 277h172l215 -277h-184l-117 162l-119 -162h-184zM270 639h600 q0 313 -276 313q-154 0 -230.5 -73.5t-93.5 -239.5zM762 1405l176 271h196l2 -6l-221 -265h-153z" />
<glyph unicode="&#x1ec0;" horiz-adv-x="1366" d="M162 0v1405h1081v-170h-887v-432h797v-170h-797v-463h899v-170h-1093zM162 0zM381 1501l217 277h172l215 -277h-184l-117 162l-119 -162h-184zM738 1967l2 6h196l176 -271h-153z" />
<glyph unicode="&#x1ec1;" d="M80 0zM80 539q0 289 127 426t387 137q233 0 349 -124t116 -398v-91h-793q10 -186 89 -275t239 -89q129 0 209 59.5t80 182.5h176q0 -188 -130 -290t-335 -102q-260 0 -387 137.5t-127 426.5zM266 1204l217 277h172l215 -277h-184l-117 162l-119 -162h-184zM270 639h600 q0 313 -276 313q-154 0 -230.5 -73.5t-93.5 -239.5zM623 1670l2 6h196l176 -271h-153z" />
<glyph unicode="&#x1ec2;" horiz-adv-x="1366" d="M162 0v1405h1081v-170h-887v-432h797v-170h-797v-463h899v-170h-1093zM162 0zM381 1501l217 277h172l215 -277h-184l-117 162l-119 -162h-184zM797 1901v80q70 16 148 16q76 0 131 -27.5t55 -95.5q0 -51 -34 -80.5t-85 -33.5v-58h-115v125h27q59 0 59 37q0 20 -15 28.5 t-48 8.5h-123z" />
<glyph unicode="&#x1ec3;" d="M80 0zM80 539q0 289 127 426t387 137q233 0 349 -124t116 -398v-91h-793q10 -186 89 -275t239 -89q129 0 209 59.5t80 182.5h176q0 -188 -130 -290t-335 -102q-260 0 -387 137.5t-127 426.5zM266 1204l217 277h172l215 -277h-184l-117 162l-119 -162h-184zM270 639h600 q0 313 -276 313q-154 0 -230.5 -73.5t-93.5 -239.5zM682 1604v80q70 16 148 16q76 0 131 -27.5t55 -95.5q0 -51 -34 -80.5t-85 -33.5v-58h-115v125h27q59 0 59 37q0 20 -15 28.5t-48 8.5h-123z" />
<glyph unicode="&#x1ec4;" horiz-adv-x="1366" d="M162 0v1405h1081v-170h-887v-432h797v-170h-797v-463h899v-170h-1093zM162 0zM352 1893q0 92 43 152.5t131 60.5q39 0 75 -8.5t87 -24.5q88 -31 143 -31q51 0 58 64h133q0 -92 -43 -152.5t-131 -60.5q-39 0 -75 8t-87 24q-88 31 -143 31q-51 0 -58 -63h-133zM381 1501 l217 277h172l215 -277h-184l-117 162l-119 -162h-184z" />
<glyph unicode="&#x1ec5;" d="M80 0zM80 539q0 289 127 426t387 137q233 0 349 -124t116 -398v-91h-793q10 -186 89 -275t239 -89q129 0 209 59.5t80 182.5h176q0 -188 -130 -290t-335 -102q-260 0 -387 137.5t-127 426.5zM237 1596q0 92 43 152.5t131 60.5q39 0 75 -8.5t87 -24.5q88 -31 143 -31 q51 0 58 64h133q0 -92 -43 -152.5t-131 -60.5q-39 0 -75 8t-87 24q-88 31 -143 31q-51 0 -58 -63h-133zM266 1204l217 277h172l215 -277h-184l-117 162l-119 -162h-184zM270 639h600q0 313 -276 313q-154 0 -230.5 -73.5t-93.5 -239.5z" />
<glyph unicode="&#x1ec6;" horiz-adv-x="1366" d="M162 0v1405h1081v-170h-887v-432h797v-170h-797v-463h899v-170h-1093zM162 0zM381 1501l217 277h172l215 -277h-184l-117 162l-119 -162h-184zM594 -160h178v-194h-178v194z" />
<glyph unicode="&#x1ec7;" d="M80 0zM80 539q0 289 127 426t387 137q233 0 349 -124t116 -398v-91h-793q10 -186 89 -275t239 -89q129 0 209 59.5t80 182.5h176q0 -188 -130 -290t-335 -102q-260 0 -387 137.5t-127 426.5zM266 1204l217 277h172l215 -277h-184l-117 162l-119 -162h-184zM270 639h600 q0 313 -276 313q-154 0 -230.5 -73.5t-93.5 -239.5zM479 -160h178v-194h-178v194z" />
<glyph unicode="&#x1ec8;" horiz-adv-x="569" d="M127 0zM127 1706v80q70 16 148 16q76 0 131 -27.5t55 -95.5q0 -51 -34 -80.5t-85 -33.5v-58h-115v125h27q59 0 59 37q0 20 -15 28.5t-48 8.5h-123zM188 0v1405h195v-1405h-195z" />
<glyph unicode="&#x1ec9;" horiz-adv-x="569" d="M127 0zM127 1409v80q70 16 148 16q76 0 131 -27.5t55 -95.5q0 -51 -34 -80.5t-85 -33.5v-58h-115v125h27q59 0 59 37q0 20 -15 28.5t-48 8.5h-123zM195 0v1077h180v-1077h-180z" />
<glyph unicode="&#x1eca;" horiz-adv-x="569" d="M188 0v1405h195v-1405h-195zM188 0zM195 -160h178v-194h-178v194z" />
<glyph unicode="&#x1ecb;" horiz-adv-x="454" d="M137 0v1077h180v-1077h-180zM137 0zM137 -160h178v-194h-178v194zM137 1280v201h180v-201h-180z" />
<glyph unicode="&#x1ecc;" horiz-adv-x="1593" d="M96 0zM96 702q0 360 183.5 544t517.5 184q336 0 519 -183.5t183 -544.5q0 -358 -183 -542.5t-519 -184.5q-334 0 -517.5 183.5t-183.5 543.5zM297 694q0 -289 129 -421t371 -132q243 0 372 132.5t129 420.5v8q-2 293 -131 427.5t-370 134.5q-240 0 -369 -134.5 t-131 -427.5v-8zM707 -160h178v-194h-178v194z" />
<glyph unicode="&#x1ecd;" d="M72 0zM72 539q0 287 125 425t372 138q248 0 373 -138.5t125 -424.5q0 -287 -125 -425.5t-373 -138.5q-247 0 -372 138.5t-125 425.5zM258 530q0 -215 74 -310t237 -95q164 0 238 95t74 310v17q0 215 -74 310t-238 95t-237.5 -95t-73.5 -310v-17zM479 -160h178v-194h-178 v194z" />
<glyph unicode="&#x1ece;" horiz-adv-x="1593" d="M96 0zM96 702q0 360 183.5 544t517.5 184q336 0 519 -183.5t183 -544.5q0 -358 -183 -542.5t-519 -184.5q-334 0 -517.5 183.5t-183.5 543.5zM297 694q0 -289 129 -421t371 -132q243 0 372 132.5t129 420.5v8q-2 293 -131 427.5t-370 134.5q-240 0 -369 -134.5 t-131 -427.5v-8zM639 1706v80q70 16 148 16q76 0 131 -27.5t55 -95.5q0 -51 -34 -80.5t-85 -33.5v-58h-115v125h27q59 0 59 37q0 20 -15 28.5t-48 8.5h-123z" />
<glyph unicode="&#x1ecf;" d="M72 0zM72 539q0 287 125 425t372 138q248 0 373 -138.5t125 -424.5q0 -287 -125 -425.5t-373 -138.5q-247 0 -372 138.5t-125 425.5zM258 530q0 -215 74 -310t237 -95q164 0 238 95t74 310v17q0 215 -74 310t-238 95t-237.5 -95t-73.5 -310v-17zM412 1409v80 q70 16 148 16q76 0 131 -27.5t55 -95.5q0 -51 -34 -80.5t-85 -33.5v-58h-115v125h27q59 0 59 37q0 20 -15 28.5t-48 8.5h-123z" />
<glyph unicode="&#x1ed0;" horiz-adv-x="1593" d="M96 0zM96 702q0 360 183.5 544t517.5 184q336 0 519 -183.5t183 -544.5q0 -358 -183 -542.5t-519 -184.5q-334 0 -517.5 183.5t-183.5 543.5zM297 694q0 -289 129 -421t371 -132q243 0 372 132.5t129 420.5v8q-2 293 -131 427.5t-370 134.5q-240 0 -369 -134.5 t-131 -427.5v-8zM494 1501l217 277h172l215 -277h-184l-117 162l-119 -162h-184zM990 1702l176 271h196l2 -6l-221 -265h-153z" />
<glyph unicode="&#x1ed1;" d="M72 0zM72 539q0 287 125 425t372 138q248 0 373 -138.5t125 -424.5q0 -287 -125 -425.5t-373 -138.5q-247 0 -372 138.5t-125 425.5zM258 530q0 -215 74 -310t237 -95q164 0 238 95t74 310v17q0 215 -74 310t-238 95t-237.5 -95t-73.5 -310v-17zM266 1204l217 277h172 l215 -277h-184l-117 162l-119 -162h-184zM762 1405l176 271h196l2 -6l-221 -265h-153z" />
<glyph unicode="&#x1ed2;" horiz-adv-x="1593" d="M96 0zM96 702q0 360 183.5 544t517.5 184q336 0 519 -183.5t183 -544.5q0 -358 -183 -542.5t-519 -184.5q-334 0 -517.5 183.5t-183.5 543.5zM297 694q0 -289 129 -421t371 -132q243 0 372 132.5t129 420.5v8q-2 293 -131 427.5t-370 134.5q-240 0 -369 -134.5 t-131 -427.5v-8zM494 1501l217 277h172l215 -277h-184l-117 162l-119 -162h-184zM850 1967l2 6h196l176 -271h-153z" />
<glyph unicode="&#x1ed3;" d="M72 0zM72 539q0 287 125 425t372 138q248 0 373 -138.5t125 -424.5q0 -287 -125 -425.5t-373 -138.5q-247 0 -372 138.5t-125 425.5zM258 530q0 -215 74 -310t237 -95q164 0 238 95t74 310v17q0 215 -74 310t-238 95t-237.5 -95t-73.5 -310v-17zM266 1204l217 277h172 l215 -277h-184l-117 162l-119 -162h-184zM623 1670l2 6h196l176 -271h-153z" />
<glyph unicode="&#x1ed4;" horiz-adv-x="1593" d="M96 0zM96 702q0 360 183.5 544t517.5 184q336 0 519 -183.5t183 -544.5q0 -358 -183 -542.5t-519 -184.5q-334 0 -517.5 183.5t-183.5 543.5zM297 694q0 -289 129 -421t371 -132q243 0 372 132.5t129 420.5v8q-2 293 -131 427.5t-370 134.5q-240 0 -369 -134.5 t-131 -427.5v-8zM494 1501l217 277h172l215 -277h-184l-117 162l-119 -162h-184zM909 1901v80q70 16 148 16q76 0 131 -27.5t55 -95.5q0 -51 -34 -80.5t-85 -33.5v-58h-115v125h27q59 0 59 37q0 20 -15 28.5t-48 8.5h-123z" />
<glyph unicode="&#x1ed5;" d="M72 0zM72 539q0 287 125 425t372 138q248 0 373 -138.5t125 -424.5q0 -287 -125 -425.5t-373 -138.5q-247 0 -372 138.5t-125 425.5zM258 530q0 -215 74 -310t237 -95q164 0 238 95t74 310v17q0 215 -74 310t-238 95t-237.5 -95t-73.5 -310v-17zM266 1204l217 277h172 l215 -277h-184l-117 162l-119 -162h-184zM682 1604v80q70 16 148 16q76 0 131 -27.5t55 -95.5q0 -51 -34 -80.5t-85 -33.5v-58h-115v125h27q59 0 59 37q0 20 -15 28.5t-48 8.5h-123z" />
<glyph unicode="&#x1ed6;" horiz-adv-x="1593" d="M96 0zM96 702q0 360 183.5 544t517.5 184q336 0 519 -183.5t183 -544.5q0 -358 -183 -542.5t-519 -184.5q-334 0 -517.5 183.5t-183.5 543.5zM297 694q0 -289 129 -421t371 -132q243 0 372 132.5t129 420.5v8q-2 293 -131 427.5t-370 134.5q-240 0 -369 -134.5 t-131 -427.5v-8zM465 1893q0 92 43 152.5t131 60.5q39 0 75 -8.5t87 -24.5q88 -31 143 -31q51 0 58 64h133q0 -92 -43 -152.5t-131 -60.5q-39 0 -75 8t-87 24q-88 31 -143 31q-51 0 -58 -63h-133zM494 1501l217 277h172l215 -277h-184l-117 162l-119 -162h-184z" />
<glyph unicode="&#x1ed7;" d="M72 0zM72 539q0 287 125 425t372 138q248 0 373 -138.5t125 -424.5q0 -287 -125 -425.5t-373 -138.5q-247 0 -372 138.5t-125 425.5zM237 1596q0 92 43 152.5t131 60.5q39 0 75 -8.5t87 -24.5q88 -31 143 -31q51 0 58 64h133q0 -92 -43 -152.5t-131 -60.5q-39 0 -75 8 t-87 24q-88 31 -143 31q-51 0 -58 -63h-133zM258 530q0 -215 74 -310t237 -95q164 0 238 95t74 310v17q0 215 -74 310t-238 95t-237.5 -95t-73.5 -310v-17zM266 1204l217 277h172l215 -277h-184l-117 162l-119 -162h-184z" />
<glyph unicode="&#x1ed8;" horiz-adv-x="1593" d="M96 0zM96 702q0 360 183.5 544t517.5 184q336 0 519 -183.5t183 -544.5q0 -358 -183 -542.5t-519 -184.5q-334 0 -517.5 183.5t-183.5 543.5zM297 694q0 -289 129 -421t371 -132q243 0 372 132.5t129 420.5v8q-2 293 -131 427.5t-370 134.5q-240 0 -369 -134.5 t-131 -427.5v-8zM494 1501l217 277h172l215 -277h-184l-117 162l-119 -162h-184zM707 -160h178v-194h-178v194z" />
<glyph unicode="&#x1ed9;" d="M72 0zM72 539q0 287 125 425t372 138q248 0 373 -138.5t125 -424.5q0 -287 -125 -425.5t-373 -138.5q-247 0 -372 138.5t-125 425.5zM258 530q0 -215 74 -310t237 -95q164 0 238 95t74 310v17q0 215 -74 310t-238 95t-237.5 -95t-73.5 -310v-17zM266 1204l217 277h172 l215 -277h-184l-117 162l-119 -162h-184zM479 -160h178v-194h-178v194z" />
<glyph unicode="&#x1eda;" horiz-adv-x="1593" d="M96 0zM96 702q0 360 183.5 544t517.5 184q281 0 450 -125q172 37 209 170h-108v221h245v-111q0 -135 -63.5 -228t-186.5 -140q156 -188 156 -515q0 -358 -183 -542.5t-519 -184.5q-334 0 -517.5 183.5t-183.5 543.5zM297 694q0 -289 129 -421t371 -132q244 0 372.5 132.5 t128.5 420.5v8q-2 293 -131 427.5t-370 134.5q-240 0 -369 -134.5t-131 -427.5v-8zM719 1507l176 271h196l2 -6l-221 -265h-153z" />
<glyph unicode="&#x1edb;" d="M72 0zM72 539q0 287 125 425t372 138q211 0 328 -96q209 35 248 178h-109v221h246v-111q0 -147 -76 -245.5t-223 -139.5q84 -137 84 -370q0 -287 -125 -425.5t-373 -138.5t-372.5 138.5t-124.5 425.5zM258 530q0 -215 74 -310t237 -95q164 0 238 95t74 310v17 q0 215 -74 310t-238 95t-237.5 -95t-73.5 -310v-17zM492 1210l176 271h196l2 -6l-221 -265h-153z" />
<glyph unicode="&#x1edc;" horiz-adv-x="1593" d="M96 0zM96 702q0 360 183.5 544t517.5 184q281 0 450 -125q172 37 209 170h-108v221h245v-111q0 -135 -63.5 -228t-186.5 -140q156 -188 156 -515q0 -358 -183 -542.5t-519 -184.5q-334 0 -517.5 183.5t-183.5 543.5zM297 694q0 -289 129 -421t371 -132q244 0 372.5 132.5 t128.5 420.5v8q-2 293 -131 427.5t-370 134.5q-240 0 -369 -134.5t-131 -427.5v-8zM498 1772l2 6h196l176 -271h-153z" />
<glyph unicode="&#x1edd;" d="M72 0zM72 539q0 287 125 425t372 138q211 0 328 -96q209 35 248 178h-109v221h246v-111q0 -147 -76 -245.5t-223 -139.5q84 -137 84 -370q0 -287 -125 -425.5t-373 -138.5t-372.5 138.5t-124.5 425.5zM258 530q0 -215 74 -310t237 -95q164 0 238 95t74 310v17 q0 215 -74 310t-238 95t-237.5 -95t-73.5 -310v-17zM271 1475l2 6h196l176 -271h-153z" />
<glyph unicode="&#x1ede;" horiz-adv-x="1593" d="M96 0zM96 702q0 360 183.5 544t517.5 184q281 0 450 -125q172 37 209 170h-108v221h245v-111q0 -135 -63.5 -228t-186.5 -140q156 -188 156 -515q0 -358 -183 -542.5t-519 -184.5q-334 0 -517.5 183.5t-183.5 543.5zM297 694q0 -289 129 -421t371 -132q244 0 372.5 132.5 t128.5 420.5v8q-2 293 -131 427.5t-370 134.5q-240 0 -369 -134.5t-131 -427.5v-8zM639 1706v80q70 16 148 16q76 0 131 -27.5t55 -95.5q0 -51 -34 -80.5t-85 -33.5v-58h-115v125h27q59 0 59 37q0 20 -15 28.5t-48 8.5h-123z" />
<glyph unicode="&#x1edf;" d="M72 0zM72 539q0 287 125 425t372 138q211 0 328 -96q209 35 248 178h-109v221h246v-111q0 -147 -76 -245.5t-223 -139.5q84 -137 84 -370q0 -287 -125 -425.5t-373 -138.5t-372.5 138.5t-124.5 425.5zM258 530q0 -215 74 -310t237 -95q164 0 238 95t74 310v17 q0 215 -74 310t-238 95t-237.5 -95t-73.5 -310v-17zM412 1409v80q70 16 148 16q76 0 131 -27.5t55 -95.5q0 -51 -34 -80.5t-85 -33.5v-58h-115v125h27q59 0 59 37q0 20 -15 28.5t-48 8.5h-123z" />
<glyph unicode="&#x1ee0;" horiz-adv-x="1593" d="M96 0zM96 702q0 360 183.5 544t517.5 184q281 0 450 -125q172 37 209 170h-108v221h245v-111q0 -135 -63.5 -228t-186.5 -140q156 -188 156 -515q0 -358 -183 -542.5t-519 -184.5q-334 0 -517.5 183.5t-183.5 543.5zM297 694q0 -289 129 -421t371 -132q244 0 372.5 132.5 t128.5 420.5v8q-2 293 -131 427.5t-370 134.5q-240 0 -369 -134.5t-131 -427.5v-8zM461 1565q0 92 43 152.5t131 60.5q39 0 75 -8.5t87 -24.5q88 -31 143 -31q51 0 58 64h133q0 -92 -43 -152.5t-131 -60.5q-39 0 -75 8t-87 24q-88 31 -143 31q-51 0 -58 -63h-133z" />
<glyph unicode="&#x1ee1;" d="M72 0zM72 539q0 287 125 425t372 138q211 0 328 -96q209 35 248 178h-109v221h246v-111q0 -147 -76 -245.5t-223 -139.5q84 -137 84 -370q0 -287 -125 -425.5t-373 -138.5t-372.5 138.5t-124.5 425.5zM233 1268q0 92 43 152.5t131 60.5q39 0 75 -8.5t87 -24.5 q88 -31 143 -31q51 0 58 64h133q0 -92 -43 -152.5t-131 -60.5q-39 0 -75 8t-87 24q-88 31 -143 31q-51 0 -58 -63h-133zM258 530q0 -215 74 -310t237 -95q164 0 238 95t74 310v17q0 215 -74 310t-238 95t-237.5 -95t-73.5 -310v-17z" />
<glyph unicode="&#x1ee2;" horiz-adv-x="1593" d="M96 0zM96 702q0 360 183.5 544t517.5 184q281 0 450 -125q172 37 209 170h-108v221h245v-111q0 -135 -63.5 -228t-186.5 -140q156 -188 156 -515q0 -358 -183 -542.5t-519 -184.5q-334 0 -517.5 183.5t-183.5 543.5zM297 694q0 -289 129 -421t371 -132q244 0 372.5 132.5 t128.5 420.5v8q-2 293 -131 427.5t-370 134.5q-240 0 -369 -134.5t-131 -427.5v-8zM707 -160h178v-194h-178v194z" />
<glyph unicode="&#x1ee3;" d="M72 0zM72 539q0 287 125 425t372 138q211 0 328 -96q209 35 248 178h-109v221h246v-111q0 -147 -76 -245.5t-223 -139.5q84 -137 84 -370q0 -287 -125 -425.5t-373 -138.5t-372.5 138.5t-124.5 425.5zM258 530q0 -215 74 -310t237 -95q164 0 238 95t74 310v17 q0 215 -74 310t-238 95t-237.5 -95t-73.5 -310v-17zM479 -160h178v-194h-178v194z" />
<glyph unicode="&#x1ee4;" horiz-adv-x="1478" d="M162 0zM162 518v887h194v-897q0 -180 99.5 -273.5t281.5 -93.5q184 0 284.5 94.5t100.5 272.5v897h195v-887q0 -276 -149.5 -409.5t-430.5 -133.5q-276 0 -425.5 133.5t-149.5 409.5zM649 -160h178v-194h-178v194z" />
<glyph unicode="&#x1ee5;" d="M131 0zM131 342v735h180v-723q0 -129 57.5 -179t166.5 -50q78 0 143 38t104 109.5t39 167.5v637h180v-1077h-137l-20 145h-15q-119 -170 -362 -170q-162 0 -249 87.5t-87 279.5zM479 -160h178v-194h-178v194z" />
<glyph unicode="&#x1ee6;" horiz-adv-x="1478" d="M162 0zM162 518v887h194v-897q0 -180 99.5 -273.5t281.5 -93.5q184 0 284.5 94.5t100.5 272.5v897h195v-887q0 -276 -149.5 -409.5t-430.5 -133.5q-276 0 -425.5 133.5t-149.5 409.5zM582 1706v80q70 16 148 16q76 0 131 -27.5t55 -95.5q0 -51 -34 -80.5t-85 -33.5v-58 h-115v125h27q59 0 59 37q0 20 -15 28.5t-48 8.5h-123z" />
<glyph unicode="&#x1ee7;" d="M131 0zM131 342v735h180v-723q0 -129 57.5 -179t166.5 -50q78 0 143 38t104 109.5t39 167.5v637h180v-1077h-137l-20 145h-15q-119 -170 -362 -170q-162 0 -249 87.5t-87 279.5zM410 1409v80q70 16 148 16q76 0 131 -27.5t55 -95.5q0 -51 -34 -80.5t-85 -33.5v-58h-115 v125h27q59 0 59 37q0 20 -15 28.5t-48 8.5h-123z" />
<glyph unicode="&#x1ee8;" horiz-adv-x="1478" d="M162 0zM162 518v887h194v-897q0 -180 99.5 -273.5t281.5 -93.5q184 0 284.5 94.5t100.5 272.5v897h156q115 47 145 151h-108v222h246v-111q0 -133 -61.5 -226t-182.5 -141v-782q0 -276 -149.5 -409.5t-430.5 -133.5q-276 0 -425.5 133.5t-149.5 409.5zM662 1507l176 271 h196l2 -6l-221 -265h-153z" />
<glyph unicode="&#x1ee9;" d="M131 0zM131 342v735h180v-723q0 -129 57.5 -179t166.5 -50q78 0 143 38t104 109.5t39 167.5v637h6q117 14 186.5 58.5t90.5 124.5h-109v221h246v-111q0 -131 -60.5 -224t-179.5 -140v-1006h-137l-20 145h-15q-119 -170 -362 -170q-162 0 -249 87.5t-87 279.5zM490 1210 l176 271h196l2 -6l-221 -265h-153z" />
<glyph unicode="&#x1eea;" horiz-adv-x="1478" d="M162 0zM162 518v887h194v-897q0 -180 99.5 -273.5t281.5 -93.5q184 0 284.5 94.5t100.5 272.5v897h156q115 47 145 151h-108v222h246v-111q0 -133 -61.5 -226t-182.5 -141v-782q0 -276 -149.5 -409.5t-430.5 -133.5q-276 0 -425.5 133.5t-149.5 409.5zM441 1772l2 6h196 l176 -271h-153z" />
<glyph unicode="&#x1eeb;" d="M131 0zM131 342v735h180v-723q0 -129 57.5 -179t166.5 -50q78 0 143 38t104 109.5t39 167.5v637h6q117 14 186.5 58.5t90.5 124.5h-109v221h246v-111q0 -131 -60.5 -224t-179.5 -140v-1006h-137l-20 145h-15q-119 -170 -362 -170q-162 0 -249 87.5t-87 279.5zM269 1475 l2 6h196l176 -271h-153z" />
<glyph unicode="&#x1eec;" horiz-adv-x="1478" d="M162 0zM162 518v887h194v-897q0 -180 99.5 -273.5t281.5 -93.5q184 0 284.5 94.5t100.5 272.5v897h156q115 47 145 151h-108v222h246v-111q0 -133 -61.5 -226t-182.5 -141v-782q0 -276 -149.5 -409.5t-430.5 -133.5q-276 0 -425.5 133.5t-149.5 409.5zM582 1706v80 q70 16 148 16q76 0 131 -27.5t55 -95.5q0 -51 -34 -80.5t-85 -33.5v-58h-115v125h27q59 0 59 37q0 20 -15 28.5t-48 8.5h-123z" />
<glyph unicode="&#x1eed;" d="M131 0zM131 342v735h180v-723q0 -129 57.5 -179t166.5 -50q78 0 143 38t104 109.5t39 167.5v637h6q117 14 186.5 58.5t90.5 124.5h-109v221h246v-111q0 -131 -60.5 -224t-179.5 -140v-1006h-137l-20 145h-15q-119 -170 -362 -170q-162 0 -249 87.5t-87 279.5zM410 1409 v80q70 16 148 16q76 0 131 -27.5t55 -95.5q0 -51 -34 -80.5t-85 -33.5v-58h-115v125h27q59 0 59 37q0 20 -15 28.5t-48 8.5h-123z" />
<glyph unicode="&#x1eee;" horiz-adv-x="1478" d="M162 0zM162 518v887h194v-897q0 -180 99.5 -273.5t281.5 -93.5q184 0 284.5 94.5t100.5 272.5v897h156q115 47 145 151h-108v222h246v-111q0 -133 -61.5 -226t-182.5 -141v-782q0 -276 -149.5 -409.5t-430.5 -133.5q-276 0 -425.5 133.5t-149.5 409.5zM403 1565 q0 92 43 152.5t131 60.5q39 0 75 -8.5t87 -24.5q88 -31 143 -31q51 0 58 64h133q0 -92 -43 -152.5t-131 -60.5q-39 0 -75 8t-87 24q-88 31 -143 31q-51 0 -58 -63h-133z" />
<glyph unicode="&#x1eef;" d="M131 0zM131 342v735h180v-723q0 -129 57.5 -179t166.5 -50q78 0 143 38t104 109.5t39 167.5v637h6q117 14 186.5 58.5t90.5 124.5h-109v221h246v-111q0 -131 -60.5 -224t-179.5 -140v-1006h-137l-20 145h-15q-119 -170 -362 -170q-162 0 -249 87.5t-87 279.5zM231 1268 q0 92 43 152.5t131 60.5q39 0 75 -8.5t87 -24.5q88 -31 143 -31q51 0 58 64h133q0 -92 -43 -152.5t-131 -60.5q-39 0 -75 8t-87 24q-88 31 -143 31q-51 0 -58 -63h-133z" />
<glyph unicode="&#x1ef0;" horiz-adv-x="1478" d="M162 0zM162 518v887h194v-897q0 -180 99.5 -273.5t281.5 -93.5q184 0 284.5 94.5t100.5 272.5v897h156q115 47 145 151h-108v222h246v-111q0 -133 -61.5 -226t-182.5 -141v-782q0 -276 -149.5 -409.5t-430.5 -133.5q-276 0 -425.5 133.5t-149.5 409.5zM649 -160h178v-194 h-178v194z" />
<glyph unicode="&#x1ef1;" d="M131 0zM131 342v735h180v-723q0 -129 57.5 -179t166.5 -50q78 0 143 38t104 109.5t39 167.5v637h6q117 14 186.5 58.5t90.5 124.5h-109v221h246v-111q0 -131 -60.5 -224t-179.5 -140v-1006h-137l-20 145h-15q-119 -170 -362 -170q-162 0 -249 87.5t-87 279.5zM479 -160 h178v-194h-178v194z" />
<glyph unicode="&#x1ef2;" horiz-adv-x="1366" d="M33 0zM33 1405h235l418 -643h10l416 643h223l-553 -823v-582h-194v582zM385 1772l2 6h196l176 -271h-153z" />
<glyph unicode="&#x1ef3;" horiz-adv-x="1024" d="M27 0zM27 1077h190l201 -538q29 -76 66.5 -189.5t50.5 -148.5h10q10 35 37.5 131t62.5 207l172 538h180l-354 -1022q-72 -205 -163 -316.5t-240 -111.5q-91 1 -144 17v116h72q209 0 274 240zM213 1475l2 6h196l176 -271h-153z" />
<glyph unicode="&#x1ef4;" horiz-adv-x="1366" d="M33 0zM33 1405h235l418 -643h10l416 643h223l-553 -823v-582h-194v582zM594 -160h178v-194h-178v194z" />
<glyph unicode="&#x1ef5;" horiz-adv-x="1024" d="M27 0zM27 1077h190l201 -538q29 -76 66.5 -189.5t50.5 -148.5h10q10 35 37.5 131t62.5 207l172 538h180l-354 -1022q-72 -205 -163 -316.5t-240 -111.5q-91 1 -144 17v116h72q209 0 274 240zM647 -160h178v-194h-178v194z" />
<glyph unicode="&#x1ef6;" horiz-adv-x="1366" d="M33 0zM33 1405h235l418 -643h10l416 643h223l-553 -823v-582h-194v582zM526 1706v80q70 16 148 16q76 0 131 -27.5t55 -95.5q0 -51 -34 -80.5t-85 -33.5v-58h-115v125h27q59 0 59 37q0 20 -15 28.5t-48 8.5h-123z" />
<glyph unicode="&#x1ef7;" horiz-adv-x="1024" d="M27 0zM27 1077h190l201 -538q29 -76 66.5 -189.5t50.5 -148.5h10q10 35 37.5 131t62.5 207l172 538h180l-354 -1022q-72 -205 -163 -316.5t-240 -111.5q-91 1 -144 17v116h72q209 0 274 240zM354 1409v80q70 16 148 16q76 0 131 -27.5t55 -95.5q0 -51 -34 -80.5 t-85 -33.5v-58h-115v125h27q59 0 59 37q0 20 -15 28.5t-48 8.5h-123z" />
<glyph unicode="&#x1ef8;" horiz-adv-x="1366" d="M33 0zM33 1405h235l418 -643h10l416 643h223l-553 -823v-582h-194v582zM348 1565q0 92 43 152.5t131 60.5q39 0 75 -8.5t87 -24.5q88 -31 143 -31q51 0 58 64h133q0 -92 -43 -152.5t-131 -60.5q-39 0 -75 8t-87 24q-88 31 -143 31q-51 0 -58 -63h-133z" />
<glyph unicode="&#x1ef9;" horiz-adv-x="1024" d="M27 0zM27 1077h190l201 -538q29 -76 66.5 -189.5t50.5 -148.5h10q10 35 37.5 131t62.5 207l172 538h180l-354 -1022q-72 -205 -163 -316.5t-240 -111.5q-91 1 -144 17v116h72q209 0 274 240zM176 1268q0 92 43 152.5t131 60.5q39 0 75 -8.5t87 -24.5q88 -31 143 -31 q51 0 58 64h133q0 -92 -43 -152.5t-131 -60.5q-39 0 -75 8t-87 24q-88 31 -143 31q-51 0 -58 -63h-133z" />
<glyph unicode="&#x2000;" horiz-adv-x="1060" />
<glyph unicode="&#x2001;" horiz-adv-x="2120" />
<glyph unicode="&#x2002;" horiz-adv-x="1060" />
<glyph unicode="&#x2003;" horiz-adv-x="2120" />
<glyph unicode="&#x2004;" horiz-adv-x="706" />
<glyph unicode="&#x2005;" horiz-adv-x="530" />
<glyph unicode="&#x2006;" horiz-adv-x="353" />
<glyph unicode="&#x2007;" horiz-adv-x="353" />
<glyph unicode="&#x2008;" horiz-adv-x="265" />
<glyph unicode="&#x2009;" horiz-adv-x="424" />
<glyph unicode="&#x200a;" horiz-adv-x="117" />
<glyph unicode="&#x2010;" horiz-adv-x="681" d="M66 453v200h552v-200h-552z" />
<glyph unicode="&#x2011;" horiz-adv-x="681" d="M66 453v200h552v-200h-552z" />
<glyph unicode="&#x2012;" horiz-adv-x="681" d="M66 453v200h552v-200h-552z" />
<glyph unicode="&#x2013;" d="M0 477v154h1139v-154h-1139z" />
<glyph unicode="&#x2014;" horiz-adv-x="2048" d="M0 477v154h2048v-154h-2048z" />
<glyph unicode="&#x2015;" horiz-adv-x="2048" d="M66 477v154h1919v-154h-1919z" />
<glyph unicode="&#x2017;" horiz-adv-x="1130" d="M0 -145h1128v-109h-1128v109zM0 -336h1128v-108h-1128v108z" />
<glyph unicode="&#x2018;" horiz-adv-x="454" d="M135 909v203l98 293h107l-82 -275h82v-221h-205z" />
<glyph unicode="&#x2019;" horiz-adv-x="454" d="M115 909l82 275h-82v221h204v-203l-98 -293h-106z" />
<glyph unicode="&#x201a;" horiz-adv-x="454" d="M125 0v221h205v-203l-99 -292h-106l82 274h-82z" />
<glyph unicode="&#x201b;" horiz-adv-x="454" d="M137 1202v203h205v-221h-82l82 -254h-106z" />
<glyph unicode="&#x201c;" horiz-adv-x="681" d="M80 909v203l98 293h107l-82 -275h82v-221h-205zM391 909v203l98 293h107l-82 -275h82v-221h-205z" />
<glyph unicode="&#x201d;" horiz-adv-x="681" d="M86 909l82 275h-82v221h205v-203l-98 -293h-107zM397 909l82 275h-82v221h205v-203l-98 -293h-107z" />
<glyph unicode="&#x201e;" horiz-adv-x="681" d="M86 0v221h205v-203l-98 -292h-107l82 274h-82zM397 0v221h205v-203l-98 -292h-107l82 274h-82z" />
<glyph unicode="&#x2020;" d="M92 846v190l420 -35l-35 404h180l-34 -404l421 35v-190l-421 37l41 -1231h-193l41 1231z" />
<glyph unicode="&#x2021;" d="M92 20v191l420 -37l-41 358l41 351l-420 -37v190l420 -35l-35 404h180l-34 -404l421 35v-190l-421 37l41 -351l-41 -358l421 37v-191l-421 35l34 -403h-180l35 403z" />
<glyph unicode="&#x2022;" horiz-adv-x="716" d="M106 702q0 104 74 179t178 75q68 0 126.5 -34.5t93 -93t34.5 -126.5q0 -104 -74.5 -177.5t-179.5 -73.5q-104 0 -178 73.5t-74 177.5z" />
<glyph unicode="&#x2026;" horiz-adv-x="2048" d="M240 0v221h204v-221h-204zM922 0v221h204v-221h-204zM1602 0v221h204v-221h-204z" />
<glyph unicode="&#x202f;" horiz-adv-x="424" />
<glyph unicode="&#x2030;" horiz-adv-x="2048" d="M37 1059q0 205 72.5 288t218.5 83q145 0 216.5 -83t71.5 -288t-71.5 -287t-216.5 -82q-146 0 -218.5 83t-72.5 286zM195 1051q0 -123 27.5 -181.5t105.5 -58.5t105.5 58.5t27.5 181.5v16q0 125 -27.5 183.5t-105.5 58.5t-105.5 -58.5t-27.5 -183.5v-16zM242 0l766 1405 h133l-768 -1405h-131zM762 340q0 205 72.5 288t218.5 83q145 0 216.5 -83t71.5 -288t-71.5 -287t-216.5 -82q-146 0 -218.5 83t-72.5 286zM920 332q0 -123 27.5 -181.5t105.5 -58.5q77 0 105 58.5t28 181.5v16q0 125 -28 183.5t-105 58.5q-78 0 -105.5 -58.5t-27.5 -183.5 v-16zM1432 340q0 205 72.5 288t217.5 83t217 -83t72 -288t-71.5 -287t-217.5 -82q-145 0 -217.5 83t-72.5 286zM1589 332q0 -123 28 -181.5t105 -58.5q78 0 105.5 58.5t27.5 181.5v16q0 125 -27.5 183.5t-105.5 58.5t-105.5 -58.5t-27.5 -183.5v-16z" />
<glyph unicode="&#x2032;" horiz-adv-x="382" d="M100 1055l58 350h204l3 -6l-107 -344h-158z" />
<glyph unicode="&#x2033;" horiz-adv-x="724" d="M100 1055l58 350h204l3 -6l-107 -344h-158zM391 1055l58 350h204l2 -6l-106 -344h-158z" />
<glyph unicode="&#x2039;" horiz-adv-x="681" d="M113 668l321 409h146l-265 -409l265 -410h-146z" />
<glyph unicode="&#x203a;" horiz-adv-x="681" d="M102 258l265 410l-265 409h146l321 -409l-321 -410h-146z" />
<glyph unicode="&#x203c;" horiz-adv-x="1024" d="M170 0zM170 1405h233l-53 -1055h-127zM184 0v221h205v-221h-205zM621 1405h233l-53 -1055h-127zM635 0v221h205v-221h-205z" />
<glyph unicode="&#x203e;" horiz-adv-x="681" d="M-31 1618v139h746v-139h-746z" />
<glyph unicode="&#x2044;" horiz-adv-x="342" d="M-463 -25l1118 1455h148l-1118 -1455h-148z" />
<glyph unicode="&#x205f;" horiz-adv-x="530" />
<glyph unicode="&#x207f;" horiz-adv-x="747" d="M80 758v731h113l14 -98h10q74 115 225 114q227 0 228 -248v-499h-142v489q0 84 -33.5 118t-97.5 34q-74 0 -125 -57.5t-51 -151.5v-432h-141z" />
<glyph unicode="&#x20a3;" d="M162 0v1405h712v-154h-528v-463h268v162h138l20 -162h12q68 186 234 187q37 0 63.5 -7t32.5 -10v-174h-76q-106 0 -174.5 -66.5t-68.5 -207.5v-510h-181v639h-268v-639h-184z" />
<glyph unicode="&#x20a4;" d="M43 416v147h184v156h-184v147h184v156q0 201 106.5 304.5t303.5 103.5q199 0 304.5 -93.5t105.5 -304.5v-26h-181v32q0 123 -59 182.5t-170 59.5q-117 0 -173 -54.5t-56 -170.5v-189h337v-147h-339v-156h339v-147h-339l-25 -254h666v-162h-975v162h155v254h-184z" />
<glyph unicode="&#x20a7;" horiz-adv-x="2240" d="M162 0v1405h403q180 0 290 -88t136 -240h78l39 299h139v-299h361q78 25 172 25q166 0 260 -85t94 -210l-2 -39h-176v18q0 72 -47 119t-150 47q-102 0 -141 -44t-39 -101q0 -70 56.5 -101.5t174.5 -66.5q111 -33 181.5 -64.5t120 -96t49.5 -171.5q0 -166 -108.5 -249 t-289.5 -83q-125 0 -210 36t-130 100v-105q-27 -12 -66.5 -20.5t-76.5 -8.5q-111 0 -162 66t-51 162v723h-68q-16 -178 -131.5 -283.5t-302.5 -105.5h-209v-539h-194zM356 709h199q115 0 182.5 71.5t67.5 194.5q0 125 -63.5 192.5t-186.5 67.5h-199v-526zM1247 221 q0 -96 90 -96h78q-47 72 -47 166q0 25 1 34t1 11h172v-21q0 -96 64.5 -144t167.5 -48q86 0 143 42t57 118q0 59 -33.5 97t-84 59.5t-136.5 45.5q-104 31 -169.5 62t-111.5 91t-46 157q0 72 28 133h-174v-707z" />
<glyph unicode="&#x20ac;" d="M39 498v133h141q-2 23 -2 71q0 47 2 72h-141v133h160q53 250 234 386.5t466 136.5q88 0 168 -21v-145q-72 16 -139 16q-199 0 -342.5 -94t-190.5 -279h527v-133h-549q-2 -25 -2 -72q0 -49 2 -71h549v-133h-527q47 -184 190.5 -278.5t342.5 -94.5q68 0 139 16v-145 q-92 -20 -168 -21q-285 0 -466 136.5t-234 386.5h-160z" />
<glyph unicode="&#x20b2;" horiz-adv-x="1208" d="M102 705q0 250 105.5 389t312.5 166v221h105v-215q207 0 333.5 -102.5t126.5 -299.5h-192q0 119 -70.5 177.5t-193.5 58.5h-4v-795q86 0 145 28.5t90 74t31 92.5v20h-186v170h380v-526h-151l-14 94q-94 -111 -295 -119v-239h-105v243q-201 23 -309.5 164.5t-108.5 397.5z M299 692q0 -172 54.5 -263t166.5 -114v775q-111 -27 -166 -118t-55 -263v-17z" />
<glyph unicode="&#x2105;" horiz-adv-x="1812" d="M96 1032q0 205 79 301.5t243 96.5q147 0 215.5 -81t68.5 -239h-170q0 98 -25.5 142t-88.5 44q-80 0 -115 -55t-35 -201v-16q0 -145 35 -200.5t115 -55.5q63 0 93 47t30 139h161q0 -139 -69.5 -228t-214.5 -89q-168 0 -245 95t-77 300zM305 -25l1018 1455h152l-1016 -1455 h-154zM1057 373q0 203 83 300t246 97q164 0 247 -97.5t83 -299.5q0 -203 -83 -300.5t-247 -97.5q-163 0 -246 97.5t-83 300.5zM1227 365q0 -145 38 -200.5t121 -55.5q84 0 123 55t39 201v16q0 145 -39 201.5t-123 56.5t-121.5 -56.5t-37.5 -201.5v-16z" />
<glyph unicode="&#x2113;" horiz-adv-x="661" d="M57 307v144q43 43 68 71v518q0 244 79 354.5t193 110.5q104 0 158.5 -86t54.5 -227q0 -328 -344 -709v-77q0 -148 49.5 -218.5t128.5 -70.5q76 0 142 61v-149q-78 -53 -168 -54q-150 0 -218.5 101.5t-72.5 267.5v31zM266 651q229 305 230 543q0 180 -97 180 q-55 0 -94 -80t-39 -254v-389z" />
<glyph unicode="&#x2116;" horiz-adv-x="2197" d="M162 0v1405h174l688 -959l61 -86l9 2v136v907h182v-1405h-166l-696 977l-62 86l-8 -2v-121v-940h-182zM1436 1026q0 207 81.5 305.5t245.5 98.5q328 0 328 -404q0 -403 -328 -403q-164 0 -245.5 98t-81.5 305zM1464 406v135h600v-135h-600zM1610 1016q0 -141 36.5 -199.5 t116.5 -58.5t117 58t37 200v20q0 141 -37 199.5t-117 58.5t-116.5 -58t-36.5 -200v-20z" />
<glyph unicode="&#x2122;" horiz-adv-x="2048" d="M164 1278v129h717v-129h-289v-698h-137v698h-291zM993 578v829h217l215 -647h11l215 647h213v-829h-138v673h-10l-229 -673h-131l-228 673h-10v-673h-125z" />
<glyph unicode="&#x2126;" horiz-adv-x="1531" d="M76 0v172h82q18 0 84 -4q61 -4 102 -4q-248 190 -248 538q0 358 176.5 543t493.5 185t493.5 -184.5t176.5 -543.5q0 -348 -252 -538q25 0 69 4q74 4 121 4h82v-172h-631v145q137 29 224.5 84.5t136.5 167t49 299.5q-2 301 -123 434.5t-346 133.5q-227 0 -348 -130 t-121 -421v-11q0 -190 48 -303.5t135 -169t225 -84.5v-145h-629zM76 0z" />
<glyph unicode="&#x212e;" horiz-adv-x="1228" d="M92 539q0 164 63.5 290.5t183.5 199.5t279 73q160 0 279 -75t183.5 -208t64.5 -301v-10h-832v-338q119 -109 305 -109q133 0 234.5 59.5t155.5 164.5l69 -43q-66 -125 -183.5 -196t-275.5 -71q-159 0 -279 73t-183.5 200t-63.5 291zM313 594h611v309q-123 113 -306 113 q-184 0 -305 -111v-311z" />
<glyph unicode="&#x2153;" horiz-adv-x="1708" d="M104 672v114h181v461h-181v82q55 6 127 27.5t121 48.5h62v-619h164v-114h-474zM221 -25l1118 1455h148l-1118 -1455h-148zM1092 205v26h129v-30q0 -55 33.5 -84t97.5 -29q63 0 100 27.5t37 85.5q0 102 -141 102h-62v115h66q53 0 89 25.5t36 74.5q0 51 -34 77t-85 26 q-55 0 -89 -27t-34 -80v-29h-129v39q0 94 69.5 151.5t180.5 57.5q115 0 182.5 -55t67.5 -154q0 -96 -107 -153v-4q123 -53 123 -174q0 -98 -72.5 -158t-189.5 -60q-127 0 -197.5 61.5t-70.5 168.5z" />
<glyph unicode="&#x2154;" horiz-adv-x="1708" d="M80 684v49q0 59 28.5 107.5t69.5 84.5t113 89q90 66 121 100q49 49 49 103q0 39 -25.5 68.5t-87.5 29.5q-68 0 -98.5 -32t-30.5 -83v-51h-127q0 4 -2 18.5t-2 30.5q0 117 75 174.5t189 57.5q109 0 174.5 -53.5t65.5 -162.5q0 -86 -58.5 -152.5t-164.5 -143.5 q-10 -8 -44 -33t-55.5 -46.5t-29.5 -39.5h356v-115h-516zM221 -25l1118 1455h148l-1118 -1455h-148zM1092 205v26h129v-30q0 -55 33.5 -84t97.5 -29q63 0 100 27.5t37 85.5q0 102 -141 102h-62v115h66q53 0 89 25.5t36 74.5q0 51 -34 77t-85 26q-55 0 -89 -27t-34 -80v-29 h-129v39q0 94 69.5 151.5t180.5 57.5q115 0 182.5 -55t67.5 -154q0 -96 -107 -153v-4q123 -53 123 -174q0 -98 -72.5 -158t-189.5 -60q-127 0 -197.5 61.5t-70.5 168.5z" />
<glyph unicode="&#x215b;" horiz-adv-x="1708" d="M104 672v114h181v461h-181v82q55 6 127 27.5t121 48.5h62v-619h164v-114h-474zM221 -25l1118 1455h148l-1118 -1455h-148zM1096 199q0 117 108 168q-43 29 -67.5 68.5t-24.5 84.5q0 94 63.5 153.5t180.5 59.5t180 -59.5t63 -153.5q0 -43 -24.5 -84t-65.5 -69 q51 -27 80 -72t29 -96q0 -100 -65.5 -162t-196.5 -62t-195.5 61.5t-64.5 162.5zM1225 199q0 -53 33.5 -82t97.5 -29q63 0 97 28.5t34 82.5q0 51 -34 78.5t-97 27.5t-97 -27.5t-34 -78.5zM1241 520q0 -47 31 -73.5t84 -26.5t83.5 26.5t30.5 73.5t-30.5 74t-83.5 27t-84 -27 t-31 -74z" />
<glyph unicode="&#x215c;" horiz-adv-x="1708" d="M78 901v27h129v-31q0 -55 33.5 -84t97.5 -29q63 0 100 28t37 85q0 102 -141 102h-62v115h66q53 0 89 25.5t36 74.5q0 51 -34 77t-85 26q-55 0 -89 -26.5t-34 -80.5v-28h-129v39q0 94 69.5 151.5t180.5 57.5q115 0 182.5 -55.5t67.5 -153.5q0 -96 -107 -154v-4 q123 -53 123 -174q0 -98 -72.5 -157.5t-189.5 -59.5q-127 0 -197.5 61.5t-70.5 167.5zM221 -25l1118 1455h148l-1118 -1455h-148zM1096 199q0 117 108 168q-43 29 -67.5 68.5t-24.5 84.5q0 94 63.5 153.5t180.5 59.5t180 -59.5t63 -153.5q0 -43 -24.5 -84t-65.5 -69 q51 -27 80 -72t29 -96q0 -100 -65.5 -162t-196.5 -62t-195.5 61.5t-64.5 162.5zM1225 199q0 -53 33.5 -82t97.5 -29q63 0 97 28.5t34 82.5q0 51 -34 78.5t-97 27.5t-97 -27.5t-34 -78.5zM1241 520q0 -47 31 -73.5t84 -26.5t83.5 26.5t30.5 73.5t-30.5 74t-83.5 27t-84 -27 t-31 -74z" />
<glyph unicode="&#x215d;" horiz-adv-x="1708" d="M82 905h129q0 -61 38 -97t97 -36t94 37t35 109q0 66 -38 97.5t-103 31.5q-68 0 -117 -41l-111 18l31 381h432v-115h-323l-13 -162q57 33 140 33q102 0 167.5 -62.5t65.5 -180.5q0 -123 -69.5 -191t-190.5 -68t-192.5 67t-71.5 179zM221 -25l1118 1455h148l-1118 -1455 h-148zM1096 199q0 117 108 168q-43 29 -67.5 68.5t-24.5 84.5q0 94 63.5 153.5t180.5 59.5t180 -59.5t63 -153.5q0 -43 -24.5 -84t-65.5 -69q51 -27 80 -72t29 -96q0 -100 -65.5 -162t-196.5 -62t-195.5 61.5t-64.5 162.5zM1225 199q0 -53 33.5 -82t97.5 -29q63 0 97 28.5 t34 82.5q0 51 -34 78.5t-97 27.5t-97 -27.5t-34 -78.5zM1241 520q0 -47 31 -73.5t84 -26.5t83.5 26.5t30.5 73.5t-30.5 74t-83.5 27t-84 -27t-31 -74z" />
<glyph unicode="&#x215e;" horiz-adv-x="1708" d="M131 1290v115h533v-86q-119 -135 -202 -284.5t-83 -291.5l2 -71h-141q0 172 72.5 324.5t185.5 293.5h-367zM186 -25l1119 1455h147l-1118 -1455h-148zM1061 199q0 117 108 168q-43 29 -67.5 68.5t-24.5 84.5q0 94 63.5 153.5t180.5 59.5t180.5 -59.5t63.5 -153.5 q0 -43 -24.5 -84t-65.5 -69q51 -27 79.5 -72t28.5 -96q0 -100 -65.5 -162t-196.5 -62t-195.5 61.5t-64.5 162.5zM1190 199q0 -53 33.5 -82t97.5 -29q63 0 97 28.5t34 82.5q0 51 -34 78.5t-97 27.5t-97 -27.5t-34 -78.5zM1206 520q0 -47 31 -73.5t84 -26.5t84 26.5t31 73.5 t-31 74t-84 27t-84 -27t-31 -74z" />
<glyph unicode="&#x2190;" horiz-adv-x="2048" d="M86 496v43l403 333h86l-118 -280h1509v-150h-1509l118 -280h-86z" />
<glyph unicode="&#x2191;" horiz-adv-x="1024" d="M158 965v86l334 403h43l333 -403v-86l-280 118v-1509h-150v1509z" />
<glyph unicode="&#x2192;" horiz-adv-x="2048" d="M84 442v150h1509l-118 280h86l403 -333v-43l-403 -334h-86l118 280h-1509z" />
<glyph unicode="&#x2193;" horiz-adv-x="1024" d="M158 -23v86l280 -118v1509h150v-1509l280 118v-86l-333 -403h-43z" />
<glyph unicode="&#x2194;" horiz-adv-x="2048" d="M86 496v43l403 333h86l-108 -280h1126l-118 280h86l403 -333v-43l-403 -334h-86l118 280h-1126l108 -280h-86z" />
<glyph unicode="&#x2195;" horiz-adv-x="1024" d="M156 -18v86l280 -119v1126l-280 -108v86l333 403h43l334 -403v-86l-280 108v-1126l280 119v-86l-334 -404h-43z" />
<glyph unicode="&#x21a8;" horiz-adv-x="1024" d="M154 -379h716v-98h-716v98zM156 125v86l280 -119v983l-280 -108v86l333 403h43l334 -403v-86l-280 108v-983l280 119v-86l-334 -404h-43z" />
<glyph unicode="&#x2202;" horiz-adv-x="1011" d="M94 418q0 150 53.5 264.5t142.5 176t189 61.5q94 0 157.5 -44.5t90.5 -97.5h8q4 12 4 70q0 143 -40 262t-110.5 186.5t-158.5 67.5q-115 0 -211 -70v152q109 59 234 59q123 0 226 -76.5t167.5 -238.5t64.5 -406q0 -383 -121.5 -596t-347.5 -213q-110 0 -189 59.5 t-119 161t-40 222.5zM279 412q0 -131 47 -209t131 -78q108 0 179 143.5t85 343.5q-20 66 -76.5 118t-136.5 52q-63 0 -116.5 -51t-83 -136t-29.5 -183z" />
<glyph unicode="&#x2206;" horiz-adv-x="1253" d="M27 0l626 1430l574 -1430h-1200zM197 111h782l-377 917z" />
<glyph unicode="&#x220f;" horiz-adv-x="1685" d="M84 1317v164h1518v-164h-207v-1579h-193v1579h-721v-1579h-194v1579h-203z" />
<glyph unicode="&#x2211;" horiz-adv-x="1460" d="M121 -133l651 745l-631 731v138h1233v-160h-962v-8l587 -668l-634 -719v-8h1048v-180h-1292v129z" />
<glyph unicode="&#x2212;" horiz-adv-x="1196" d="M115 438v170h966v-170h-966z" />
<glyph unicode="&#x2215;" horiz-adv-x="342" d="M-463 -25l1118 1455h148l-1118 -1455h-148z" />
<glyph unicode="&#x2219;" horiz-adv-x="716" d="M217 522q0 53 38 90t89 37q53 0 90 -37t37 -90q0 -51 -37 -89t-90 -38q-51 0 -89 38t-38 89z" />
<glyph unicode="&#x221a;" horiz-adv-x="1124" d="M61 662l332 139l260 -711q20 -57 43 -151l281 1816h145l-331 -2058h-185l-346 903l-158 -61z" />
<glyph unicode="&#x221e;" horiz-adv-x="1460" d="M96 608q0 135 83 227.5t220 92.5q96 0 173 -52.5t157 -146.5q76 92 154 145.5t176 53.5q137 0 220 -92.5t83 -227.5q0 -137 -82 -227t-219 -90q-100 0 -178 52t-154 144q-78 -92 -155.5 -144t-176.5 -52q-137 0 -219 90t-82 227zM248 604q0 -70 44 -118t105 -48 q64 0 117 43t119 127q-63 80 -117.5 122t-116.5 42q-61 0 -106 -49t-45 -119zM823 608q66 -84 120 -127t118 -43q61 0 105 48.5t44 117.5q0 70 -45 119t-106 49q-63 0 -116.5 -41t-119.5 -123z" />
<glyph unicode="&#x221f;" horiz-adv-x="2004" d="M362 0v1280h152v-1145h1128v-135h-1280z" />
<glyph unicode="&#x2229;" horiz-adv-x="1472" d="M193 0v840q0 147 72.5 272t197.5 198.5t272 73.5t272.5 -73.5t199 -198.5t73.5 -272v-840h-150v842q0 106 -53 197t-144 144.5t-198 53.5q-106 0 -196 -53.5t-143.5 -144.5t-53.5 -197v-842h-149z" />
<glyph unicode="&#x222b;" horiz-adv-x="561" d="M68 -186q174 0 174 118q-8 205 -32 803t-24 795q0 133 85 181t239 48v-100q-178 0 -178 -117q10 -207 33.5 -806t23.5 -795q0 -133 -84 -181.5t-237 -48.5v103z" />
<glyph unicode="&#x2248;" horiz-adv-x="1124" d="M78 117v188q0 6 36 44t98 71t146 33q47 0 93.5 -15.5t107.5 -46.5q66 -31 111 -46t96 -15q74 0 135.5 32.5t103.5 71.5t42 43v-188q0 -6 -36 -44t-98.5 -71t-146.5 -33q-47 0 -93 15.5t-108 46.5q-66 31 -110.5 46t-96.5 15q-74 0 -135 -32.5t-103 -71.5t-42 -43zM78 555 v188q0 6 36 44t98 71t146 33q47 0 93.5 -15.5t107.5 -46.5q66 -31 111 -46t96 -15q74 0 135.5 33t103.5 71.5t42 42.5v-188q0 -6 -36 -44t-98.5 -70.5t-146.5 -32.5q-47 0 -93 15t-108 46q-66 31 -110.5 46t-96.5 15q-74 0 -135 -32.5t-103 -71.5t-42 -43z" />
<glyph unicode="&#x2260;" horiz-adv-x="1124" d="M78 217v170h344l141 264h-485v172h577l90 168h136l-90 -168h256v-172h-349l-141 -264h490v-170h-580l-88 -166h-135l88 166h-254z" />
<glyph unicode="&#x2261;" horiz-adv-x="1193" d="M117 14v170h966v-170h-966zM117 449v172h966v-172h-966zM117 885v172h966v-172h-966z" />
<glyph unicode="&#x2264;" horiz-adv-x="1124" d="M78 0v170h969v-170h-969zM78 655v219l969 404v-184l-803 -328l803 -328v-184z" />
<glyph unicode="&#x2265;" horiz-adv-x="1124" d="M78 0v170h969v-170h-969zM78 254v184l803 328l-803 328v184l969 -404v-219z" />
<glyph unicode="&#x2302;" horiz-adv-x="1236" d="M158 0v635l460 518l461 -518v-635h-921zM238 82h761v518l-381 426l-380 -426v-518z" />
<glyph unicode="&#x2310;" horiz-adv-x="1196" d="M115 403v525h968v-191h-796v-334h-172z" />
<glyph unicode="&#x2320;" horiz-adv-x="1236" d="M530 1530q0 133 85 181t239 48v-100q-178 0 -178 -117l35 -2054h-152q-29 1802 -29 2042z" />
<glyph unicode="&#x2321;" horiz-adv-x="1236" d="M383 -412q178 0 178 117l-35 2054h152q29 -1802 29 -2042q0 -133 -85 -181t-239 -48v100z" />
<glyph unicode="&#x25ca;" horiz-adv-x="1196" d="M123 610l366 879h220l364 -879l-364 -880h-220zM307 610l291 -735l291 735l-291 733z" />
<glyph unicode="&#x25fc;" horiz-adv-x="1075" d="M0 0v1075h1075v-1075h-1075z" />
<glyph unicode="&#xa78b;" horiz-adv-x="350" d="M94 426v979h205v-203l-106 -776h-99z" />
<glyph unicode="&#xa78c;" horiz-adv-x="319" d="M94 590v891h185v-230l-86 -661h-99z" />
<glyph unicode="&#xfb00;" d="M18 928v149h158v172q0 106 53.5 177t180.5 71q41 0 83 -7t70 -17v-125h-106q-100 0 -101 -99v-172h389v172q0 106 53.5 177t180.5 71q41 0 83 -7t71 -17v-125h-107q-100 -1 -100 -99v-172h207v-149h-207v-928h-181v928h-389v-928h-180v928h-158z" />
<glyph horiz-adv-x="1593" d="M188 0v1405h195v-1405h-195zM188 0zM207 1507l176 271h196l2 -6l-221 -265h-153zM628 375v51h195v-61q0 -111 53 -167.5t154 -56.5q102 0 155.5 64.5t53.5 191.5v1008h194v-997q0 -215 -104.5 -324t-298.5 -109q-193 0 -297.5 102.5t-104.5 297.5zM1260 1507l176 271h196 l2 -6l-221 -265h-153z" />
<glyph horiz-adv-x="1366" d="M162 328v16h194q0 -96 88 -149.5t230 -53.5q166 0 251 88t85 279v94h-15q-111 -197 -385 -196q-215 0 -331.5 112.5t-116.5 347.5v539h194v-549q0 -141 73 -213t212 -72q172 0 270.5 105.5t98.5 302.5v426h194v-887q0 -285 -134 -414t-400 -129q-232 0 -370 88.5 t-138 264.5z" />
<glyph horiz-adv-x="1366" d="M162 0zM162 328v16h194q0 -96 88 -149.5t230 -53.5q166 0 251 88t85 279v94h-15q-111 -197 -385 -196q-215 0 -331.5 112.5t-116.5 347.5v539h194v-549q0 -141 73 -213t212 -72q172 0 270.5 105.5t98.5 302.5v426h194v-887q0 -285 -134 -414t-400 -129q-232 0 -370 88.5 t-138 264.5zM607 1507l176 271h196l2 -6l-221 -265h-153z" />
<glyph horiz-adv-x="1366" d="M162 0zM162 328v16h194q0 -96 88 -149.5t230 -53.5q166 0 251 88t85 279v94h-15q-111 -197 -385 -196q-215 0 -331.5 112.5t-116.5 347.5v539h194v-549q0 -141 73 -213t212 -72q172 0 270.5 105.5t98.5 302.5v426h194v-887q0 -285 -134 -414t-400 -129q-232 0 -370 88.5 t-138 264.5zM381 1501l217 277h172l215 -277h-184l-117 162l-119 -162h-184z" />
<glyph horiz-adv-x="1366" d="M162 0zM162 328v16h194q0 -96 88 -149.5t230 -53.5q166 0 251 88t85 279v94h-15q-111 -197 -385 -196q-215 0 -331.5 112.5t-116.5 347.5v539h194v-549q0 -141 73 -213t212 -72q172 0 270.5 105.5t98.5 302.5v426h194v-887q0 -285 -134 -414t-400 -129q-232 0 -370 88.5 t-138 264.5zM403 1583v195h179v-195h-179zM786 1583v195h179v-195h-179z" />
<glyph horiz-adv-x="1366" d="M162 0zM162 328v16h194q0 -96 88 -149.5t230 -53.5q166 0 251 88t85 279v94h-15q-111 -197 -385 -196q-215 0 -331.5 112.5t-116.5 347.5v539h194v-549q0 -141 73 -213t212 -72q172 0 270.5 105.5t98.5 302.5v426h194v-887q0 -285 -134 -414t-400 -129q-232 0 -370 88.5 t-138 264.5zM385 1772l2 6h196l176 -271h-153z" />
<glyph horiz-adv-x="1366" d="M162 0zM162 328v16h194q0 -96 88 -149.5t230 -53.5q166 0 251 88t85 279v94h-15q-111 -197 -385 -196q-215 0 -331.5 112.5t-116.5 347.5v539h194v-549q0 -141 73 -213t212 -72q172 0 270.5 105.5t98.5 302.5v426h194v-887q0 -285 -134 -414t-400 -129q-232 0 -370 88.5 t-138 264.5zM371 1581v148h624v-148h-624z" />
<glyph horiz-adv-x="1366" d="M162 0zM162 328v16h194q0 -96 88 -149.5t230 -53.5q166 0 251 88t85 279v94h-15q-111 -197 -385 -196q-215 0 -331.5 112.5t-116.5 347.5v539h194v-549q0 -141 73 -213t212 -72q172 0 270.5 105.5t98.5 302.5v426h194v-887q0 -285 -134 -414t-400 -129q-232 0 -370 88.5 t-138 264.5zM348 1565q0 92 43 152.5t131 60.5q39 0 75 -8.5t87 -24.5q88 -31 143 -31q51 0 58 64h133q0 -92 -43 -152.5t-131 -60.5q-39 0 -75 8t-87 24q-88 31 -143 31q-51 0 -58 -63h-133z" />
<glyph horiz-adv-x="1478" d="M96 0zM96 702q0 365 172 546.5t512 181.5q274 0 439 -136.5t165 -396.5h-198q0 180 -107.5 273.5t-298.5 93.5q-248 0 -364.5 -131.5t-118.5 -425.5v-5q0 -297 116.5 -429t366.5 -132q195 0 304.5 92.5t109.5 270.5h190q0 -262 -163.5 -395.5t-440.5 -133.5 q-340 0 -512 181.5t-172 545.5zM661 1507l53 271h197l2 -6l-98 -265h-154z" />
<glyph horiz-adv-x="1478" d="M162 0v1405h174l741 -979l49 -66l9 2v97v946h182v-1405h-166l-745 991l-54 72l-8 -2v-96v-965h-182zM162 0zM661 1507l53 271h197l2 -6l-98 -265h-154z" />
<glyph horiz-adv-x="1593" d="M96 0zM96 702q0 360 183.5 544t517.5 184q336 0 519 -183.5t183 -544.5q0 -358 -183 -542.5t-519 -184.5q-334 0 -517.5 183.5t-183.5 543.5zM297 694q0 -289 129 -421t371 -132q243 0 372 132.5t129 420.5v8q-2 293 -131 427.5t-370 134.5q-240 0 -369 -134.5 t-131 -427.5v-8zM719 1507l53 271h197l2 -6l-98 -265h-154z" />
<glyph horiz-adv-x="1366" d="M100 0zM100 397l2 41h193q0 -2 -2 -14t-2 -29q0 -125 103.5 -189.5t275.5 -64.5q193 0 295 60.5t102 173.5q0 76 -53 126t-134 78.5t-218 63.5q-170 43 -274.5 83t-178.5 119t-74 208q0 184 153.5 280.5t393.5 96.5t389.5 -97.5t149.5 -298.5v-24h-191v30q0 104 -95 164 t-247 60q-162 0 -259 -49.5t-97 -147.5q0 -72 52 -117t129 -72.5t214 -62.5q170 -43 277.5 -84t182.5 -120t75 -205q0 -225 -157 -328t-425 -103q-256 0 -418 102.5t-162 319.5zM606 1507l53 271h197l2 -6l-98 -265h-154z" />
<glyph horiz-adv-x="1251" d="M47 0v100l844 1135h-791v170h1088v-100l-846 -1135h864v-170h-1159zM47 0zM549 1507l53 271h197l2 -6l-98 -265h-154z" />
<glyph horiz-adv-x="569" d="M195 0v1077h180v-1077h-180zM195 0zM195 1286v195h178v-195h-178z" />
<glyph horiz-adv-x="1024" d="M174 0zM174 1210l176 271h197l2 -6l-221 -265h-154zM195 0v1077h180v-1077h-180zM520 -231h90q96 0 96 98v1210h180v-1202q0 -106 -52 -177t-173 -71q-71 0 -141 25v117zM719 1210l176 271h196l2 -6l-221 -265h-153z" />
<glyph d="M131 383v694h180v-682q0 -125 51.5 -177t141.5 -52q137 0 227 95t90 261v555h180v-948q0 -502 -456 -502q-183 0 -296.5 77t-113.5 224v21h176q0 -88 64.5 -131t163.5 -43q283 0 284 346v43h-16q-104 -147 -326 -148q-350 0 -350 367z" />
<glyph d="M131 0zM131 383v694h180v-682q0 -125 51.5 -177t141.5 -52q137 0 227 95t90 261v555h180v-948q0 -502 -456 -502q-183 0 -296.5 77t-113.5 224v21h176q0 -88 64.5 -131t163.5 -43q283 0 284 346v43h-16q-104 -147 -326 -148q-350 0 -350 367zM492 1210l176 271h196l2 -6 l-221 -265h-153z" />
<glyph d="M131 0zM131 383v694h180v-682q0 -125 51.5 -177t141.5 -52q137 0 227 95t90 261v555h180v-948q0 -502 -456 -502q-183 0 -296.5 77t-113.5 224v21h176q0 -88 64.5 -131t163.5 -43q283 0 284 346v43h-16q-104 -147 -326 -148q-350 0 -350 367zM266 1204l217 277h172 l215 -277h-184l-117 162l-119 -162h-184z" />
<glyph d="M131 0zM131 383v694h180v-682q0 -125 51.5 -177t141.5 -52q137 0 227 95t90 261v555h180v-948q0 -502 -456 -502q-183 0 -296.5 77t-113.5 224v21h176q0 -88 64.5 -131t163.5 -43q283 0 284 346v43h-16q-104 -147 -326 -148q-350 0 -350 367zM288 1286v195h179v-195h-179 zM671 1286v195h179v-195h-179z" />
<glyph d="M131 0zM131 383v694h180v-682q0 -125 51.5 -177t141.5 -52q137 0 227 95t90 261v555h180v-948q0 -502 -456 -502q-183 0 -296.5 77t-113.5 224v21h176q0 -88 64.5 -131t163.5 -43q283 0 284 346v43h-16q-104 -147 -326 -148q-350 0 -350 367zM271 1475l2 6h196l176 -271 h-153z" />
<glyph d="M131 0zM131 383v694h180v-682q0 -125 51.5 -177t141.5 -52q137 0 227 95t90 261v555h180v-948q0 -502 -456 -502q-183 0 -296.5 77t-113.5 224v21h176q0 -88 64.5 -131t163.5 -43q283 0 284 346v43h-16q-104 -147 -326 -148q-350 0 -350 367zM256 1284v148h624v-148h-624 z" />
<glyph d="M131 0zM131 383v694h180v-682q0 -125 51.5 -177t141.5 -52q137 0 227 95t90 261v555h180v-948q0 -502 -456 -502q-183 0 -296.5 77t-113.5 224v21h176q0 -88 64.5 -131t163.5 -43q283 0 284 346v43h-16q-104 -147 -326 -148q-350 0 -350 367zM233 1268q0 92 43 152.5 t131 60.5q39 0 75 -8.5t87 -24.5q88 -31 143 -31q51 0 58 64h133q0 -92 -43 -152.5t-131 -60.5q-39 0 -75 8t-87 24q-88 31 -143 31q-51 0 -58 -63h-133z" />
<glyph horiz-adv-x="1024" d="M72 0zM72 539q0 289 115.5 426t359.5 137q221 0 323.5 -106.5t102.5 -317.5h-185q0 145 -52 209.5t-189 64.5q-150 0 -219.5 -97t-69.5 -316v-9q0 -217 67.5 -311t221.5 -94q135 0 193.5 68.5t58.5 205.5h174q0 -184 -104.5 -304t-321.5 -120q-246 0 -360.5 136.5 t-114.5 427.5zM434 1210l53 271h197l2 -6l-98 -265h-154z" />
<glyph d="M137 0v1077h137l21 -145h14q119 170 363 170q162 0 249 -87t87 -280v-735h-181v723q0 129 -57 179t-166 50q-78 0 -143.5 -37.5t-104.5 -109.5t-39 -168v-637h-180zM137 0zM491 1210l53 271h197l2 -6l-98 -265h-154z" />
<glyph d="M72 0zM72 539q0 287 125 425t372 138q248 0 373 -138.5t125 -424.5q0 -287 -125 -425.5t-373 -138.5q-247 0 -372 138.5t-125 425.5zM258 530q0 -215 74 -310t237 -95q164 0 238 95t74 310v17q0 215 -74 310t-238 95t-237.5 -95t-73.5 -310v-17zM491 1210l53 271h197 l2 -6l-98 -265h-154z" />
<glyph horiz-adv-x="1024" d="M63 0zM63 291q0 25 1.5 34t1.5 11h178v-21q0 -96 75.5 -144t196.5 -48q104 0 173 42t69 118q0 59 -39 97t-96.5 59.5t-155.5 45.5q-119 31 -193.5 62t-127 91t-52.5 157q0 141 116 224t312 83q123 0 213 -40t136.5 -106.5t46.5 -148.5l-3 -39h-176v18q0 72 -56 119 t-181 47q-123 0 -172 -44t-49 -101q0 -47 34.5 -78t86 -49t143.5 -41q127 -33 206.5 -64.5t136 -96t56.5 -171.5q0 -166 -119.5 -249t-318.5 -83q-150 0 -249 44t-146.5 116t-47.5 156zM434 1210l53 271h197l2 -6l-98 -265h-154z" />
<glyph horiz-adv-x="1024" d="M49 0v96l625 832h-582v149h846v-94l-627 -833h662v-150h-924zM49 0zM434 1210l53 271h197l2 -6l-98 -265h-154z" />
<glyph horiz-adv-x="1366" d="M92 373q0 147 83 258.5t216 175.5q-100 123 -100 274q0 102 48 182t132 124.5t188 44.5q141 0 236.5 -81t95.5 -218q0 -143 -90 -236.5t-227 -148.5l321 -355q70 139 70 312h170q0 -248 -123 -439l242 -266h-234l-123 135q-86 -78 -197.5 -120t-242.5 -42 q-127 0 -233.5 48.5t-169 138.5t-62.5 213zM274 377q0 -119 85 -186.5t214 -67.5q189 0 322 127l-395 436q-104 -47 -165 -128t-61 -181zM471 1092q0 -129 92 -226q117 47 182.5 104.5t65.5 147.5q0 76 -48 119t-114 43q-71 0 -124.5 -49t-53.5 -139z" />
<glyph horiz-adv-x="681" d="M215 1210l53 271h197l2 -6l-98 -265h-154z" />
<glyph horiz-adv-x="681" d="M0 0z" />
</font>
</defs>
</svg>
